<svg width="520" height="92" viewBox="0 0 520 92" fill="none" xmlns="http://www.w3.org/2000/svg">
<g clip-path="url(#clip0_58_231)">
<path d="M257.379 89.3204L254.645 80.8241L261.008 81.1668L257.379 89.3204Z" fill="#FFF2A6"/>
<path d="M291.615 91.1567L288.67 82.7219L295.042 82.9065L291.615 91.1567Z" fill="#3A7752"/>
<path d="M322.353 91.8596L319.408 83.4248L325.78 83.6181L322.353 91.8596Z" fill="#E86E2A"/>
<path d="M354.336 92.3692L351.154 84.0311H357.526L354.336 92.3692Z" fill="#FFF2A6"/>
<path d="M385.478 92.3692L382.296 84.0311H388.668L385.478 92.3692Z" fill="#3A7752"/>
<path d="M417.907 91.965L414.717 83.6269H421.089L417.907 91.965Z" fill="#E86E2A"/>
<path d="M450.495 91.104L446.901 82.9328L453.265 82.6165L450.495 91.104Z" fill="#FFF2A6"/>
<path d="M480.155 90.199L476.562 82.0278L482.925 81.7115L480.155 90.199Z" fill="#3A7752"/>
<path d="M515.346 87.8531L511.752 79.6819L518.124 79.3656L515.346 87.8531Z" fill="#E86E2A"/>
<path d="M519.939 79.2075C519.939 79.2075 204.291 103.809 0.0615234 41.7344" stroke="#EAEAEA" stroke-width="0.5" stroke-miterlimit="10"/>
<path d="M18.2134 73.9358L16.2939 65.2111L22.5959 66.16L18.2134 73.9358Z" fill="#FFF2A6"/>
<path d="M49.2495 77.9335L46.9531 69.3054L53.2901 69.982L49.2495 77.9335Z" fill="#3A7752"/>
<path d="M84.6596 81.4831L81.9951 72.9605L88.3584 73.3559L84.6596 81.4831Z" fill="#E86E2A"/>
<path d="M115.161 83.1613L112.497 74.6386L118.86 75.034L115.161 83.1613Z" fill="#FFF2A6"/>
<path d="M146.241 83.7939L143.051 75.4558H149.432L146.241 83.7939Z" fill="#3A7752"/>
<path d="M177.847 83.3809L174.385 75.1483L180.757 74.9374L177.847 83.3809Z" fill="#E86E2A"/>
<path d="M209.155 81.9927L205.421 73.883L211.776 73.4613L209.155 81.9927Z" fill="#FFF2A6"/>
<path d="M240.902 79.6643L237.133 71.5723L243.487 71.1154L240.902 79.6643Z" fill="#3A7752"/>
<path d="M272.13 76.5804L268.099 68.6113L274.444 67.9524L272.13 76.5804Z" fill="#E86E2A"/>
<path d="M303.114 72.5651L299.091 64.6048L305.428 63.9459L303.114 72.5651Z" fill="#FFF2A6"/>
<path d="M335.378 67.6009L330.741 59.9745L337.017 58.8235L335.378 67.6009Z" fill="#3A7752"/>
<path d="M367.851 62.1271L363.215 54.5095L369.49 53.3497L367.851 62.1271Z" fill="#E86E2A"/>
<path d="M396.197 56.6621L391.56 49.0357L397.827 47.8847L396.197 56.6621Z" fill="#FFF2A6"/>
<path d="M428.092 50.011L423.07 42.6306L429.275 41.1633L428.092 50.011Z" fill="#3A7752"/>
<path d="M488.043 35.9443L483.021 28.5727L489.218 27.0878L488.043 35.9443Z" fill="#FFF2A6"/>
<path d="M514.329 29.3283L509.307 21.9567L515.504 20.4806L514.329 29.3283Z" fill="#326028"/>
<path d="M459.286 43.105L454.264 35.7334L460.46 34.2486L459.286 43.105Z" fill="#E86E2A"/>
<path d="M519.939 18.9957C205.737 103.299 61.1173 70.2368 0.937988 62.9882" stroke="#EAEAEA" stroke-width="0.5" stroke-miterlimit="10"/>
<path d="M134.268 14.4325C129.835 14.9143 124.471 14.1434 118.818 13.3404C112.812 12.4732 106.548 11.5738 100.992 12.152C78.893 14.4967 73.9144 36.8522 89.621 35.2141L89.5247 34.379C75.2313 35.8886 79.9208 15.2355 101.088 12.9871C105.681 12.5374 110.788 13.0834 115.927 13.7901C113.807 14.5288 110.949 16.456 109.022 20.0214C105.424 26.5096 97.3941 43.4368 79.7923 43.4368C74.3962 43.4368 71.152 41.606 70.9593 38.4261L70.1242 38.4904C70.349 42.152 73.9465 44.272 79.7923 44.272C97.9401 44.272 106.195 26.895 109.76 20.4068C112.234 15.91 116.024 14.2398 117.79 14.2398V14.047C118.111 14.0792 118.401 14.1434 118.722 14.1755C124.343 14.9785 129.835 15.7494 134.364 15.2676L134.268 14.4325ZM128.692 36.9486C124.869 38.8758 119.152 41.1563 115.715 40.4497C114.527 40.2248 113.756 39.5824 113.371 38.8116C115.009 39.2934 117.964 37.8801 117.964 35.5353C117.964 34.6681 117.225 34.0257 116.261 34.0257C113.788 34.0257 112.407 35.6317 112.246 37.334V37.3983C112.15 39.0685 113.178 40.803 115.555 41.2848C119.248 42.0557 125.223 39.6467 129.045 37.7195L128.692 36.9486ZM116.261 34.8608C116.775 34.8608 117.129 35.1499 117.129 35.5353C117.129 37.8158 113.178 38.8758 113.081 37.3983C113.21 36.0814 114.302 34.8608 116.261 34.8608ZM155.637 36.9486C152.393 38.4904 148.442 40 144.652 40C142.275 40 141.151 39.4861 141.151 38.5225C141.151 37.9443 141.664 37.1092 142.178 36.3062C143.046 34.9572 143.335 34.0257 142.178 34.0257C141.6 34.0257 140.444 34.7323 139.705 35.1499C138.742 35.728 137.714 36.4989 136.814 37.2377C137.585 35.8565 138.099 34.4754 137.617 33.9614C136.879 33.1584 135.722 33.6724 128.688 36.9486L129.009 37.7195C135.851 34.5396 136.75 34.2505 137.039 34.5396C137.328 34.8608 135.369 38.4261 134.084 39.7109L134.02 39.7752L134.598 40.3533C134.598 40.3533 137.553 37.3983 140.123 35.8886C141.151 35.2784 141.729 34.9572 142.018 34.8929C141.986 34.9893 141.857 35.2462 141.472 35.8565C140.958 36.6595 140.315 37.6874 140.315 38.5225C140.315 40.0964 141.825 40.8351 144.652 40.8351C148.57 40.8351 152.714 39.2612 156.022 37.7195L155.637 36.9486ZM158.19 42.3448C153.051 42.3448 155.621 37.1092 160.406 31.8736C161.434 30.7494 162.559 29.5931 163.747 28.501C164.582 28.4047 165.449 28.3083 166.317 28.1798C167.858 27.9871 169.336 27.7944 170.492 27.7944C171.809 27.7944 172.387 28.0192 172.387 28.4689H173.222C173.222 27.4411 172.291 26.9593 170.492 26.9593C169.272 26.9593 167.73 27.152 166.188 27.3447L164.807 27.5374C165.963 26.4775 167.184 25.4496 168.404 24.5182L167.89 23.8758C166.349 25.0642 164.807 26.349 163.362 27.698C162.815 27.7302 162.302 27.7623 161.82 27.7623C160.278 27.7623 159.636 27.4732 159.636 26.895H158.8C158.8 28.0514 159.828 28.5974 161.82 28.5974H162.398C161.466 29.4968 160.599 30.3961 159.764 31.2955C153.469 38.2013 152.762 43.1799 158.19 43.1799C161.884 43.1799 172.741 37.7195 172.741 37.7195L172.355 36.9486C172.355 36.9486 161.691 42.3448 158.19 42.3448Z" fill="#FFF2A6"/>
<path d="M66.6005 39.1509C66.9838 39.4334 67.1755 39.7461 67.1755 40.0891C67.1755 40.5935 66.893 40.8457 66.3281 40.8457H41.1487C40.725 40.8457 40.5132 40.5733 40.5132 40.0286C40.5132 39.504 40.7351 39.2417 41.179 39.2417H64.0886L65.3597 38.2128L66.6005 39.1509ZM66.3886 51.1051C66.772 51.3472 66.9636 51.6397 66.9636 51.9827C66.9636 52.4669 66.6913 52.7091 66.1465 52.7091H54.1016C54.0814 53.6573 54.0511 54.4139 54.0108 54.9788H62.5754C63.7456 54.9788 64.3206 55.5538 64.3004 56.7039C64.2803 58.8223 64.0079 60.5574 63.4833 61.9092C63.0193 63.0794 61.9096 63.6645 60.1543 63.6645C59.4078 63.6645 58.2981 63.5132 56.8253 63.2105C56.4621 63.1298 56.2806 62.8474 56.2806 62.3632C56.2806 61.7175 56.5529 61.4351 57.0977 61.5158C58.0863 61.657 58.853 61.7276 59.3977 61.7276C59.9626 61.7276 60.3863 61.546 60.6688 61.1829C60.8504 60.9408 61.0118 60.4868 61.153 59.821C61.3951 58.7921 61.5061 57.7429 61.4859 56.6736H53.6779C53.1533 58.4692 52.1647 60.0127 50.712 61.3039C49.2796 62.575 47.5747 63.4224 45.5975 63.8461C45.2747 63.947 44.9821 63.8965 44.7198 63.6948C44.4777 63.5132 44.3567 63.3013 44.3567 63.0592C44.3567 62.8171 44.4878 62.6254 44.7501 62.4842C46.5861 61.5965 47.958 60.6785 48.866 59.7302C49.9958 58.56 50.702 57.0973 50.9844 55.342C51.0651 54.7569 51.1055 53.8792 51.1055 52.7091H46.1725C45.6479 52.7091 45.3856 52.4367 45.3856 51.8919C45.3856 51.3875 45.6782 51.1353 46.2633 51.1353H54.4647V48.3813H44.9014V48.5932C44.9014 51.4985 44.7602 53.7985 44.4777 55.4933C44.0137 58.6609 42.8536 61.3746 40.9974 63.6342C40.836 63.7956 40.6645 63.8763 40.4829 63.8763C39.9785 63.8763 39.7263 63.604 39.7263 63.0592C39.7263 62.918 39.7566 62.7869 39.8171 62.6658C40.7654 61.0316 41.4413 58.7416 41.8448 55.7959C41.9658 54.8073 42.0264 53.8591 42.0264 52.9512V44.2958C42.0264 43.8721 42.2079 43.519 42.5711 43.2365C42.9545 42.9339 43.3983 42.7826 43.9027 42.7826H63.9978C64.825 42.7826 65.2386 43.2163 65.2386 44.0839V47.2011C65.2386 47.9879 64.7846 48.3813 63.8767 48.3813H57.249V51.1353H64.2399L65.3597 50.3182L66.3886 51.1051ZM62.6057 46.8076V44.326H44.9014V46.8076H62.6057ZM96.1681 51.1353C96.1681 51.8213 95.8856 52.3661 95.3207 52.7696C94.7759 53.1731 94.0496 53.3547 93.1417 53.3143C92.5163 53.2942 91.6487 53.2034 90.539 53.042C90.075 52.9007 89.843 52.588 89.843 52.1038C89.843 51.8415 89.9338 51.6196 90.1153 51.438C90.3171 51.2564 90.5592 51.1858 90.8417 51.2261C91.4671 51.327 91.9009 51.3775 92.143 51.3775C92.9904 51.3775 93.4141 50.984 93.4141 50.1972V38.8483C93.4141 38.243 93.8579 37.9404 94.7457 37.9404C95.6939 37.9404 96.1681 38.2531 96.1681 38.8786V51.1353ZM91.2048 48.7748C91.2048 49.0169 91.0434 49.2287 90.7206 49.4103C90.3978 49.5717 90.0346 49.6524 89.6311 49.6524C88.8443 49.6524 88.4508 49.3498 88.4508 48.7445V40.2102C88.4508 39.6452 88.9048 39.3628 89.8127 39.3628C90.7408 39.3628 91.2048 39.6553 91.2048 40.2404V48.7748ZM87.1192 45.2037C87.5026 45.4861 87.6942 45.819 87.6942 46.2024C87.6942 46.7068 87.3916 46.959 86.7863 46.959H84.2745V52.5577C84.2745 53.1025 83.8306 53.3749 82.9429 53.3749C82.62 53.395 82.3073 53.3345 82.0047 53.1933C81.6617 53.0319 81.4902 52.8099 81.4902 52.5275V46.959H77.8888C77.6265 50.1064 75.9318 52.477 72.8045 54.0709C72.744 54.1113 72.6835 54.1314 72.6229 54.1314C72.4212 54.1314 72.2093 54.0104 71.9874 53.7683C71.7655 53.5262 71.6545 53.3042 71.6545 53.1025C71.6545 52.9814 71.7049 52.8805 71.8058 52.7998C73.8436 51.4884 74.9532 49.5415 75.1348 46.959H72.1085C71.6646 46.959 71.4427 46.6765 71.4427 46.1116C71.4427 45.5668 71.6747 45.2945 72.1387 45.2945H75.1954V41.1181H72.7137C72.29 41.1181 72.0782 40.8255 72.0782 40.2404C72.0782 39.7158 72.3001 39.4536 72.744 39.4536H84.2745L85.2732 38.3943L86.5442 39.3325C86.9074 39.6351 87.089 39.968 87.089 40.3312C87.089 40.8558 86.7964 41.1181 86.2113 41.1181H84.2745V45.2945H84.8797L85.8482 44.2352L87.1192 45.2037ZM97.6813 61.1224C98.0848 61.4048 98.2865 61.7377 98.2865 62.1211C98.2865 62.686 97.9738 62.9684 97.3484 62.9684H71.8361C71.372 62.9684 71.14 62.6658 71.14 62.0605C71.14 61.4754 71.3821 61.1829 71.8663 61.1829H83.1244V58.0052H73.7124C73.2282 58.0052 72.9861 57.7026 72.9861 57.0973C72.9861 56.5324 73.2383 56.2499 73.7427 56.2499H83.1244V54.7972C83.1244 54.2727 83.6087 54.0104 84.5771 54.0104C85.5859 54.0104 86.0903 54.2828 86.0903 54.8275V56.2499H93.747L94.7154 55.2815L95.9562 56.1288C96.3597 56.4315 96.5615 56.7745 96.5615 57.1578C96.5615 57.7227 96.2488 58.0052 95.6233 58.0052H86.0903V61.1829H95.5628L96.5312 60.3658L97.6813 61.1224ZM81.4902 45.2945V41.1181H77.9191V41.5115C77.9191 41.5518 77.9191 42.0865 77.9191 43.1155C77.9191 43.7006 77.9191 44.4269 77.9191 45.2945H81.4902ZM128.278 48.805C128.197 48.805 128.127 48.795 128.066 48.7748C123.244 47.0598 119.229 44.0436 116.021 39.7259C112.914 44.0234 108.506 47.1708 102.796 49.1682C102.735 49.1884 102.675 49.1985 102.614 49.1985C102.412 49.1985 102.231 49.1077 102.069 48.9261C101.928 48.7445 101.858 48.5327 101.858 48.2906C101.858 48.0081 101.989 47.8063 102.251 47.6853C104.43 46.6563 106.478 45.3449 108.395 43.751C110.553 41.9755 112.178 40.1597 113.267 38.3035C113.57 37.7588 114.326 37.5167 115.537 37.5772C116.324 37.6176 116.858 37.8395 117.141 38.243C119.461 41.6527 123.466 44.2554 129.155 46.051C129.498 46.1519 129.67 46.505 129.67 47.1103C129.67 47.534 129.539 47.9274 129.277 48.2906C129.034 48.6335 128.702 48.805 128.278 48.805ZM123.315 63.029C123.315 63.6141 122.861 63.9268 121.953 63.9671C121.61 63.9671 121.257 63.8864 120.893 63.725C120.47 63.5434 120.258 63.3013 120.258 62.9987V47.7458C120.258 47.08 120.742 46.7471 121.711 46.7471C122.78 46.7471 123.315 47.0901 123.315 47.7761V63.029ZM111.3 50.5301C111.32 51.1152 111.32 51.8011 111.3 52.588C111.239 55.1301 110.745 57.289 109.817 59.0644C108.97 60.6785 107.426 62.2018 105.187 63.6342C105.106 63.6746 105.015 63.6948 104.914 63.6948C104.713 63.6948 104.501 63.604 104.279 63.4224C104.077 63.261 103.976 63.0794 103.976 62.8776C103.976 62.6961 104.047 62.5548 104.188 62.454C105.641 61.1829 106.72 59.5991 107.426 57.7026C107.951 56.2499 108.223 54.5551 108.243 52.6183C108.243 52.6183 108.243 52.0433 108.243 50.8932V47.4432C108.243 46.8783 108.717 46.5958 109.666 46.5958C110.674 46.5958 111.189 46.8783 111.209 47.4432L111.3 50.5301ZM159.631 41.1181C159.651 44.1041 159.49 46.3839 159.147 47.9577C158.743 49.9147 157.634 50.8932 155.818 50.8932C154.405 50.8932 153.215 50.7419 152.247 50.4393C151.883 50.3182 151.702 50.0358 151.702 49.5919C151.702 49.3296 151.783 49.0976 151.944 48.8958C152.105 48.6739 152.297 48.5831 152.519 48.6235C153.044 48.7445 153.709 48.805 154.516 48.805C155.223 48.805 155.747 48.5327 156.09 47.9879C156.312 47.6248 156.504 46.9892 156.665 46.0813C156.847 44.9111 156.907 43.1962 156.847 40.9365H152.065C151.843 43.862 151.44 45.9502 150.855 47.2011C150.007 48.9765 148.413 50.3081 146.073 51.1959C145.992 51.216 145.901 51.2261 145.8 51.2261C145.276 51.2261 145.014 50.9033 145.014 50.2577C145.014 49.9551 145.115 49.7432 145.316 49.6222C147.858 48.3713 149.119 45.476 149.099 40.9365H145.8C145.377 40.9365 145.165 40.6742 145.165 40.1496C145.165 39.5847 145.377 39.3022 145.8 39.3022H157.815C159.006 39.3022 159.611 39.9075 159.631 41.1181ZM159.117 61.8487C159.117 62.8575 158.521 63.3619 157.331 63.3619H147.102C146.093 63.3619 145.589 62.8676 145.589 61.8789V54.0407C145.589 53.617 145.72 53.274 145.982 53.0117C146.244 52.7292 146.608 52.588 147.072 52.588H157.513C158.582 52.588 159.117 53.0924 159.117 54.1012V61.8487ZM145.074 52.134C145.074 52.5779 144.832 52.8906 144.348 53.0722C144.086 53.1731 143.783 53.1933 143.44 53.1327C143.036 53.0722 142.814 52.931 142.774 52.7091C142.714 52.3862 142.643 52.0735 142.562 51.7709C142.018 51.8516 141.352 51.9323 140.565 52.013V63.3619C140.565 63.8663 140.101 64.1185 139.173 64.1185C138.325 64.1185 137.902 63.8663 137.902 63.3619V52.3459C136.53 52.4871 135.208 52.6082 133.937 52.7091C133.413 52.7494 133.15 52.3459 133.15 51.4985C133.15 50.8932 133.332 50.6007 133.695 50.6209C134.22 50.6209 134.875 50.6209 135.662 50.6209C136.388 49.6928 137.105 48.7344 137.811 47.7458C137.508 47.9072 137.246 47.9879 137.024 47.9879C136.782 47.9879 136.621 47.8971 136.54 47.7155C135.269 45.5366 134.23 44.0738 133.423 43.3273C133.322 43.2063 133.271 43.0852 133.271 42.9642C133.271 42.7624 133.362 42.5707 133.544 42.3891C133.725 42.2076 133.927 42.1168 134.149 42.1168C134.29 42.1168 134.785 42.4497 135.632 43.1155C136.338 41.9251 137.095 40.3312 137.902 38.3338C138.003 38.0513 138.265 37.9101 138.689 37.9101C139.132 37.9101 139.566 38.0312 139.99 38.2733C140.434 38.4952 140.656 38.7474 140.656 39.0299C140.656 39.1106 140.635 39.1812 140.595 39.2417C139.707 40.7751 138.446 42.3992 136.812 44.1142C138.023 45.2037 138.658 45.9804 138.719 46.4445C140.151 44.3865 141.15 42.7523 141.715 41.5418C141.836 41.2795 142.078 41.1483 142.441 41.1483C142.865 41.1483 143.289 41.2996 143.712 41.6023C144.136 41.8847 144.348 42.1874 144.348 42.5102C144.348 42.6111 144.328 42.7019 144.287 42.7826C143.117 44.6186 140.928 47.2112 137.72 50.5603C139.354 50.52 140.827 50.4494 142.139 50.3485C141.836 49.5213 141.513 48.8454 141.17 48.3208C141.089 48.2401 141.049 48.1594 141.049 48.0787C141.049 47.9173 141.13 47.766 141.291 47.6248C141.473 47.4835 141.664 47.4129 141.866 47.4129C142.028 47.4129 142.149 47.4633 142.229 47.5642C142.774 48.1292 143.339 48.8656 143.924 49.7735C144.691 50.9033 145.074 51.6902 145.074 52.134ZM144.923 58.5499C145.044 59.1149 144.772 59.4881 144.106 59.6697C143.823 59.7504 143.511 59.7605 143.168 59.7C142.744 59.6193 142.522 59.4679 142.502 59.246C142.34 57.3495 141.997 55.7657 141.473 54.4946C141.453 54.4341 141.443 54.3736 141.443 54.313C141.443 53.8893 141.735 53.6775 142.32 53.6775C142.562 53.6775 142.744 53.7582 142.865 53.9196C143.894 55.2916 144.58 56.835 144.923 58.5499ZM136.933 54.5551C136.57 56.8955 135.783 59.3267 134.573 61.8487C134.452 62.111 134.24 62.2421 133.937 62.2421C133.332 62.2421 133.029 62.0101 133.029 61.546C133.029 61.1224 133.231 59.9824 133.635 58.1263C134.058 56.1692 134.29 54.8477 134.331 54.1617C134.371 53.7784 134.704 53.5867 135.329 53.5867C135.733 53.5867 136.106 53.6876 136.449 53.8893C136.812 54.0709 136.974 54.2929 136.933 54.5551ZM156.181 61.6066V54.2222H148.524V61.6066H156.181Z" fill="#E86E2A"/>
</g>
<defs>
<clipPath id="clip0_58_231">
<rect width="520" height="92" fill="white"/>
</clipPath>
</defs>
</svg>
