<svg width="520" height="92" viewBox="0 0 520 92" fill="none" xmlns="http://www.w3.org/2000/svg">
<g clip-path="url(#clip0_109_85)">
<path d="M257.379 89.3204L254.645 80.8241L261.008 81.1668L257.379 89.3204Z" fill="#FFF2A6"/>
<path d="M291.615 91.1567L288.67 82.7219L295.042 82.9065L291.615 91.1567Z" fill="#3A7752"/>
<path d="M322.353 91.8596L319.408 83.4248L325.78 83.6181L322.353 91.8596Z" fill="#E86E2A"/>
<path d="M354.336 92.3692L351.154 84.0311H357.526L354.336 92.3692Z" fill="#FFF2A6"/>
<path d="M385.478 92.3692L382.296 84.0311H388.668L385.478 92.3692Z" fill="#3A7752"/>
<path d="M417.907 91.965L414.717 83.6269H421.089L417.907 91.965Z" fill="#E86E2A"/>
<path d="M450.495 91.104L446.901 82.9328L453.265 82.6165L450.495 91.104Z" fill="#FFF2A6"/>
<path d="M480.155 90.199L476.562 82.0278L482.925 81.7115L480.155 90.199Z" fill="#3A7752"/>
<path d="M515.346 87.8531L511.752 79.6819L518.124 79.3656L515.346 87.8531Z" fill="#E86E2A"/>
<path d="M519.939 79.2075C519.939 79.2075 204.291 103.809 0.0615234 41.7344" stroke="#EAEAEA" stroke-width="0.5" stroke-miterlimit="10"/>
<path d="M18.2134 73.9358L16.2939 65.2111L22.5959 66.16L18.2134 73.9358Z" fill="#FFF2A6"/>
<path d="M49.2495 77.9335L46.9531 69.3054L53.2901 69.982L49.2495 77.9335Z" fill="#3A7752"/>
<path d="M84.6596 81.4831L81.9951 72.9605L88.3584 73.3559L84.6596 81.4831Z" fill="#E86E2A"/>
<path d="M115.162 83.1613L112.497 74.6386L118.86 75.034L115.162 83.1613Z" fill="#FFF2A6"/>
<path d="M146.241 83.7939L143.051 75.4558H149.432L146.241 83.7939Z" fill="#3A7752"/>
<path d="M177.847 83.3809L174.385 75.1483L180.757 74.9374L177.847 83.3809Z" fill="#E86E2A"/>
<path d="M209.156 81.9927L205.422 73.883L211.776 73.4613L209.156 81.9927Z" fill="#FFF2A6"/>
<path d="M240.902 79.6643L237.133 71.5723L243.487 71.1154L240.902 79.6643Z" fill="#3A7752"/>
<path d="M272.13 76.5804L268.099 68.6113L274.444 67.9524L272.13 76.5804Z" fill="#E86E2A"/>
<path d="M303.114 72.5651L299.091 64.6048L305.428 63.9459L303.114 72.5651Z" fill="#FFF2A6"/>
<path d="M335.378 67.6009L330.741 59.9745L337.017 58.8235L335.378 67.6009Z" fill="#3A7752"/>
<path d="M367.851 62.1271L363.215 54.5095L369.49 53.3497L367.851 62.1271Z" fill="#E86E2A"/>
<path d="M396.197 56.6621L391.561 49.0357L397.827 47.8847L396.197 56.6621Z" fill="#FFF2A6"/>
<path d="M428.092 50.011L423.069 42.6306L429.275 41.1633L428.092 50.011Z" fill="#3A7752"/>
<path d="M488.044 35.9443L483.021 28.5727L489.218 27.0878L488.044 35.9443Z" fill="#FFF2A6"/>
<path d="M514.329 29.3283L509.307 21.9567L515.503 20.4806L514.329 29.3283Z" fill="#326028"/>
<path d="M459.286 43.105L454.264 35.7334L460.46 34.2486L459.286 43.105Z" fill="#E86E2A"/>
<path d="M519.938 18.9957C205.737 103.299 61.1168 70.2368 0.9375 62.9882" stroke="#EAEAEA" stroke-width="0.5" stroke-miterlimit="10"/>
<path d="M131.57 12.3768L131.506 11.5417C127.78 11.7986 123.347 11.4132 112.812 10.3854C95.4669 8.65088 85.863 12.2804 85.2527 20.9207C84.9315 25.5139 88.3041 28.4689 93.9251 28.4689C100.799 28.4689 106.58 24.486 109.728 17.6445L108.957 17.2912C105.938 23.8436 100.445 27.6338 93.9251 27.6338C88.7538 27.6338 85.7988 25.0963 86.0878 20.985C86.666 12.9228 95.8844 9.51812 112.747 11.2205C116.249 11.5738 119.075 11.8308 121.42 12.0235C117.694 13.758 114.321 18.865 110.595 24.486C110.467 24.6788 110.338 24.8715 110.242 25.0321H109.728C106.452 25.0321 104.268 26.5738 104.043 29.0471L104.878 29.1113C105.039 27.1199 106.837 25.8672 109.696 25.8672C103.497 35.2462 96.1093 45.5889 84.257 45.5889C76.9658 45.5889 72.469 42.666 72.469 38.1049C72.469 35.8886 73.561 33.5439 75.5525 31.4882L74.9422 30.91C72.8223 33.0942 71.6338 35.6638 71.6338 38.1049C71.6338 43.212 76.5161 46.424 84.257 46.424C96.7196 46.424 104.396 35.3747 110.692 25.8993C111.655 25.9636 112.812 26.1242 114.032 26.4132C113.486 27.0878 113.004 27.8265 112.619 28.5974L113.358 28.9507C113.775 28.1477 114.321 27.3447 114.932 26.6381L115.831 26.9272C118.85 27.9229 121.452 23.683 117.951 23.683C117.019 23.683 115.767 24.486 114.643 25.7066C113.422 25.3854 112.234 25.1927 111.206 25.0963L111.302 24.9678C115.895 18.0299 119.685 12.2483 124.118 12.2483C127.33 12.4732 129.546 12.5053 131.57 12.3768ZM117.951 24.5182C119.685 24.5182 118.176 26.8308 116.088 26.1242C115.927 26.0599 115.735 25.9957 115.574 25.9636C116.441 25.0963 117.341 24.5182 117.951 24.5182ZM136.826 36.9486C131.719 39.1006 127.8 40.3533 126.194 40.3533C125.198 40.3533 124.781 40.0642 124.781 39.4218C124.781 38.2013 126.034 36.0814 126.387 35.5353L126.13 35.3747L125.744 34.9893L124.717 36.0171C124.395 35.2462 123.592 34.7644 122.661 34.7644C120.734 34.7644 118.582 37.0128 118.582 38.94C118.582 39.743 118.967 40.4497 119.61 40.4497C120.894 40.4497 122.95 38.8116 124.46 37.3983C124.171 38.0728 123.946 38.8116 123.946 39.4218C123.946 40.546 124.781 41.1884 126.194 41.1884C128.378 41.1884 133.485 39.2612 137.147 37.7195L136.826 36.9486ZM119.417 38.94C119.417 37.4946 121.216 35.5996 122.661 35.5996C123.368 35.5996 123.946 36.0492 124.042 36.6595C122.597 38.0086 120.67 39.6146 119.61 39.6146C119.545 39.6146 119.417 39.2934 119.417 38.94ZM163.185 33.03L162.735 32.3233L161.996 32.8051L162.446 33.5118L163.185 33.03ZM175.712 36.9486C172.468 38.5546 167.296 40 163.506 40C159.973 40 158.335 39.2934 158.335 37.9443C158.335 36.9807 158.945 35.985 160.133 34.9572L159.62 34.2826C156.118 36.8522 140.476 42.6017 137.585 39.1328C136.3 37.591 139.545 33.9293 142.146 33.9293C143.656 33.9293 143.752 34.7002 142.243 35.985L142.821 36.6274C144.844 34.8287 144.491 33.0942 142.146 33.0942C139.545 33.0942 134.919 37.2377 136.943 39.6467C139.769 43.0193 152.296 39.0364 157.981 36.2098C157.66 36.788 157.5 37.3662 157.5 37.9443C157.5 39.9036 159.523 40.8351 163.506 40.8351C167.425 40.8351 172.789 39.3255 176.097 37.7195L175.712 36.9486ZM181.302 34.5717C186.537 34.5717 199.192 24.743 199.192 20.6959C199.192 19.668 198.389 19.122 197.008 19.122C190.295 19.122 183.678 24.2933 179.567 29.6574C176.869 33.1906 175.231 36.8201 175.231 39.2612C175.231 41.1884 176.548 42.2163 178.893 42.2163C183.197 42.2163 192.768 37.7195 192.768 37.7195L192.447 36.9486C192.447 36.9486 183.004 41.3812 178.893 41.3812C176.997 41.3812 176.066 40.6745 176.066 39.2612C176.066 37.591 176.965 35.2141 178.475 32.7088C178.893 33.8972 179.856 34.5717 181.302 34.5717ZM180.242 30.1713C184.289 24.9036 190.584 19.9571 197.008 19.9571C197.972 19.9571 198.357 20.2141 198.357 20.6959C198.357 23.9721 186.569 33.7366 181.302 33.7366C179.985 33.7366 179.278 33.0942 179.117 31.713C179.471 31.1991 179.856 30.6852 180.242 30.1713ZM201.709 32.4197L201.259 31.713L199.589 32.8051L200.039 33.5118L201.709 32.4197ZM213.304 36.9486C210.06 38.5546 204.889 40 201.099 40C197.565 40 195.927 39.2934 195.927 37.9443C195.927 37.0771 196.409 36.3383 197.726 35.2141L197.18 34.5717L197.148 34.6038C196.602 35.0535 195.156 35.7923 192.426 36.9486L192.747 37.7195C193.839 37.2377 194.739 36.8522 195.478 36.4989C195.221 36.9807 195.092 37.4625 195.092 37.9443C195.092 39.9036 197.116 40.8351 201.099 40.8351C205.017 40.8351 210.381 39.3255 213.69 37.7195L213.304 36.9486ZM250.917 37.7195L250.564 36.9486C248.508 37.9122 245.104 38.8116 241.346 39.8073C240.029 40.1606 238.648 40.5139 237.298 40.8994L239.547 37.9764C241.153 35.8886 242.663 33.9293 244.012 32.2912L243.979 32.2591C244.076 32.1948 244.14 32.1306 244.172 32.0985L243.594 31.4882C240.928 34.1542 233.83 38.7152 233.059 38.2013C232.609 37.9122 233.187 36.9165 236.014 33.7366C237.009 32.6124 237.523 31.6488 237.523 30.8458C237.523 29.1113 235.436 28.3726 231.003 28.3726C229.172 28.3726 227.084 28.4689 225.093 28.5974C223.68 28.6616 222.331 28.758 221.11 28.7901C222.684 27.2805 224.386 25.8351 226.089 24.5182L225.575 23.8758C223.615 25.3854 221.656 27.0878 219.857 28.8222C217.737 28.8222 216.677 28.5332 216.677 28.1798C216.677 28.1156 216.71 28.0192 216.774 27.9229L216.003 27.5374C215.907 27.7302 215.842 27.955 215.842 28.1798C215.842 29.1756 217.031 29.561 219.022 29.6252L217.448 31.2955C214.044 35.0535 212.213 38.1692 212.213 40.2248C212.213 42.152 213.53 43.1799 215.874 43.1799V42.3448C213.979 42.3448 213.048 41.6381 213.048 40.2248C213.048 38.394 214.815 35.439 218.091 31.8736C218.765 31.1349 219.472 30.3961 220.211 29.6574C221.656 29.6574 223.391 29.5289 225.125 29.4325C227.116 29.304 229.172 29.2077 231.003 29.2077C234.89 29.2077 236.688 29.7537 236.688 30.8458C236.688 31.424 236.271 32.1948 235.403 33.1584C233.059 35.7923 231.164 37.9443 232.609 38.9079C233.765 39.7109 238.166 36.788 241.185 34.5075C240.446 35.439 239.708 36.4347 238.905 37.4625C237.941 38.7152 236.945 40 235.917 41.2848C232.866 42.152 229.911 43.1156 227.566 44.272C222.009 47.0022 218.027 53.5225 220.885 55.257C222.941 56.5097 226.313 54.0686 231.71 47.773C233.251 45.9743 234.857 43.9829 236.431 41.9914C238.134 41.5096 239.868 41.06 241.57 40.6103C245.328 39.6146 248.797 38.6831 250.917 37.7195ZM231.067 47.2591C226.089 53.0728 222.845 55.4497 221.335 54.5504C219.215 53.2656 223.166 47.3555 227.919 45.0428C229.943 44.0471 232.416 43.1799 235.05 42.409C233.701 44.0792 232.384 45.7495 231.067 47.2591Z" fill="#FFF2A6"/>
<path d="M67.2057 58.7921V61.3947C67.1654 62.7062 66.4088 63.4123 64.936 63.5132C64.3307 63.5535 63.4631 63.5434 62.3333 63.4829C61.042 63.4224 60.3964 62.7364 60.3964 61.425V55.0999H59.2767C59.1153 56.9762 58.51 58.671 57.4608 60.1842C56.3713 61.7175 54.9086 62.9079 53.0726 63.7553C52.9919 63.7956 52.9112 63.8158 52.8305 63.8158C52.6086 63.8158 52.3967 63.725 52.195 63.5434C52.0134 63.3619 51.9226 63.1702 51.9226 62.9684C51.9226 62.7869 52.0033 62.6355 52.1647 62.5145C53.3954 61.7276 54.3941 60.6684 55.1608 59.3368C55.9275 57.985 56.3814 56.5727 56.5227 55.0999H55.8871C54.8783 55.0999 54.3739 54.5652 54.3739 53.4959V40.3009C54.3739 39.3527 54.8582 38.8786 55.8266 38.8786H63.9978C64.4417 38.8786 64.8048 39.0198 65.0873 39.3022C65.3899 39.5645 65.5412 39.9075 65.5412 40.3312V53.5262C65.5412 54.5753 65.0066 55.0999 63.9373 55.0999H63.0294V60.6079C63.0294 61.1728 63.2513 61.4553 63.6952 61.4553H64.4215C64.825 61.4553 65.0772 61.1627 65.1781 60.5776C65.279 59.9723 65.3395 59.3368 65.3597 58.671C65.3597 58.1868 65.6522 57.9447 66.2373 57.9447C66.8829 57.9447 67.2057 58.2271 67.2057 58.7921ZM53.4963 40.8154C53.8796 41.1181 54.0713 41.4308 54.0713 41.7536C54.0713 42.258 53.7788 42.5102 53.1937 42.5102H40.8763C40.4325 42.5102 40.2105 42.2277 40.2105 41.6628C40.2105 41.1382 40.4426 40.876 40.9066 40.876H45.9304V38.7272C45.9304 38.1623 46.3742 37.8799 47.262 37.8799C48.1901 37.8799 48.6541 38.1724 48.6541 38.7575V40.876H51.4081L52.3765 39.9075L53.4963 40.8154ZM53.5266 47.5945C53.9301 47.877 54.1318 48.1998 54.1318 48.5629C54.1318 49.0471 53.8292 49.2893 53.2239 49.2893H48.5936V51.9827H51.166L52.1647 51.0446L53.2845 51.9222C53.6476 52.245 53.8292 52.5678 53.8292 52.8906C53.8292 53.395 53.5367 53.6472 52.9516 53.6472H48.5936V54.4643C50.4699 55.3521 51.8116 56.1591 52.6187 56.8854C52.7801 57.0267 52.8608 57.2385 52.8608 57.521C52.8608 57.9043 52.7296 58.2271 52.4673 58.4894C52.1243 58.8526 51.7814 59.0342 51.4384 59.0342C51.277 59.0342 51.1559 58.9938 51.0752 58.9131C50.2883 58.0657 49.4611 57.289 48.5936 56.5828V63.3921C48.5936 63.9571 48.1295 64.2496 47.2015 64.2698C46.8786 64.2698 46.5861 64.2092 46.3238 64.0882C45.9808 63.9066 45.8093 63.6948 45.8093 63.4527V57.5512C44.4172 59.1653 42.7426 60.6482 40.7856 62C40.6645 62.0807 40.5434 62.1211 40.4224 62.1211C40.1803 62.1211 39.9583 62.0202 39.7566 61.8184C39.5548 61.6167 39.454 61.3947 39.454 61.1526C39.454 60.971 39.5347 60.8298 39.6961 60.7289C40.5434 60.0631 41.4917 59.0846 42.5408 57.7933C43.711 56.3407 44.619 54.9587 45.2646 53.6472H40.8461C40.4022 53.6472 40.1803 53.3648 40.1803 52.7998C40.1803 52.2551 40.4123 51.9827 40.8763 51.9827H45.8093V49.2893H40.5132C40.0895 49.2893 39.8776 49.0169 39.8776 48.4721C39.8776 47.9476 40.0996 47.6853 40.5434 47.6853H43.3277C43.247 47.6046 43.1966 47.5138 43.1764 47.4129C42.9343 45.9199 42.5509 44.6589 42.0264 43.63C41.986 43.5492 41.9658 43.4685 41.9658 43.3878C41.9658 42.9238 42.2786 42.6918 42.904 42.6918C43.1663 42.6918 43.3479 42.7826 43.4488 42.9642C44.7198 43.9729 45.5067 45.2238 45.8093 46.7168C45.89 47.1204 45.7084 47.4432 45.2646 47.6853H48.3515C48.8559 46.3739 49.33 44.8607 49.7739 43.1457C49.8747 42.8027 50.1774 42.6313 50.6818 42.6313C51.166 42.6313 51.62 42.7725 52.0436 43.0549C52.4875 43.3374 52.6489 43.64 52.5279 43.9629C51.9629 45.0523 51.1559 46.2932 50.1068 47.6853H51.6502L52.4976 46.8076L53.5266 47.5945ZM62.6965 43.751V40.5431H57.2187V43.751H62.6965ZM62.6965 48.4116V45.2339H57.2187V48.4116H62.6965ZM62.6965 53.4051V49.9248H57.2187V53.4051H62.6965ZM97.8326 49.7735C98.2159 50.0156 98.4076 50.3182 98.4076 50.6814C98.4076 51.2463 98.0949 51.5288 97.4694 51.5288H86.2416L86.2719 61.546C86.2719 62.1917 85.9289 62.7162 85.2429 63.1198C84.6578 63.4426 83.9718 63.604 83.185 63.604C82.7007 63.604 81.9139 63.5434 80.8244 63.4224C79.7349 63.3013 79.0388 63.1904 78.7362 63.0895C78.4336 63.0088 78.2822 62.7364 78.2822 62.2724C78.2822 61.5057 78.5344 61.1526 79.0388 61.2131C80.1687 61.3544 81.006 61.425 81.5507 61.425C81.8937 61.425 82.2367 61.3342 82.5797 61.1526C82.9227 60.971 83.0942 60.7088 83.0942 60.3658V51.5288H71.7756C71.3317 51.5288 71.1098 51.2362 71.1098 50.6511C71.1098 50.1064 71.3418 49.834 71.8058 49.834H83.0942V46.8984C83.0942 46.6361 83.3665 46.4445 83.9113 46.3234C84.3552 46.2225 84.6881 46.2024 84.91 46.2629C86.7056 44.9313 88.8241 43.2466 91.2654 41.2089L91.3259 41.1483H74.0756C73.7326 41.1483 73.5611 40.876 73.5611 40.3312C73.5611 39.7663 73.7326 39.4838 74.0756 39.4838H92.9904C93.5553 39.4838 94.0093 39.6957 94.3523 40.1194C94.7154 40.5229 94.897 40.9667 94.897 41.451C94.897 41.7738 94.8062 42.0361 94.6246 42.2378C93.8983 42.9843 92.5566 43.8821 90.5996 44.9313C88.0978 46.2629 86.635 47.08 86.2113 47.3826V49.834H94.9575L96.2286 48.7748L97.8326 49.7735ZM129.246 46.959C129.246 48.1493 128.702 48.795 127.612 48.8958C126.301 48.9967 125.09 48.9765 123.98 48.8353C122.79 48.6739 122.195 47.9677 122.195 46.7168V40.6338H117.746V41.572C117.746 43.4282 117.544 44.8304 117.141 45.7787C116.495 47.2515 115.436 48.5024 113.963 49.5314C113.842 49.6121 113.711 49.6524 113.57 49.6524C113.328 49.6524 113.116 49.5717 112.934 49.4103C112.773 49.2287 112.692 49.027 112.692 48.805C112.692 48.6235 112.753 48.4621 112.874 48.3208C113.479 47.7559 114.044 46.7269 114.568 45.2339C114.831 44.4471 114.962 43.2466 114.962 41.6325V40.5733C114.962 39.4838 115.567 38.9391 116.778 38.9391H123.405C124.475 38.9391 125.009 39.4939 125.009 40.6036V45.8997C125.009 46.4445 125.272 46.7168 125.796 46.7168H126.22C126.744 46.7168 127.047 46.4445 127.128 45.8997C127.188 45.476 127.229 44.9313 127.249 44.2655C127.249 43.7611 127.552 43.5089 128.157 43.5089C128.883 43.5089 129.246 43.8115 129.246 44.4168V46.959ZM112.026 39.5141C112.389 39.7764 112.571 40.0891 112.571 40.4523C112.571 40.9567 112.289 41.2089 111.724 41.2089H103.431C102.987 41.2089 102.766 40.9264 102.766 40.3615C102.766 39.8571 102.998 39.6049 103.462 39.6049H110.029L110.937 38.697L112.026 39.5141ZM112.692 43.2971C113.075 43.5795 113.267 43.9023 113.267 44.2655C113.267 44.7699 112.985 45.0221 112.42 45.0221H102.584C102.16 45.0221 101.948 44.7396 101.948 44.1747C101.948 43.63 102.17 43.3576 102.614 43.3576H110.634L111.572 42.4194L112.692 43.2971ZM127.491 63.7553C125.07 62.9886 123.002 62.0908 121.287 61.0618C119.007 62.4136 116.364 63.3619 113.358 63.9066C113.055 63.9873 112.823 63.9167 112.662 63.6948C112.5 63.493 112.42 63.261 112.42 62.9987C112.42 62.5952 112.561 62.3531 112.843 62.2724C115.164 61.6873 117.282 60.7995 119.199 59.6092C116.818 57.6723 115.184 55.231 114.296 52.2854H113.358C112.914 52.2854 112.692 51.9928 112.692 51.4077C112.692 50.8428 112.894 50.5603 113.297 50.5603H126.311C126.855 50.5603 127.319 50.7621 127.703 51.1656C128.106 51.5691 128.308 52.0029 128.308 52.4669C128.308 52.588 128.288 52.7091 128.248 52.8301C127.441 55.3117 125.867 57.521 123.526 59.4579C124.999 60.1035 126.654 60.628 128.49 61.0316C128.934 61.1324 129.155 61.4553 129.155 62C129.155 62.3026 129.075 62.5952 128.913 62.8776C128.752 63.1803 128.53 63.4224 128.248 63.604C127.965 63.7856 127.713 63.836 127.491 63.7553ZM111.875 47.08C112.238 47.3625 112.42 47.6752 112.42 48.0182C112.42 48.5226 112.147 48.7748 111.603 48.7748H103.552C103.109 48.7748 102.887 48.5024 102.887 47.9577C102.887 47.4533 103.109 47.2011 103.552 47.2011H109.999L110.876 46.3234L111.875 47.08ZM111.875 50.8327C112.238 51.1152 112.42 51.4178 112.42 51.7406C112.42 52.245 112.147 52.4972 111.603 52.4972H103.552C103.109 52.4972 102.887 52.2248 102.887 51.6801C102.887 51.1555 103.109 50.8932 103.552 50.8932H109.999L110.876 50.0458L111.875 50.8327ZM112.178 61.8487C112.178 62.232 112.006 62.5347 111.663 62.7566C111.34 62.9987 110.997 63.1198 110.634 63.1198H104.037C103.714 63.1198 103.421 62.9987 103.159 62.7566C102.917 62.5145 102.796 62.2118 102.796 61.8487V55.917C102.796 55.6144 102.927 55.3218 103.189 55.0394C103.472 54.7569 103.774 54.6157 104.097 54.6157H110.755C111.179 54.6157 111.522 54.7569 111.784 55.0394C112.046 55.3016 112.178 55.5942 112.178 55.917V61.8487ZM125.161 52.2854H116.414C117.141 54.6661 118.725 56.6332 121.166 58.1868C123.264 56.4113 124.596 54.4442 125.161 52.2854ZM109.333 61.425V56.0986H105.429V61.425H109.333ZM160.115 40.876C160.499 41.1181 160.69 41.4207 160.69 41.7839C160.69 42.3084 160.398 42.5707 159.813 42.5707H147.737C146.688 44.2857 145.73 45.5265 144.862 46.2932C144.741 46.394 144.6 46.4445 144.439 46.4445C144.176 46.4445 143.934 46.3537 143.712 46.1721C143.511 45.9905 143.41 45.7888 143.41 45.5668C143.41 45.4256 143.46 45.3045 143.561 45.2037C144.812 43.751 145.8 41.4106 146.527 38.1825C146.628 37.6983 147.082 37.4562 147.889 37.4562C148.353 37.4562 148.766 37.547 149.13 37.7285C149.513 37.9101 149.705 38.1623 149.705 38.4851C149.705 38.8886 149.362 39.7259 148.676 40.997H157.845L158.844 40.0286L160.115 40.876ZM160.478 60.85C160.478 62.0807 159.742 62.8474 158.269 63.15C157.704 63.2509 156.05 63.3013 153.306 63.3013C150.501 63.3013 148.787 63.2408 148.161 63.1198C146.971 62.8776 146.376 62.0303 146.376 60.5776V51.1353L145.377 51.3775C145.115 51.4178 144.903 51.327 144.741 51.1051C144.58 50.8831 144.499 50.6309 144.499 50.3485C144.499 49.9046 144.671 49.6524 145.014 49.5919L146.376 49.2893V46.2326C146.376 45.7081 146.89 45.4458 147.919 45.4458C148.827 45.4458 149.281 45.7081 149.281 46.2326V48.6537L151.46 48.1392V44.5076C151.46 43.9629 151.934 43.6905 152.882 43.6905C153.851 43.6905 154.335 43.9729 154.335 44.5379V47.5037L157.573 46.7471C157.734 46.7269 157.886 46.7168 158.027 46.7168C158.511 46.7168 158.874 46.8883 159.117 47.2313C159.359 47.5743 159.48 47.9375 159.48 48.3208L159.449 55.1604C159.449 56.6131 158.652 57.3394 157.059 57.3394C155.263 57.3394 154.365 56.9964 154.365 56.3104C154.365 55.6446 154.627 55.3521 155.152 55.4328C155.354 55.453 155.646 55.4731 156.03 55.4933C156.332 55.4933 156.524 55.3319 156.605 55.0091C156.665 54.8073 156.695 54.5047 156.695 54.1012L156.665 48.684L154.335 49.2287V58.7315C154.335 59.3368 153.841 59.6394 152.852 59.6394C151.924 59.6394 151.46 59.3368 151.46 58.7315V49.9248L149.281 50.4695V60.0026C149.281 60.5272 149.543 60.8298 150.068 60.9105C150.774 61.0316 152.095 61.082 154.032 61.0618C155.909 61.0618 157.079 61.0215 157.543 60.9408C158.027 60.8399 158.309 60.5171 158.39 59.9723C158.451 59.6293 158.481 59.2359 158.481 58.7921C158.501 58.328 158.814 58.096 159.419 58.096C160.125 58.096 160.478 58.3684 160.478 58.9131V60.85ZM144.136 49.5616C144.156 51.1757 144.096 53.2336 143.954 55.7354C143.793 58.56 143.591 60.3758 143.349 61.1829C142.825 62.9382 141.735 63.7654 140.081 63.6645C139.052 63.604 138.114 63.4325 137.266 63.15C137.004 63.0491 136.873 62.7869 136.873 62.3632C136.873 62.1009 136.943 61.8689 137.085 61.6671C137.246 61.4452 137.458 61.3746 137.72 61.4553C138.446 61.6167 139.011 61.6974 139.415 61.6974C140.182 61.6974 140.666 61.1829 140.868 60.1539C141.211 58.4995 141.382 55.0898 141.382 49.9248H138.87C138.709 53.6573 138.144 56.6534 137.175 58.9131C136.51 60.4868 135.44 62.0605 133.967 63.6342C133.846 63.7351 133.715 63.7856 133.574 63.7856C133.372 63.7856 133.191 63.7049 133.029 63.5434C132.888 63.382 132.817 63.2005 132.817 62.9987C132.817 62.8575 132.858 62.7162 132.938 62.575C133.645 61.5259 134.189 60.4566 134.573 59.3671C135.037 58.0355 135.44 56.2297 135.783 53.9499C135.824 53.7481 135.924 52.0332 136.086 48.805C136.126 48.0182 136.146 46.5655 136.146 44.4471H134.028C133.564 44.4471 133.332 44.1646 133.332 43.5997C133.332 43.0751 133.564 42.8128 134.028 42.8128H137.508V38.6062C137.508 38.0413 137.962 37.7588 138.87 37.7588C139.839 37.7588 140.323 38.0513 140.323 38.6364V42.8128H141.836L142.744 41.8141L143.864 42.7523C144.186 42.9944 144.348 43.2769 144.348 43.5997C144.348 44.1646 143.995 44.4471 143.289 44.4471H139.021C139.021 45.9401 139.011 47.1809 138.991 48.1695H142.653C143.117 48.1695 143.49 48.3309 143.773 48.6537C143.995 48.916 144.116 49.2186 144.136 49.5616Z" fill="#E86E2A"/>
</g>
<defs>
<clipPath id="clip0_109_85">
<rect width="520" height="92" fill="white"/>
</clipPath>
</defs>
</svg>
