<svg width="520" height="92" viewBox="0 0 520 92" fill="none" xmlns="http://www.w3.org/2000/svg">
<g clip-path="url(#clip0_143_48)">
<path d="M257.379 89.3204L254.645 80.8241L261.008 81.1668L257.379 89.3204Z" fill="#FFF2A6"/>
<path d="M291.615 91.1567L288.67 82.7219L295.042 82.9065L291.615 91.1567Z" fill="#3A7752"/>
<path d="M322.353 91.8596L319.408 83.4248L325.78 83.6181L322.353 91.8596Z" fill="#E86E2A"/>
<path d="M354.336 92.3692L351.154 84.0311H357.526L354.336 92.3692Z" fill="#FFF2A6"/>
<path d="M385.478 92.3692L382.296 84.0311H388.668L385.478 92.3692Z" fill="#3A7752"/>
<path d="M417.907 91.965L414.717 83.6269H421.089L417.907 91.965Z" fill="#E86E2A"/>
<path d="M450.495 91.104L446.901 82.9328L453.265 82.6165L450.495 91.104Z" fill="#FFF2A6"/>
<path d="M480.155 90.199L476.562 82.0278L482.925 81.7115L480.155 90.199Z" fill="#3A7752"/>
<path d="M515.346 87.8531L511.752 79.6819L518.124 79.3656L515.346 87.8531Z" fill="#E86E2A"/>
<path d="M519.939 79.2075C519.939 79.2075 204.291 103.809 0.0615234 41.7344" stroke="#EAEAEA" stroke-width="0.5" stroke-miterlimit="10"/>
<path d="M18.2134 73.9358L16.2939 65.2111L22.5959 66.16L18.2134 73.9358Z" fill="#FFF2A6"/>
<path d="M49.2495 77.9335L46.9531 69.3054L53.2901 69.982L49.2495 77.9335Z" fill="#3A7752"/>
<path d="M84.6596 81.4831L81.9951 72.9605L88.3584 73.3559L84.6596 81.4831Z" fill="#E86E2A"/>
<path d="M115.162 83.1613L112.497 74.6386L118.86 75.034L115.162 83.1613Z" fill="#FFF2A6"/>
<path d="M146.241 83.7939L143.051 75.4558H149.432L146.241 83.7939Z" fill="#3A7752"/>
<path d="M177.847 83.3809L174.385 75.1483L180.757 74.9374L177.847 83.3809Z" fill="#E86E2A"/>
<path d="M209.156 81.9927L205.422 73.883L211.776 73.4613L209.156 81.9927Z" fill="#FFF2A6"/>
<path d="M240.902 79.6643L237.133 71.5723L243.487 71.1154L240.902 79.6643Z" fill="#3A7752"/>
<path d="M272.13 76.5804L268.099 68.6113L274.444 67.9524L272.13 76.5804Z" fill="#E86E2A"/>
<path d="M303.114 72.5651L299.091 64.6048L305.428 63.9459L303.114 72.5651Z" fill="#FFF2A6"/>
<path d="M335.378 67.6009L330.741 59.9745L337.017 58.8235L335.378 67.6009Z" fill="#3A7752"/>
<path d="M367.851 62.1271L363.215 54.5095L369.49 53.3497L367.851 62.1271Z" fill="#E86E2A"/>
<path d="M396.197 56.6621L391.561 49.0357L397.827 47.8847L396.197 56.6621Z" fill="#FFF2A6"/>
<path d="M428.092 50.011L423.069 42.6306L429.275 41.1633L428.092 50.011Z" fill="#3A7752"/>
<path d="M488.044 35.9443L483.021 28.5727L489.218 27.0878L488.044 35.9443Z" fill="#FFF2A6"/>
<path d="M514.329 29.3283L509.307 21.9567L515.503 20.4806L514.329 29.3283Z" fill="#326028"/>
<path d="M459.286 43.105L454.264 35.7334L460.46 34.2486L459.286 43.105Z" fill="#E86E2A"/>
<path d="M519.938 18.9957C205.737 103.299 61.1168 70.2368 0.9375 62.9882" stroke="#EAEAEA" stroke-width="0.5" stroke-miterlimit="10"/>
<path d="M76.8694 29.2077C94.8566 29.2077 111.752 16.8415 111.752 10.7708C111.752 8.45816 109.6 7.20548 105.745 7.20548C97.5226 7.20548 90.4883 10.0963 84.8994 14.3361C82.0407 13.3404 78.8287 12.7944 75.5525 12.7944C67.9722 12.7944 62.6081 16.0706 62.6081 20.7601C62.6081 24.9357 66.8158 28.0514 73.1114 28.9507C71.4732 32.516 70.606 35.985 70.606 38.94C70.606 44.2398 73.3362 47.3555 78.0257 47.3555C88.4326 47.3555 95.6596 39.3255 95.6596 34.7966C95.6596 31.2955 91.9658 30.4604 86.3127 32.6766L86.6018 33.4796C91.741 31.4561 94.8245 32.0021 94.8245 34.7966C94.8245 39.0043 88.0472 46.5204 78.0257 46.5204C73.818 46.5204 71.4411 43.7902 71.4411 38.94C71.4411 36.0171 72.3084 32.5803 73.9465 29.0471C74.878 29.1434 75.8416 29.2077 76.8694 29.2077ZM105.745 8.0406C109.15 8.0406 110.917 9.0042 110.917 10.7708C110.917 16.4239 94.5675 28.3726 76.8694 28.3726C76.0022 28.3726 75.1349 28.3404 74.3319 28.2441C76.6124 23.6188 80.242 18.9614 84.9958 15.2676C88.0472 16.3918 90.6489 18.0299 92.3834 20.0856L93.0258 19.5717C91.2913 17.516 88.7538 15.8458 85.7666 14.6573C91.1628 10.7066 97.908 8.0406 105.745 8.0406ZM63.4432 20.7601C63.4432 16.6166 68.4218 13.6295 75.5525 13.6295C78.5396 13.6295 81.4626 14.1113 84.0964 14.9464C79.3748 18.7366 75.7773 23.4903 73.4968 28.1477C67.4582 27.3768 63.4432 24.486 63.4432 20.7601ZM118.309 37.7195L117.988 36.9486C115.644 37.9443 112.335 39.3576 109.284 39.3576C107.517 39.3576 106.232 39.1006 105.429 38.651C106.746 37.4946 107.71 36.1135 107.71 35.182C107.71 34.1863 107.035 33.4796 106.072 33.4796C104.658 33.4796 103.534 35.0535 103.534 36.9486C103.534 37.591 103.727 38.1692 104.112 38.6188C103.888 38.7794 103.663 38.9079 103.438 39.0364C101.414 40.1927 100.611 39.7109 101.639 37.8801C102.089 37.1092 102.699 36.4026 103.149 36.0814L102.699 35.3747C102.121 35.7602 101.446 36.5632 100.933 37.4625C99.455 40.0642 101.029 41.3812 103.823 39.7752C104.145 39.5824 104.434 39.3897 104.723 39.197C105.718 39.8394 107.26 40.1927 109.284 40.1927C112.528 40.1927 115.965 38.7152 118.309 37.7195ZM104.369 36.9486C104.369 35.4711 105.172 34.3148 106.072 34.3148C106.586 34.3148 106.875 34.636 106.875 35.182C106.875 35.8886 105.975 37.1092 104.755 38.1049C104.498 37.7837 104.369 37.3983 104.369 36.9486ZM134.021 36.9486C128.914 39.1006 124.995 40.3533 123.389 40.3533C122.393 40.3533 121.976 40.0642 121.976 39.4218C121.976 38.7794 122.682 37.6874 124.192 35.8565L124.77 35.1499L124.481 34.9572L124.096 34.636L124.063 34.6681L124.031 34.7002C123.068 35.8886 119.727 39.6146 117.447 39.6146C117.286 39.6146 117.672 38.8116 119.021 36.788C119.47 36.1135 119.92 35.4711 120.177 34.9893L119.406 34.6038C119.213 35.0535 118.796 35.6638 118.314 36.3383C116.676 38.8116 115.841 40.4497 117.447 40.4497C118.667 40.4497 120.048 39.6146 121.333 38.6188C121.205 38.9079 121.141 39.1649 121.141 39.4218C121.141 40.546 121.976 41.1884 123.389 41.1884C125.573 41.1884 130.68 39.2612 134.342 37.7195L134.021 36.9486ZM154.898 36.9486C150.273 39.197 144.299 38.5546 144.299 35.9529C144.299 35.2141 144.556 34.7002 145.038 34.4111C145.551 34.4432 145.808 34.636 145.808 34.9893H146.644C146.644 34.0578 145.905 33.576 144.813 33.576C143.753 33.576 142.596 34.3148 141.536 35.2784C141.665 34.925 141.729 34.636 141.729 34.379C141.729 33.8651 141.44 33.5118 140.926 33.5118C140.412 33.5118 139.738 33.833 137.811 34.925C136.718 35.5674 135.402 36.3383 134.02 36.9486L134.342 37.7195C135.787 37.0771 137.136 36.3062 138.228 35.6638C139.963 34.6681 140.605 34.379 140.894 34.3469V34.379C140.894 35.2141 139.738 37.0771 138.806 38.4261C138.517 38.8116 138.292 39.1649 138.1 39.454C137.875 39.743 137.746 39.9679 137.714 40L138.421 40.4497H138.453L138.614 40.1606C138.871 39.8394 139.32 39.2291 139.77 38.4904C140.83 37.1092 142.307 35.3426 143.721 34.7002C143.56 35.0535 143.464 35.4711 143.464 35.9529C143.464 39.3255 149.984 40.2891 155.284 37.7195L154.898 36.9486ZM176.848 37.7195L176.463 36.9486C173.219 38.4904 169.268 40 165.799 40C164.771 40 163.84 39.743 163.004 39.3255C163.743 38.1049 163.807 36.4668 163.037 34.7323C162.876 34.3469 162.844 34.0578 162.876 33.8651C163.133 33.7045 163.39 33.576 163.679 33.4154C164.129 33.2227 163.936 32.516 163.422 32.516H163.39C163.39 32.516 162.33 32.5803 162.041 33.4154C160.788 34.0899 159.6 34.7323 158.379 35.3426C157.223 34.1542 156.484 33.7366 156.131 34.8608C155.97 35.4068 155.906 35.9529 155.906 36.531C155.585 36.6595 155.264 36.8201 154.942 36.9486L155.264 37.7195C155.52 37.6231 155.777 37.4946 156.034 37.3983C156.42 39.3897 157.865 41.0921 159.568 41.0921C160.788 41.0921 161.784 40.6745 162.458 40C163.454 40.4818 164.578 40.8351 165.799 40.8351C169.396 40.8351 173.54 39.2612 176.848 37.7195ZM162.266 35.0535C162.94 36.531 162.876 37.9443 162.266 38.9079C160.949 38.0728 159.857 36.9486 158.989 35.985C159.985 35.4711 160.981 34.925 162.009 34.3469C162.073 34.5717 162.137 34.7966 162.266 35.0535ZM156.902 35.1178C156.966 35.0214 156.934 34.9893 157.608 35.728C157.319 35.8565 157.03 36.0171 156.741 36.1456C156.741 35.7923 156.805 35.439 156.902 35.1178ZM159.568 40.257C158.219 40.257 157.062 38.7473 156.805 37.045L158.219 36.3704C159.086 37.334 160.242 38.6188 161.72 39.5503C161.174 40 160.435 40.257 159.568 40.257ZM192.681 36.9486C188.859 38.8758 183.141 41.1563 179.704 40.4497C178.516 40.2248 177.745 39.5824 177.36 38.8116C178.998 39.2934 181.953 37.8801 181.953 35.5353C181.953 34.6681 181.214 34.0257 180.25 34.0257C177.777 34.0257 176.396 35.6317 176.235 37.334V37.3983C176.139 39.0685 177.167 40.803 179.544 41.2848C183.238 42.0557 189.212 39.6467 193.034 37.7195L192.681 36.9486ZM180.25 34.8608C180.764 34.8608 181.118 35.1499 181.118 35.5353C181.118 37.8158 177.167 38.8758 177.07 37.3983C177.199 36.0814 178.291 34.8608 180.25 34.8608Z" fill="#FFF2A6"/>
<path d="M52.9213 38.9996C53.2239 39.2014 53.3752 39.4334 53.3752 39.6957C53.3752 40.0588 53.113 40.2404 52.5884 40.2404H48.2002V41.6931H49.9554C50.2177 41.6931 50.4901 41.8141 50.7726 42.0562C51.0752 42.2782 51.2265 42.5606 51.2265 42.9036C51.2265 43.065 51.1963 43.2365 51.1357 43.4181C49.0778 46.6866 45.6479 49.1581 40.8461 50.8327C40.7654 50.8731 40.6847 50.8932 40.604 50.8932C40.1601 50.8932 39.9382 50.641 39.9382 50.1366C39.9382 49.9349 40.0088 49.7836 40.15 49.6827C41.8246 48.916 43.3176 48.0787 44.629 47.1708C44.0238 46.4848 43.3681 45.8796 42.6619 45.355C41.4917 46.2225 40.7149 46.6563 40.3316 46.6563C40.1702 46.6563 40.0189 46.5857 39.8776 46.4445C39.7364 46.2831 39.6658 46.1217 39.6658 45.9603C39.6658 45.7988 39.7263 45.6879 39.8474 45.6274C41.1588 44.7194 42.2887 43.5392 43.2369 42.0865C43.3983 41.8242 43.8422 41.6931 44.5685 41.6931H45.7791V38.3035C45.7791 37.7184 46.1826 37.4259 46.9896 37.4259C47.7966 37.4259 48.2002 37.7184 48.2002 38.3035V39.0601H51.4686L52.1042 38.4549L52.9213 38.9996ZM66.1465 53.3749C66.0456 53.3749 65.9347 53.3547 65.8136 53.3143C64.8452 52.9713 63.8868 52.5779 62.9386 52.134V56.6736C62.9386 57.5008 62.4443 57.9144 61.4556 57.9144H55.1911C56.4218 58.7618 57.8845 59.4377 59.5793 59.9421C61.3548 58.9736 62.8579 57.9951 64.0886 57.0065C64.25 56.8854 64.4215 56.8249 64.6031 56.8249C64.9461 56.8249 65.279 56.9863 65.6018 57.3091C65.9448 57.6319 66.1162 57.9447 66.1162 58.2473C66.1162 58.4491 66.0255 58.6105 65.8439 58.7315C64.7746 59.3973 63.5237 60.0228 62.0912 60.6079C63.3017 60.85 64.7947 61.082 66.5702 61.3039C66.8325 61.3241 67.004 61.536 67.0847 61.9395C67.1654 62.3026 67.1553 62.6355 67.0544 62.9382C66.8123 63.6443 66.3684 63.947 65.7228 63.8461C62.7973 63.5233 60.124 62.7364 57.7029 61.4855C55.7055 60.4566 54.1217 59.2662 52.9516 57.9144H48.4423V61.5158C52.3362 61.3947 54.8683 61.2636 56.0384 61.1224C56.4823 61.0618 56.7042 61.3544 56.7042 62C56.7042 62.4439 56.5126 62.686 56.1292 62.7263C50.0967 63.493 45.7387 63.8461 43.0553 63.7856C42.4904 63.7856 42.2079 63.3921 42.2079 62.6053C42.2079 61.9596 42.44 61.6267 42.904 61.6066C43.7917 61.6066 44.6997 61.5965 45.6277 61.5763V52.2551C44.1146 53.0016 42.5913 53.6472 41.0579 54.192C40.9369 54.2323 40.8259 54.2525 40.725 54.2525C40.2206 54.2525 39.9684 53.9801 39.9684 53.4354C39.9684 53.1529 40.0895 52.9713 40.3316 52.8906C42.3088 52.1643 44.4374 51.0345 46.7172 49.5011C49.1787 47.8265 50.9844 46.2024 52.1344 44.6287C52.5178 44.1041 53.0726 43.8418 53.7989 43.8418C54.4042 43.8418 54.8783 44.0536 55.2213 44.4773C55.9073 45.3651 56.5529 46.041 57.1582 46.505C58.0661 46.041 58.9337 45.476 59.7609 44.8102C58.8328 44.1848 57.8644 43.5896 56.8556 43.0247C56.7143 42.944 56.6437 42.8229 56.6437 42.6615C56.6437 42.1773 56.8757 41.9352 57.3398 41.9352C57.6424 41.9352 58.9135 42.4698 61.153 43.5392C62.1416 42.5304 62.8679 41.5518 63.332 40.6036H55.4937C54.9691 40.6036 54.7068 40.3615 54.7068 39.8773C54.7068 39.3729 54.9691 39.1207 55.4937 39.1207H64.936C65.9649 39.1207 66.4794 39.5645 66.4794 40.4523C66.4794 40.7751 66.4088 41.0374 66.2676 41.2391C65.5614 42.4295 64.5728 43.5492 63.3017 44.5984C65.1175 45.5668 66.318 46.3638 66.9031 46.9892C67.004 47.1304 67.0544 47.3019 67.0544 47.5037C67.0544 47.9072 66.9031 48.2401 66.6005 48.5024C66.2373 48.8252 65.8338 48.9866 65.3899 48.9866C65.1882 48.9866 65.0268 48.9261 64.9057 48.805C63.8566 47.8366 62.6864 46.8783 61.3951 45.93C60.5074 46.4546 59.5389 46.959 58.4898 47.4432C60.4065 48.5932 63.2614 49.7432 67.0544 50.8932C67.3369 51.0143 67.4781 51.3169 67.4781 51.8011C67.4781 52.2047 67.347 52.5678 67.0847 52.8906C66.8426 53.2134 66.5299 53.3749 66.1465 53.3749ZM59.1253 50.1366C56.9867 48.8252 55.3626 47.5037 54.2529 46.1721C53.1634 47.4633 51.5796 48.7849 49.5015 50.1366H52.891V48.8353C52.891 48.2906 53.3046 48.0182 54.1318 48.0182C54.9792 48.0182 55.4029 48.2906 55.4029 48.8353V50.1366H59.1253ZM60.2754 53.3143V51.4077H48.412V53.3143H60.2754ZM48.5028 43.0549H45.1133C44.6896 43.5593 44.2558 44.0133 43.8119 44.4168C44.8812 44.9616 45.6681 45.476 46.1725 45.9603C47.0804 45.1129 47.8572 44.1444 48.5028 43.0549ZM60.2754 56.5828V54.6157H48.412V56.5828H60.2754ZM97.3181 43.8721C97.7014 44.1747 97.8931 44.4975 97.8931 44.8405C97.8931 45.2844 97.6308 45.5063 97.1062 45.5063H92.8088V50.3182H95.6233C96.5918 50.3182 97.076 50.7419 97.076 51.5893V61.7579C97.076 62.6658 96.5817 63.1198 95.5931 63.1198H86.8771C85.9692 63.1198 85.5153 62.6658 85.5153 61.7579V51.8011C85.5153 51.3976 85.6464 51.0546 85.9087 50.7722C86.1912 50.4695 86.5241 50.3182 86.9074 50.3182H89.964V38.8483C89.964 38.2834 90.4382 38.0009 91.3864 38.0009C92.3347 38.0009 92.8088 38.2834 92.8088 38.8483V43.9023H95.2299L96.1983 42.9642L97.3181 43.8721ZM84.3955 47.9274C84.3955 48.7546 83.9416 49.1682 83.0336 49.1682H79.5231V51.1353H82.3073L83.185 50.2577L84.2139 51.0446C84.5771 51.3068 84.7587 51.6095 84.7587 51.9525C84.7587 52.4569 84.4762 52.7091 83.9113 52.7091H79.5231V54.6762C81.7827 54.535 83.2455 54.424 83.9113 54.3433C84.2946 54.3029 84.4863 54.545 84.4863 55.0696C84.4863 55.453 84.3451 55.6749 84.0626 55.7354C83.3363 55.8767 81.4095 56.1591 78.2822 56.5828C75.155 56.9863 73.0769 57.2284 72.0479 57.3091C71.483 57.3495 71.2005 56.9561 71.2005 56.1288C71.2005 55.5236 71.3821 55.2108 71.7453 55.1907C72.5523 55.1301 74.3278 55.0091 77.0717 54.8275V52.7091H72.1387C71.7554 52.7091 71.5637 52.4367 71.5637 51.8919C71.5637 51.3875 71.7655 51.1353 72.169 51.1353H77.0717V49.1682H73.3493C72.5019 49.1682 72.0782 48.7243 72.0782 47.8366V40.5128C72.0782 40.1496 72.1992 39.847 72.4414 39.6049C72.6835 39.3426 73.0063 39.2115 73.4098 39.2115H83.1244C83.9718 39.2115 84.3955 39.6654 84.3955 40.5733V47.9274ZM84.9403 61.0013C85.0815 61.4855 84.8192 61.8487 84.1534 62.0908C83.5078 62.3329 83.1345 62.232 83.0336 61.7882C82.8117 60.8197 82.3073 59.4276 81.5205 57.6118C81.4801 57.5512 81.4599 57.4806 81.4599 57.3999C81.4599 57.0368 81.7424 56.8552 82.3073 56.8552C82.5292 56.8552 82.6806 56.9056 82.7613 57.0065C83.7902 58.217 84.5166 59.5486 84.9403 61.0013ZM81.8534 62.2421C81.9341 62.7062 81.5608 63.0391 80.7336 63.2408C80.1082 63.382 79.7652 63.2105 79.7046 62.7263C79.5231 61.5763 79.1498 60.0026 78.5849 58.0052C78.4235 57.521 78.6454 57.2789 79.2507 57.2789C79.5735 57.2789 79.7954 57.3697 79.9165 57.5512C80.8647 58.8627 81.5104 60.4263 81.8534 62.2421ZM78.0099 62.9684C78.0099 63.2307 77.8787 63.4426 77.6164 63.604C77.3542 63.7856 77.0818 63.8763 76.7993 63.8763C76.0932 63.8965 75.7401 63.6746 75.7401 63.2105C75.7401 61.3342 75.6594 59.7 75.498 58.3078C75.4375 57.8236 75.6997 57.5815 76.2848 57.5815C76.6682 57.5815 76.9002 57.7227 76.9809 58.0052C77.6669 60.3456 78.0099 62 78.0099 62.9684ZM74.3177 58.3078C74.237 59.5386 74.1664 60.4364 74.1059 61.0013C73.9445 62.0706 73.7023 62.9382 73.3795 63.604C73.1778 63.9671 72.8449 64.1487 72.3808 64.1487C72.0177 64.1487 71.6848 64.0478 71.3821 63.8461C71.0795 63.6443 70.9282 63.4224 70.9282 63.1803C70.9282 63.0794 70.9584 62.9785 71.019 62.8776C71.826 61.4048 72.3808 59.8412 72.6835 58.1868C72.744 57.8841 73.0265 57.7328 73.5308 57.7328C74.0756 57.7328 74.3379 57.9245 74.3177 58.3078ZM82.2165 47.7458V40.5128H79.3112V47.7458H82.2165ZM94.1707 61.425V51.9222H88.4206V61.425H94.1707ZM77.3441 47.7458V40.5128H74.2269V47.7458H77.3441ZM81.9442 42.4799C81.6819 43.5492 81.3288 44.8203 80.8849 46.2932C80.784 46.5554 80.5722 46.6866 80.2494 46.6866C79.8257 46.6866 79.6643 46.4747 79.7652 46.051L80.431 42.0562C80.4713 41.7334 80.6832 41.572 81.0665 41.572C81.3288 41.572 81.5608 41.6628 81.7626 41.8444C81.9643 42.026 82.0249 42.2378 81.9442 42.4799ZM76.7085 45.8089C76.7892 46.273 76.5774 46.5554 76.073 46.6563C75.5484 46.7774 75.266 46.616 75.2256 46.1721C75.1247 44.7396 74.9532 43.5392 74.7111 42.5707C74.6103 42.1067 74.812 41.8747 75.3164 41.8747C75.5585 41.8747 75.7401 41.9856 75.8612 42.2076C76.2243 43.1356 76.5068 44.3361 76.7085 45.8089ZM128.278 48.805C128.197 48.805 128.127 48.795 128.066 48.7748C123.244 47.0598 119.229 44.0436 116.021 39.7259C112.914 44.0234 108.506 47.1708 102.796 49.1682C102.735 49.1884 102.675 49.1985 102.614 49.1985C102.412 49.1985 102.231 49.1077 102.069 48.9261C101.928 48.7445 101.858 48.5327 101.858 48.2906C101.858 48.0081 101.989 47.8063 102.251 47.6853C104.43 46.6563 106.478 45.3449 108.395 43.751C110.553 41.9755 112.178 40.1597 113.267 38.3035C113.57 37.7588 114.326 37.5167 115.537 37.5772C116.324 37.6176 116.858 37.8395 117.141 38.243C119.461 41.6527 123.466 44.2554 129.155 46.051C129.498 46.1519 129.67 46.505 129.67 47.1103C129.67 47.534 129.539 47.9274 129.277 48.2906C129.034 48.6335 128.702 48.805 128.278 48.805ZM123.315 63.029C123.315 63.6141 122.861 63.9268 121.953 63.9671C121.61 63.9671 121.257 63.8864 120.893 63.725C120.47 63.5434 120.258 63.3013 120.258 62.9987V47.7458C120.258 47.08 120.742 46.7471 121.711 46.7471C122.78 46.7471 123.315 47.0901 123.315 47.7761V63.029ZM111.3 50.5301C111.32 51.1152 111.32 51.8011 111.3 52.588C111.239 55.1301 110.745 57.289 109.817 59.0644C108.97 60.6785 107.426 62.2018 105.187 63.6342C105.106 63.6746 105.015 63.6948 104.914 63.6948C104.713 63.6948 104.501 63.604 104.279 63.4224C104.077 63.261 103.976 63.0794 103.976 62.8776C103.976 62.6961 104.047 62.5548 104.188 62.454C105.641 61.1829 106.72 59.5991 107.426 57.7026C107.951 56.2499 108.223 54.5551 108.243 52.6183C108.243 52.6183 108.243 52.0433 108.243 50.8932V47.4432C108.243 46.8783 108.717 46.5958 109.666 46.5958C110.674 46.5958 111.189 46.8783 111.209 47.4432L111.3 50.5301ZM159.631 41.1181C159.651 44.1041 159.49 46.3839 159.147 47.9577C158.743 49.9147 157.634 50.8932 155.818 50.8932C154.405 50.8932 153.215 50.7419 152.247 50.4393C151.883 50.3182 151.702 50.0358 151.702 49.5919C151.702 49.3296 151.783 49.0976 151.944 48.8958C152.105 48.6739 152.297 48.5831 152.519 48.6235C153.044 48.7445 153.709 48.805 154.516 48.805C155.223 48.805 155.747 48.5327 156.09 47.9879C156.312 47.6248 156.504 46.9892 156.665 46.0813C156.847 44.9111 156.907 43.1962 156.847 40.9365H152.065C151.843 43.862 151.44 45.9502 150.855 47.2011C150.007 48.9765 148.413 50.3081 146.073 51.1959C145.992 51.216 145.901 51.2261 145.8 51.2261C145.276 51.2261 145.014 50.9033 145.014 50.2577C145.014 49.9551 145.115 49.7432 145.316 49.6222C147.858 48.3713 149.119 45.476 149.099 40.9365H145.8C145.377 40.9365 145.165 40.6742 145.165 40.1496C145.165 39.5847 145.377 39.3022 145.8 39.3022H157.815C159.006 39.3022 159.611 39.9075 159.631 41.1181ZM159.117 61.8487C159.117 62.8575 158.521 63.3619 157.331 63.3619H147.102C146.093 63.3619 145.589 62.8676 145.589 61.8789V54.0407C145.589 53.617 145.72 53.274 145.982 53.0117C146.244 52.7292 146.608 52.588 147.072 52.588H157.513C158.582 52.588 159.117 53.0924 159.117 54.1012V61.8487ZM145.074 52.134C145.074 52.5779 144.832 52.8906 144.348 53.0722C144.086 53.1731 143.783 53.1933 143.44 53.1327C143.036 53.0722 142.814 52.931 142.774 52.7091C142.714 52.3862 142.643 52.0735 142.562 51.7709C142.018 51.8516 141.352 51.9323 140.565 52.013V63.3619C140.565 63.8663 140.101 64.1185 139.173 64.1185C138.325 64.1185 137.902 63.8663 137.902 63.3619V52.3459C136.53 52.4871 135.208 52.6082 133.937 52.7091C133.413 52.7494 133.15 52.3459 133.15 51.4985C133.15 50.8932 133.332 50.6007 133.695 50.6209C134.22 50.6209 134.875 50.6209 135.662 50.6209C136.388 49.6928 137.105 48.7344 137.811 47.7458C137.508 47.9072 137.246 47.9879 137.024 47.9879C136.782 47.9879 136.621 47.8971 136.54 47.7155C135.269 45.5366 134.23 44.0738 133.423 43.3273C133.322 43.2063 133.271 43.0852 133.271 42.9642C133.271 42.7624 133.362 42.5707 133.544 42.3891C133.725 42.2076 133.927 42.1168 134.149 42.1168C134.29 42.1168 134.785 42.4497 135.632 43.1155C136.338 41.9251 137.095 40.3312 137.902 38.3338C138.003 38.0513 138.265 37.9101 138.689 37.9101C139.132 37.9101 139.566 38.0312 139.99 38.2733C140.434 38.4952 140.656 38.7474 140.656 39.0299C140.656 39.1106 140.635 39.1812 140.595 39.2417C139.707 40.7751 138.446 42.3992 136.812 44.1142C138.023 45.2037 138.658 45.9804 138.719 46.4445C140.151 44.3865 141.15 42.7523 141.715 41.5418C141.836 41.2795 142.078 41.1483 142.441 41.1483C142.865 41.1483 143.289 41.2996 143.712 41.6023C144.136 41.8847 144.348 42.1874 144.348 42.5102C144.348 42.6111 144.328 42.7019 144.287 42.7826C143.117 44.6186 140.928 47.2112 137.72 50.5603C139.354 50.52 140.827 50.4494 142.139 50.3485C141.836 49.5213 141.513 48.8454 141.17 48.3208C141.089 48.2401 141.049 48.1594 141.049 48.0787C141.049 47.9173 141.13 47.766 141.291 47.6248C141.473 47.4835 141.664 47.4129 141.866 47.4129C142.028 47.4129 142.149 47.4633 142.229 47.5642C142.774 48.1292 143.339 48.8656 143.924 49.7735C144.691 50.9033 145.074 51.6902 145.074 52.134ZM144.923 58.5499C145.044 59.1149 144.772 59.4881 144.106 59.6697C143.823 59.7504 143.511 59.7605 143.168 59.7C142.744 59.6193 142.522 59.4679 142.502 59.246C142.34 57.3495 141.997 55.7657 141.473 54.4946C141.453 54.4341 141.443 54.3736 141.443 54.313C141.443 53.8893 141.735 53.6775 142.32 53.6775C142.562 53.6775 142.744 53.7582 142.865 53.9196C143.894 55.2916 144.58 56.835 144.923 58.5499ZM136.933 54.5551C136.57 56.8955 135.783 59.3267 134.573 61.8487C134.452 62.111 134.24 62.2421 133.937 62.2421C133.332 62.2421 133.029 62.0101 133.029 61.546C133.029 61.1224 133.231 59.9824 133.635 58.1263C134.058 56.1692 134.29 54.8477 134.331 54.1617C134.371 53.7784 134.704 53.5867 135.329 53.5867C135.733 53.5867 136.106 53.6876 136.449 53.8893C136.812 54.0709 136.974 54.2929 136.933 54.5551ZM156.181 61.6066V54.2222H148.524V61.6066H156.181Z" fill="#E86E2A"/>
</g>
<defs>
<clipPath id="clip0_143_48">
<rect width="520" height="92" fill="white"/>
</clipPath>
</defs>
</svg>
