<svg width="28" height="27" viewBox="0 0 28 27" fill="none" xmlns="http://www.w3.org/2000/svg">
<g clip-path="url(#clip0_395_704)">
<path d="M24.43 3.5H3C1.61929 3.5 0.5 4.61929 0.5 6V24C0.5 25.3807 1.61929 26.5 3 26.5H24.43C25.8107 26.5 26.93 25.3807 26.93 24V6C26.93 4.61929 25.8107 3.5 24.43 3.5Z" fill="white"/>
<path d="M24.43 4C24.9604 4 25.4692 4.21071 25.8442 4.58578C26.2193 4.96086 26.43 5.46957 26.43 6V24C26.43 24.5304 26.2193 25.0391 25.8442 25.4142C25.4692 25.7893 24.9604 26 24.43 26H3C2.46957 26 1.96089 25.7893 1.58582 25.4142C1.21074 25.0391 1 24.5304 1 24V6C1 5.46957 1.21074 4.96086 1.58582 4.58578C1.96089 4.21071 2.46957 4 3 4H24.43ZM24.43 3H3C2.20435 3 1.44127 3.31608 0.878662 3.87869C0.316053 4.4413 0 5.20435 0 6V24C0 24.7956 0.316053 25.5587 0.878662 26.1213C1.44127 26.6839 2.20435 27 3 27H24.43C25.2256 27 25.9887 26.6839 26.5513 26.1213C27.1139 25.5587 27.43 24.7956 27.43 24V6C27.43 5.20435 27.1139 4.4413 26.5513 3.87869C25.9887 3.31608 25.2256 3 24.43 3Z" fill="black"/>
<path d="M9 14.5H5C4.72386 14.5 4.5 14.7239 4.5 15V16C4.5 16.2761 4.72386 16.5 5 16.5H9C9.27614 16.5 9.5 16.2761 9.5 16V15C9.5 14.7239 9.27614 14.5 9 14.5Z" fill="white"/>
<path d="M9 15V16H5V15H9ZM9 14H5C4.73478 14 4.48044 14.1054 4.29291 14.2929C4.10537 14.4804 4 14.7348 4 15V16C4 16.2652 4.10537 16.5196 4.29291 16.7071C4.48044 16.8946 4.73478 17 5 17H9C9.26522 17 9.51956 16.8946 9.70709 16.7071C9.89463 16.5196 10 16.2652 10 16V15C10 14.7348 9.89463 14.4804 9.70709 14.2929C9.51956 14.1054 9.26522 14 9 14Z" fill="black"/>
<path d="M27.43 9.5H0V10.5H27.43V9.5Z" fill="black"/>
<path d="M7 7C6.86739 7 6.74019 6.94731 6.64642 6.85355C6.55266 6.75978 6.5 6.63261 6.5 6.5V0.5C6.5 0.367392 6.55266 0.240222 6.64642 0.146454C6.74019 0.0526857 6.86739 0 7 0C7.13261 0 7.25981 0.0526857 7.35358 0.146454C7.44734 0.240222 7.5 0.367392 7.5 0.5V6.5C7.5 6.63261 7.44734 6.75978 7.35358 6.85355C7.25981 6.94731 7.13261 7 7 7Z" fill="black"/>
<path d="M20.5 7C20.3674 7 20.2402 6.94731 20.1464 6.85355C20.0527 6.75978 20 6.63261 20 6.5V0.5C20 0.367392 20.0527 0.240222 20.1464 0.146454C20.2402 0.0526857 20.3674 0 20.5 0C20.6326 0 20.7598 0.0526857 20.8536 0.146454C20.9473 0.240222 21 0.367392 21 0.5V6.5C21 6.63261 20.9473 6.75978 20.8536 6.85355C20.7598 6.94731 20.6326 7 20.5 7Z" fill="black"/>
</g>
<defs>
<clipPath id="clip0_395_704">
<rect width="27.43" height="27" fill="white"/>
</clipPath>
</defs>
</svg>
