<svg width="33" height="27" viewBox="0 0 33 27" fill="none" xmlns="http://www.w3.org/2000/svg">
<g clip-path="url(#clip0_395_715)">
<path d="M0.970093 26.3798C0.877658 26.3798 0.786964 26.3547 0.707703 26.3071C0.628441 26.2596 0.563579 26.1914 0.520081 26.1098C0.473265 26.033 0.448486 25.9448 0.448486 25.8548C0.448486 25.7649 0.473265 25.6767 0.520081 25.5998L15.5201 3.51985C15.567 3.45191 15.6298 3.39637 15.703 3.35805C15.7762 3.31972 15.8575 3.29977 15.9401 3.29985C16.0215 3.29875 16.1018 3.31834 16.1735 3.35682C16.2452 3.39531 16.306 3.45143 16.3501 3.51985L31.3501 25.5998C31.3992 25.6758 31.4253 25.7644 31.4253 25.8548C31.4253 25.9453 31.3992 26.0339 31.3501 26.1098C31.3092 26.1913 31.2463 26.2598 31.1685 26.3075C31.0908 26.3552 31.0013 26.3802 30.9101 26.3798H0.970093Z" fill="white"/>
<path d="M16.06 3.79981L31.06 25.8798H0.970017L15.97 3.79981M15.97 2.79981C15.8062 2.79956 15.6448 2.83954 15.5001 2.91626C15.3554 2.99298 15.2317 3.10407 15.14 3.23978L0.14 25.3198C0.0382652 25.4703 -0.0205326 25.6457 -0.0301047 25.8271C-0.0396768 26.0085 0.000347599 26.1891 0.085679 26.3495C0.17101 26.5099 0.298405 26.644 0.454209 26.7374C0.610013 26.8309 0.788348 26.8801 0.970017 26.8798H31.07C31.2517 26.8801 31.43 26.8309 31.5858 26.7374C31.7416 26.644 31.869 26.5099 31.9543 26.3495C32.0397 26.1891 32.0797 26.0085 32.0701 25.8271C32.0605 25.6457 32.0017 25.4703 31.9 25.3198L16.84 3.23978C16.7492 3.10546 16.6271 2.99526 16.4843 2.91861C16.3414 2.84196 16.1821 2.80119 16.02 2.79981H15.97Z" fill="black"/>
<path d="M15.465 3.07026L9.82446 26.2437L10.7961 26.4802L16.4366 3.30676L15.465 3.07026Z" fill="black"/>
<path d="M15.465 3.07026L9.82446 26.2437L10.7961 26.4802L16.4366 3.30676L15.465 3.07026Z" fill="black"/>
<path d="M16.6167 3.02815L15.645 3.26465L21.2855 26.4381L22.2572 26.2016L16.6167 3.02815Z" fill="black"/>
<path d="M14.67 8.66016C14.67 8.66016 12.28 16.7902 7.46997 19.6602C8.46997 21.5802 10.47 25.9502 10.47 25.9502L14.67 8.66016Z" fill="white"/>
<path d="M10.4601 26.46C10.365 26.4605 10.2719 26.4334 10.192 26.3819C10.1121 26.3304 10.0489 26.2568 10.0101 26.17C10.0101 26.17 8.01009 21.79 7.01009 19.9C6.95475 19.7849 6.94461 19.6533 6.98164 19.5311C7.01867 19.4089 7.10019 19.305 7.2101 19.24C11.7801 16.5 14.2101 8.60003 14.2101 8.52003C14.2473 8.39497 14.332 8.28939 14.4459 8.22587C14.5599 8.16234 14.6941 8.14587 14.8201 8.18C14.9453 8.21524 15.0523 8.29701 15.1192 8.40854C15.1861 8.52008 15.2079 8.65295 15.1801 8.78L10.9701 26.08C10.9455 26.1813 10.8899 26.2724 10.811 26.3405C10.7321 26.4087 10.6339 26.4504 10.5301 26.46H10.4601ZM8.12013 19.88C8.76013 21.18 9.70013 23.19 10.3101 24.49L12.7701 14.4C11.6593 16.558 10.0686 18.4327 8.12013 19.88Z" fill="black"/>
<path d="M16.0601 4.88004C15.9275 4.88004 15.8003 4.82735 15.7065 4.73358C15.6127 4.63981 15.5601 4.51264 15.5601 4.38004V0.540039C15.5601 0.407431 15.6127 0.280261 15.7065 0.186493C15.8003 0.0927247 15.9275 0.0400391 16.0601 0.0400391C16.1927 0.0400391 16.3198 0.0927247 16.4136 0.186493C16.5073 0.280261 16.5601 0.407431 16.5601 0.540039V4.38004C16.5575 4.51184 16.504 4.63752 16.4108 4.73074C16.3175 4.82396 16.1919 4.87748 16.0601 4.88004Z" fill="black"/>
</g>
<defs>
<clipPath id="clip0_395_715">
<rect width="32.11" height="26.88" fill="white"/>
</clipPath>
</defs>
</svg>
