<svg width="520" height="92" viewBox="0 0 520 92" fill="none" xmlns="http://www.w3.org/2000/svg">
<g clip-path="url(#clip0_45_52)">
<path d="M257.379 89.3204L254.645 80.8241L261.008 81.1668L257.379 89.3204Z" fill="#FFF2A6"/>
<path d="M291.615 91.1567L288.67 82.7219L295.042 82.9065L291.615 91.1567Z" fill="#3A7752"/>
<path d="M322.353 91.8596L319.408 83.4248L325.78 83.6181L322.353 91.8596Z" fill="#E86E2A"/>
<path d="M354.336 92.3692L351.154 84.0311H357.526L354.336 92.3692Z" fill="#FFF2A6"/>
<path d="M385.477 92.3692L382.296 84.0311H388.668L385.477 92.3692Z" fill="#3A7752"/>
<path d="M417.907 91.965L414.717 83.6269H421.089L417.907 91.965Z" fill="#E86E2A"/>
<path d="M450.495 91.104L446.901 82.9328L453.265 82.6165L450.495 91.104Z" fill="#FFF2A6"/>
<path d="M480.155 90.199L476.562 82.0278L482.925 81.7115L480.155 90.199Z" fill="#3A7752"/>
<path d="M515.346 87.8531L511.752 79.6819L518.124 79.3656L515.346 87.8531Z" fill="#E86E2A"/>
<path d="M519.939 79.2075C519.939 79.2075 204.291 103.809 0.0615234 41.7344" stroke="#EAEAEA" stroke-width="0.5" stroke-miterlimit="10"/>
<path d="M18.2134 73.9358L16.2939 65.2111L22.5959 66.16L18.2134 73.9358Z" fill="#FFF2A6"/>
<path d="M49.2498 77.9335L46.9534 69.3054L53.2903 69.982L49.2498 77.9335Z" fill="#3A7752"/>
<path d="M84.6596 81.4831L81.9951 72.9605L88.3584 73.3559L84.6596 81.4831Z" fill="#E86E2A"/>
<path d="M115.161 83.1613L112.497 74.6386L118.86 75.034L115.161 83.1613Z" fill="#FFF2A6"/>
<path d="M146.241 83.7939L143.051 75.4558H149.432L146.241 83.7939Z" fill="#3A7752"/>
<path d="M177.847 83.3809L174.385 75.1483L180.757 74.9374L177.847 83.3809Z" fill="#E86E2A"/>
<path d="M209.155 81.9927L205.421 73.883L211.776 73.4613L209.155 81.9927Z" fill="#FFF2A6"/>
<path d="M240.901 79.6643L237.133 71.5723L243.487 71.1154L240.901 79.6643Z" fill="#3A7752"/>
<path d="M272.13 76.5804L268.099 68.6113L274.444 67.9524L272.13 76.5804Z" fill="#E86E2A"/>
<path d="M303.114 72.5651L299.091 64.6048L305.428 63.9459L303.114 72.5651Z" fill="#FFF2A6"/>
<path d="M335.378 67.6009L330.741 59.9745L337.017 58.8235L335.378 67.6009Z" fill="#3A7752"/>
<path d="M367.851 62.1271L363.215 54.5095L369.49 53.3497L367.851 62.1271Z" fill="#E86E2A"/>
<path d="M396.197 56.6621L391.56 49.0357L397.827 47.8847L396.197 56.6621Z" fill="#FFF2A6"/>
<path d="M428.092 50.011L423.07 42.6306L429.275 41.1633L428.092 50.011Z" fill="#3A7752"/>
<path d="M488.043 35.9443L483.021 28.5727L489.218 27.0878L488.043 35.9443Z" fill="#FFF2A6"/>
<path d="M514.329 29.3283L509.307 21.9567L515.504 20.4806L514.329 29.3283Z" fill="#326028"/>
<path d="M459.286 43.105L454.264 35.7334L460.46 34.2486L459.286 43.105Z" fill="#E86E2A"/>
<path d="M519.939 18.9957C205.737 103.299 61.1173 70.2368 0.937988 62.9882" stroke="#EAEAEA" stroke-width="0.5" stroke-miterlimit="10"/>
<path d="M123.283 41.1884C124.054 26.1563 129.771 10.7387 130.831 10.7387V9.90356C128.55 9.90356 126.784 12.7301 123.604 17.8051C119.557 24.2291 114.032 33.5439 106.645 40.6103C66.0128 21.8522 58.7216 51.4347 84.803 51.4347C93.4754 51.4347 100.735 47.2591 106.773 41.606C108.09 42.2163 109.439 42.8908 110.82 43.5974L111.206 42.8266C109.921 42.152 108.668 41.5418 107.448 40.9636C114.835 33.833 120.328 24.5503 124.311 18.2548C126.88 14.1755 128.39 11.7665 129.803 11.0278C127.298 15.2355 122.351 30.7816 122.351 44.561H122.865L123.251 44.6574C123.251 44.6574 131.473 4.21832 162.887 4.21832V3.3832C136.356 3.3832 126.045 31.4882 123.283 41.1884ZM84.803 50.5996C60.2634 50.5996 66.9764 23.3297 105.97 41.2206C100.124 46.6488 93.1221 50.5996 84.803 50.5996ZM150.68 36.9486C146.858 38.8758 141.141 41.1563 137.704 40.4497C136.515 40.2248 135.744 39.5824 135.359 38.8116C136.997 39.2934 139.952 37.8801 139.952 35.5353C139.952 34.6681 139.213 34.0257 138.25 34.0257C135.776 34.0257 134.395 35.6317 134.235 37.334V37.3983C134.138 39.0685 135.166 40.803 137.543 41.2848C141.237 42.0557 147.211 39.6467 151.033 37.7195L150.68 36.9486ZM138.25 34.8608C138.764 34.8608 139.117 35.1499 139.117 35.5353C139.117 37.8158 135.166 38.8758 135.07 37.3983C135.198 36.0814 136.29 34.8608 138.25 34.8608ZM180.516 36.9486C178.492 37.9122 176.469 38.394 174.477 38.394C170.077 38.394 168.246 37.848 167.7 36.0171C168.439 34.9893 168.856 34.0578 168.599 33.4796C168.375 32.9657 167.668 32.6766 167.186 33.03C166.833 33.2548 166.672 33.7687 166.672 34.4111C166.672 34.925 166.704 35.4068 166.801 35.7923C165.163 37.6874 162.143 39.9679 161.18 39.6467C160.858 39.5503 160.891 38.9079 161.276 37.9122C161.726 37.5268 162.175 37.1092 162.625 36.6916C162.818 36.4989 163.01 36.3062 163.203 36.0814C163.685 35.5996 164.07 35.1178 164.327 34.6681C164.681 34.0578 164.841 33.4475 164.424 33.1584C163.942 32.8694 163.3 33.3833 162.689 34.0578C162.336 34.4111 162.015 34.8608 161.694 35.3426C161.404 35.7602 161.115 36.2741 160.891 36.7559L160.601 37.3662C159.06 38.651 157.582 39.6146 157.133 39.6146C156.843 39.6146 157.325 38.4582 159.156 35.8244C159.766 34.925 160.184 34.3148 160.184 34.0257C160.184 33.6724 159.831 33.4475 159.445 33.4475C158.642 33.4475 155.334 34.925 150.676 36.9486L150.998 37.7195C155.109 35.9208 158.096 34.6038 159.124 34.3469C158.963 34.6038 158.706 35.0214 158.482 35.3426C156.426 38.2976 155.334 40.3854 157.133 40.4497C157.711 40.4818 158.835 39.8073 160.152 38.8116C160.055 39.6146 160.28 40.2248 160.923 40.4176C162.24 40.8672 165.227 38.8116 167.09 36.7238C168.021 38.7794 170.494 39.2291 174.477 39.2291C176.597 39.2291 178.749 38.7152 180.901 37.7195L180.516 36.9486ZM167.507 34.4111C167.507 33.9936 167.572 33.7687 167.668 33.7045C167.668 33.7045 167.796 33.7366 167.828 33.8008C167.925 34.0257 167.796 34.4111 167.507 34.8608V34.4111ZM163.3 34.636L163.46 34.4754C163.235 34.7966 162.946 35.1499 162.593 35.5032C162.85 35.1499 163.075 34.8608 163.3 34.636ZM202.444 37.7195L202.058 36.9486C198.814 38.4904 194.863 40 191.395 40C190.367 40 189.435 39.743 188.6 39.3255C189.339 38.1049 189.403 36.4668 188.632 34.7323C188.472 34.3469 188.439 34.0578 188.472 33.8651C188.729 33.7045 188.986 33.576 189.275 33.4154C189.724 33.2227 189.532 32.516 189.018 32.516H188.986C188.986 32.516 187.926 32.5803 187.636 33.4154C186.384 34.0899 185.195 34.7323 183.975 35.3426C182.818 34.1542 182.08 33.7366 181.726 34.8608C181.566 35.4068 181.502 35.9529 181.502 36.531C181.18 36.6595 180.859 36.8201 180.538 36.9486L180.859 37.7195C181.116 37.6231 181.373 37.4946 181.63 37.3983C182.015 39.3897 183.461 41.0921 185.163 41.0921C186.384 41.0921 187.38 40.6745 188.054 40C189.05 40.4818 190.174 40.8351 191.395 40.8351C194.992 40.8351 199.135 39.2612 202.444 37.7195ZM187.861 35.0535C188.536 36.531 188.472 37.9443 187.861 38.9079C186.544 38.0728 185.452 36.9486 184.585 35.985C185.581 35.4711 186.577 34.925 187.604 34.3469C187.669 34.5717 187.733 34.7966 187.861 35.0535ZM182.497 35.1178C182.562 35.0214 182.529 34.9893 183.204 35.728C182.915 35.8565 182.626 36.0171 182.337 36.1456C182.337 35.7923 182.401 35.439 182.497 35.1178ZM185.163 40.257C183.814 40.257 182.658 38.7473 182.401 37.045L183.814 36.3704C184.681 37.334 185.838 38.6188 187.315 39.5503C186.769 40 186.03 40.257 185.163 40.257Z" fill="#FFF2A6"/>
<path d="M63.8465 45.8089C63.8465 46.7975 63.3118 47.2919 62.2425 47.2919H45.0527C44.0036 47.2919 43.479 46.737 43.479 45.6274V40.4825C43.479 40.0588 43.6203 39.7158 43.9027 39.4536C44.2054 39.1711 44.5786 39.0299 45.0225 39.0299H62.3938C63.3623 39.0299 63.8465 39.5242 63.8465 40.5128V45.8089ZM65.7833 63.5434C65.6219 63.5434 65.4605 63.5132 65.2991 63.4527C63.564 62.9684 62.0508 62.2421 60.7596 61.2737C60.0131 61.7579 59.0648 62.2522 57.9148 62.7566C56.5428 63.3215 55.5341 63.604 54.8884 63.604C54.3235 63.604 54.041 63.3316 54.041 62.7869C54.041 62.3632 54.2025 62.111 54.5253 62.0303C56.1797 61.546 57.6929 60.8197 59.0648 59.8513C57.1481 57.9144 56.0384 55.7455 55.7358 53.3446H54.6766C54.2529 53.3446 54.041 53.0621 54.041 52.4972C54.041 51.8919 54.2529 51.5893 54.6766 51.5893H64.9965C65.5009 51.5893 65.9246 51.8011 66.2676 52.2248C66.6307 52.6283 66.7518 53.042 66.6307 53.4656C66.429 54.3937 66.1162 55.3117 65.6926 56.2196C65.1882 57.289 64.2903 58.4188 62.9991 59.6092C64.0482 60.1136 65.2487 60.5171 66.6005 60.8197C67.0242 60.9206 67.236 61.2838 67.236 61.9092C67.236 62.3127 67.0948 62.686 66.8123 63.029C66.5299 63.372 66.1869 63.5434 65.7833 63.5434ZM66.9031 48.5024C67.2864 48.7647 67.4781 49.0673 67.4781 49.4103C67.4781 49.9349 67.1755 50.1972 66.5702 50.1972H53.6174V63.3619C53.6174 63.6242 53.466 63.836 53.1634 63.9974C52.8608 64.179 52.5379 64.2698 52.195 64.2698C51.852 64.2698 51.509 64.179 51.166 63.9974C50.8432 63.836 50.6818 63.6141 50.6818 63.3316V60.7289C49.4914 60.9509 48.3515 61.1324 47.262 61.2737C45.5672 61.5158 43.4891 61.8184 41.0277 62.1816C40.7654 62.2219 40.5434 62.1211 40.3619 61.8789C40.2005 61.6167 40.1198 61.314 40.1198 60.971C40.1198 60.4465 40.3316 60.1539 40.7553 60.0934C41.1386 60.0127 41.7439 59.932 42.5711 59.8513V50.1972H41.0277C40.5636 50.1972 40.3316 49.9147 40.3316 49.3498C40.3316 48.8252 40.5737 48.5629 41.0579 48.5629H64.6636L65.6623 47.5945L66.9031 48.5024ZM60.8806 42.3891V40.6338L46.4146 40.6036V42.3891H60.8806ZM60.8806 45.5971V43.8115H46.4146V45.5971H60.8806ZM63.5438 53.3446H57.7029C58.0863 55.3823 59.1354 57.0468 60.8504 58.3381C62.3232 56.8451 63.221 55.1806 63.5438 53.3446ZM50.6818 52.134V50.1972H45.3554V52.134H50.6818ZM50.6818 55.6144V53.738H45.3554V55.6144H50.6818ZM50.6818 59.0644V57.1881H45.3554V59.6092L46.687 59.4881C48.1396 59.3671 49.4712 59.2258 50.6818 59.0644ZM98.2865 47.4129C98.6497 47.6954 98.8313 48.0182 98.8313 48.3813C98.8313 48.8656 98.5589 49.1077 98.0142 49.1077H94.9273V62.8474C94.9273 63.1097 94.7759 63.3215 94.4733 63.4829C94.1707 63.6443 93.8479 63.725 93.5049 63.725C93.1417 63.725 92.8088 63.6544 92.5062 63.5132C92.143 63.3316 91.9614 63.0996 91.9614 62.8171V49.1077H88.8443V50.3182C88.8443 51.6902 88.6728 53.3446 88.3298 55.2815C87.8859 58.1263 86.5039 60.8802 84.1837 63.5434C84.0424 63.7049 83.8508 63.7856 83.6087 63.7856C83.3464 63.7856 83.1043 63.7049 82.8823 63.5434C82.6604 63.4022 82.5494 63.2206 82.5494 62.9987C82.5494 62.8978 82.5797 62.7969 82.6402 62.6961C84.0929 60.5574 85.0411 58.2473 85.485 55.7657C85.6868 54.5955 85.8078 52.8402 85.8482 50.4998C85.8683 48.3208 85.8683 45.5668 85.8482 42.2378C85.8482 41.2492 86.3122 40.6439 87.2403 40.422C88.814 40.1395 90.3776 39.847 91.9312 39.5444C93.868 39.161 95.3711 38.7777 96.4404 38.3943C96.5212 38.354 96.6019 38.3338 96.6826 38.3338C97.0054 38.3338 97.2979 38.5356 97.5602 38.9391C97.8427 39.3426 97.9839 39.7461 97.9839 40.1496C97.9839 40.533 97.8528 40.7751 97.5905 40.876C96.965 41.1382 95.6334 41.3602 93.5957 41.5418C92.1834 41.6426 90.7509 41.7536 89.2982 41.8747C89.0359 41.8948 88.9048 42.0361 88.9048 42.2983V47.4734H96.047L97.1668 46.505L98.2865 47.4129ZM84.4863 40.8154C84.8696 41.1181 85.0613 41.4308 85.0613 41.7536C85.0613 42.258 84.7688 42.5102 84.1837 42.5102H71.8663C71.4225 42.5102 71.2005 42.2277 71.2005 41.6628C71.2005 41.1382 71.4326 40.876 71.8966 40.876H76.9204V38.7272C76.9204 38.1623 77.3642 37.8799 78.252 37.8799C79.1801 37.8799 79.6441 38.1724 79.6441 38.7575V40.876H82.3981L83.3665 39.9075L84.4863 40.8154ZM84.5166 47.5945C84.9201 47.877 85.1218 48.1998 85.1218 48.5629C85.1218 49.0471 84.8192 49.2893 84.2139 49.2893H79.5836V51.9827H82.156L83.1547 51.0446L84.2745 51.9222C84.6376 52.245 84.8192 52.5678 84.8192 52.8906C84.8192 53.395 84.5267 53.6472 83.9416 53.6472H79.5836V54.4643C81.4599 55.3521 82.8016 56.1591 83.6087 56.8854C83.7701 57.0267 83.8508 57.2385 83.8508 57.521C83.8508 57.9043 83.7196 58.2271 83.4573 58.4894C83.1143 58.8526 82.7714 59.0342 82.4284 59.0342C82.267 59.0342 82.1459 58.9938 82.0652 58.9131C81.2783 58.0657 80.4511 57.289 79.5836 56.5828V63.3921C79.5836 63.9571 79.1195 64.2496 78.1915 64.2698C77.8686 64.2698 77.5761 64.2092 77.3138 64.0882C76.9708 63.9066 76.7993 63.6948 76.7993 63.4527V57.5512C75.4072 59.1653 73.7326 60.6482 71.7756 62C71.6545 62.0807 71.5334 62.1211 71.4124 62.1211C71.1703 62.1211 70.9483 62.0202 70.7466 61.8184C70.5448 61.6167 70.444 61.3947 70.444 61.1526C70.444 60.971 70.5247 60.8298 70.6861 60.7289C71.5334 60.0631 72.4817 59.0846 73.5308 57.7933C74.701 56.3407 75.609 54.9587 76.2546 53.6472H71.8361C71.3922 53.6472 71.1703 53.3648 71.1703 52.7998C71.1703 52.2551 71.4023 51.9827 71.8663 51.9827H76.7993V49.2893H71.5032C71.0795 49.2893 70.8676 49.0169 70.8676 48.4721C70.8676 47.9476 71.0896 47.6853 71.5334 47.6853H74.3177C74.237 47.6046 74.1866 47.5138 74.1664 47.4129C73.9243 45.9199 73.5409 44.6589 73.0164 43.63C72.976 43.5492 72.9558 43.4685 72.9558 43.3878C72.9558 42.9238 73.2686 42.6918 73.894 42.6918C74.1563 42.6918 74.3379 42.7826 74.4388 42.9642C75.7098 43.9729 76.4967 45.2238 76.7993 46.7168C76.88 47.1204 76.6984 47.4432 76.2546 47.6853H79.3415C79.8459 46.3739 80.32 44.8607 80.7639 43.1457C80.8647 42.8027 81.1674 42.6313 81.6718 42.6313C82.156 42.6313 82.61 42.7725 83.0336 43.0549C83.4775 43.3374 83.6389 43.64 83.5179 43.9629C82.9529 45.0523 82.1459 46.2932 81.0968 47.6853H82.6402L83.4876 46.8076L84.5166 47.5945ZM128.066 40.2404C127.239 41.915 125.968 43.6199 124.253 45.355C124.091 45.4962 123.92 45.5668 123.738 45.5668C123.496 45.5668 123.284 45.4962 123.103 45.355C122.921 45.1936 122.83 45.012 122.83 44.8102C122.83 44.7295 122.851 44.6589 122.891 44.5984C123.637 43.287 124.394 41.5418 125.161 39.3628C125.302 38.9794 125.655 38.7878 126.22 38.7878C126.583 38.7878 126.987 38.9189 127.43 39.1812C127.874 39.4435 128.096 39.7461 128.096 40.0891C128.096 40.1295 128.086 40.1799 128.066 40.2404ZM115.143 43.8115C115.184 43.8922 115.204 43.983 115.204 44.0839C115.204 44.6892 114.831 45.123 114.084 45.3852C113.862 45.4659 113.62 45.5063 113.358 45.5063C112.732 45.5063 112.399 45.3449 112.359 45.0221C112.278 44.437 112.006 43.5795 111.542 42.4497C111.078 41.3198 110.674 40.5431 110.331 40.1194C110.271 40.0387 110.241 39.958 110.241 39.8773C110.241 39.6957 110.352 39.5141 110.574 39.3325C110.796 39.1308 111.038 39.0299 111.3 39.0299C111.461 39.0299 111.603 39.0803 111.724 39.1812C113.176 40.2303 114.316 41.7738 115.143 43.8115ZM127.098 61.6671C127.098 62.9785 126.25 63.6544 124.555 63.6948C123.305 63.7149 122.165 63.5838 121.136 63.3013C120.672 63.1803 120.44 62.8877 120.44 62.4237C120.44 61.8386 120.722 61.5561 121.287 61.5763C121.912 61.6368 122.407 61.6671 122.77 61.6671C123.738 61.6671 124.222 61.3039 124.222 60.5776V57.3999H113.751V63.3013C113.751 63.9268 113.247 64.2395 112.238 64.2395C111.31 64.2395 110.846 63.9671 110.846 63.4224V47.5945C110.846 47.1103 110.997 46.7269 111.3 46.4445C111.623 46.1418 112.016 45.9905 112.48 45.9905H117.443V38.4851C117.443 37.9202 117.918 37.6377 118.866 37.6377C119.875 37.6377 120.379 37.9303 120.379 38.5154V45.9905H125.433C126.543 45.9905 127.098 46.505 127.098 47.534V61.6671ZM109.333 42.4194C109.434 42.5808 109.484 42.7422 109.484 42.9036C109.484 43.287 109.282 43.64 108.879 43.9629C108.475 44.2655 108.062 44.4168 107.638 44.4168C107.335 44.4168 107.124 44.3058 107.002 44.0839C106.478 42.9944 105.388 41.6325 103.734 39.9983C103.653 39.9176 103.613 39.8167 103.613 39.6957C103.613 39.4737 103.694 39.272 103.855 39.0904C104.037 38.9088 104.248 38.818 104.491 38.818C104.591 38.818 104.692 38.8483 104.793 38.9088C107.113 40.0588 108.627 41.229 109.333 42.4194ZM107.093 48.2906C107.174 48.452 107.214 48.6033 107.214 48.7445C107.214 49.1279 107.002 49.4708 106.579 49.7735C106.175 50.0761 105.762 50.2274 105.338 50.2274C104.995 50.2274 104.773 50.0963 104.672 49.834C104.067 48.3813 103.149 46.9791 101.918 45.6274C101.858 45.5467 101.827 45.4559 101.827 45.355C101.827 45.1734 101.918 44.9918 102.1 44.8102C102.281 44.6085 102.473 44.5076 102.675 44.5076C102.796 44.5076 102.917 44.5379 103.038 44.5984C105.035 45.7484 106.387 46.9791 107.093 48.2906ZM109.968 49.2287C109.847 49.7129 109.272 50.8529 108.243 52.6485C107.315 54.2828 106.448 55.7152 105.641 56.946C106.367 58.7214 106.67 60.5373 106.549 62.3934C106.508 63.0391 105.953 63.3619 104.884 63.3619C103.795 63.3619 103.3 63.0088 103.401 62.3026C103.502 61.5561 103.552 60.7995 103.552 60.0329C103.552 57.5916 103.068 55.7556 102.1 54.5249C102.059 54.4643 102.039 54.3937 102.039 54.313C102.039 54.1516 102.14 53.9801 102.342 53.7985C102.544 53.617 102.766 53.5262 103.008 53.5262C103.25 53.5262 103.623 53.849 104.127 54.4946C106.649 51.5086 108.132 49.5717 108.576 48.684C108.697 48.4822 108.859 48.3813 109.06 48.3813C109.303 48.3813 109.524 48.4822 109.726 48.684C109.928 48.8857 110.009 49.0673 109.968 49.2287ZM124.222 50.8327V47.655H113.751V50.8327H124.222ZM124.222 55.7354V52.4972H113.751V55.7354H124.222ZM156.665 52.3762C156.665 53.4455 156.12 53.9801 155.031 53.9801H138.083C137.66 53.9801 137.306 53.8692 137.024 53.6472C136.641 53.3244 136.449 52.8705 136.449 52.2854V42.0865C136.449 41.7032 136.661 41.3501 137.085 41.0273C137.508 40.6843 137.932 40.5128 138.356 40.5128H143.652C143.854 39.9882 144.126 39.0601 144.469 37.7285C144.57 37.2645 144.983 37.0325 145.71 37.0325C146.194 37.0325 146.648 37.1434 147.072 37.3654C147.515 37.5873 147.737 37.8597 147.737 38.1825C147.737 38.243 147.717 38.3136 147.677 38.3943C147.354 38.7979 146.769 39.504 145.922 40.5128H155.061C155.505 40.5128 155.878 40.6641 156.181 40.9667C156.504 41.2694 156.665 41.6628 156.665 42.147V52.3762ZM160.267 61.2131C160.267 61.5763 160.024 61.9092 159.54 62.2118C159.056 62.5145 158.572 62.6658 158.088 62.6658C157.563 62.6658 157.22 62.464 157.059 62.0605C156.171 59.4579 155.182 57.5512 154.093 56.3407C154.012 56.2196 153.972 56.1087 153.972 56.0078C153.972 55.806 154.083 55.6144 154.305 55.4328C154.527 55.2512 154.748 55.1604 154.97 55.1604C155.091 55.1604 155.192 55.1806 155.273 55.2209C156.02 55.6245 157.008 56.5324 158.239 57.9447C159.591 59.478 160.267 60.5675 160.267 61.2131ZM149.795 57.7933C149.876 57.9346 149.916 58.0758 149.916 58.217C149.916 58.5399 149.725 58.8627 149.341 59.1855C148.978 59.4881 148.615 59.6394 148.252 59.6394C147.969 59.6394 147.778 59.5386 147.677 59.3368C147.092 58.3078 146.073 57.1074 144.62 55.7354C144.54 55.6547 144.499 55.5538 144.499 55.4328C144.499 55.231 144.58 55.0394 144.741 54.8578C144.923 54.6762 145.115 54.5854 145.316 54.5854C145.417 54.5854 145.528 54.6056 145.649 54.6459C147.828 55.8565 149.21 56.9056 149.795 57.7933ZM154.184 61.0013C154.264 62.4338 153.306 63.2005 151.308 63.3013C148.565 63.4224 145.579 63.3921 142.35 63.2105C141.745 63.1702 141.211 62.9382 140.746 62.5145C140.182 62.0706 139.899 61.4855 139.899 60.7592V55.7354C139.899 55.11 140.403 54.7972 141.412 54.7972C142.461 54.7972 142.986 55.11 142.986 55.7354V60.0026C142.986 60.507 143.268 60.7794 143.833 60.8197C146.396 61.0013 148.706 61.0013 150.764 60.8197C151.43 60.7592 151.803 60.4666 151.883 59.9421C151.904 59.9017 151.924 59.478 151.944 58.671C151.984 58.1263 152.307 57.8539 152.912 57.8539C153.659 57.8539 154.042 58.1868 154.062 58.8526L154.184 61.0013ZM138.235 56.492C138.194 57.6017 137.912 58.7719 137.387 60.0026C136.883 61.2333 136.267 62.2118 135.541 62.9382C135.36 63.1198 135.107 63.2105 134.785 63.2105C134.341 63.2105 133.907 63.0592 133.483 62.7566C133.08 62.454 132.878 62.1211 132.878 61.7579C132.878 61.536 132.979 61.314 133.181 61.0921C135.097 59.1149 136.207 57.4907 136.51 56.2196C136.57 55.8767 136.792 55.7052 137.175 55.7052C137.438 55.7052 137.68 55.7859 137.902 55.9473C138.124 56.0885 138.235 56.2701 138.235 56.492ZM153.699 44.6287V42.147H139.264V44.6287H153.699ZM153.699 48.4116V46.0813H139.264V48.4116H153.699ZM153.699 52.2854V49.834H139.264V52.2854H153.699Z" fill="#E86E2A"/>
</g>
<defs>
<clipPath id="clip0_45_52">
<rect width="520" height="92" fill="white"/>
</clipPath>
</defs>
</svg>
