<svg width="50" height="50" viewBox="0 0 50 50" fill="none" xmlns="http://www.w3.org/2000/svg">
<rect width="50" height="50" fill="#3A7752"/>
<path d="M18.3485 41.2721C18.3461 41.3098 18.335 41.3464 18.316 41.379C18.297 41.4116 18.2707 41.4393 18.2392 41.46C17.725 41.8193 17.1091 42.0031 16.4826 41.9844C14.8666 42.0313 14.0313 41.2017 14 39.6363C13.9797 39.3307 14.0226 39.0241 14.1261 38.7359C14.2295 38.4476 14.3913 38.1839 14.6012 37.9614C14.8533 37.7194 15.1528 37.5325 15.4807 37.4126C15.8086 37.2927 16.1578 37.2424 16.5061 37.2648C17.0551 37.2334 17.6004 37.3728 18.0675 37.6639C18.1283 37.7088 18.1772 37.7679 18.2099 37.8362C18.2426 37.9044 18.258 37.9796 18.2548 38.0553C18.2571 38.1213 18.2451 38.187 18.2195 38.2478C18.1939 38.3086 18.1553 38.3631 18.1065 38.4075C18.0601 38.4531 18.0052 38.489 17.9449 38.5131C17.8846 38.5373 17.8201 38.5493 17.7552 38.5484C17.693 38.5488 17.6316 38.5358 17.575 38.5101C17.5183 38.4844 17.468 38.4468 17.4273 38.3997C17.3839 38.3524 17.3505 38.2968 17.329 38.2363C17.3076 38.1758 17.2985 38.1116 17.3024 38.0474C17.2914 38.0011 17.2914 37.9529 17.3024 37.9066C17.0437 37.7649 16.754 37.6896 16.4592 37.6874C15.3897 37.6874 14.8978 38.3292 14.851 39.6206C14.8131 40.1191 14.9574 40.6143 15.2569 41.0138C15.3977 41.1762 15.5735 41.3042 15.771 41.3883C15.9685 41.4724 16.1825 41.5103 16.3968 41.4991C16.9501 41.5299 17.4983 41.3787 17.9582 41.0686C17.9964 41.0575 18.037 41.0575 18.0753 41.0686C18.1096 41.0694 18.1433 41.0775 18.1743 41.0923C18.2053 41.1072 18.2327 41.1284 18.2548 41.1547C18.2958 41.1849 18.3281 41.2254 18.3485 41.2721V41.2721Z" fill="white"/>
<path d="M20.8389 41.6165C20.8389 41.773 20.7843 41.8513 20.6359 41.8513H18.8794C18.7466 41.8513 18.6764 41.773 18.6686 41.6321C18.6674 41.6003 18.673 41.5686 18.6848 41.539C18.6967 41.5095 18.7145 41.4828 18.7374 41.4606C18.7602 41.4385 18.7874 41.4214 18.8173 41.4105C18.8471 41.3996 18.8789 41.3951 18.9106 41.3973H19.418V35.7854H18.895C18.7467 35.7854 18.6764 35.7072 18.6842 35.535C18.684 35.5041 18.6904 35.4735 18.7028 35.4453C18.7152 35.417 18.7334 35.3918 18.7563 35.3711C18.7791 35.3504 18.8061 35.3348 18.8353 35.3252C18.8646 35.3157 18.8956 35.3125 18.9262 35.3158H19.9489C19.9869 35.3096 20.0258 35.3122 20.0626 35.3235C20.0994 35.3348 20.1331 35.3545 20.1611 35.381C20.1891 35.4075 20.2105 35.4402 20.2238 35.4764C20.2371 35.5126 20.2419 35.5514 20.2378 35.5898V41.3973H20.6359C20.7686 41.3973 20.8311 41.4677 20.8389 41.6165Z" fill="white"/>
<path d="M26.2101 39.5971C26.2372 39.9225 26.1964 40.2499 26.0902 40.5585C25.984 40.8671 25.8148 41.1501 25.5933 41.3895C25.1002 41.7775 24.4868 41.9797 23.8602 41.9609C23.5427 42.0101 23.2182 41.9851 22.9119 41.8879C22.6057 41.7906 22.3261 41.6237 22.0948 41.4002C21.8635 41.1766 21.6869 40.9025 21.5788 40.5993C21.4706 40.296 21.4338 39.9718 21.4713 39.6519C21.4504 39.3259 21.4957 38.9989 21.6044 38.6908C21.7131 38.3828 21.8829 38.1 22.1036 37.8596C22.334 37.6404 22.6065 37.4704 22.9044 37.3601C23.2024 37.2498 23.5196 37.2013 23.8368 37.2178C24.1552 37.1927 24.4752 37.2348 24.7764 37.3413C25.0776 37.4478 25.3533 37.6164 25.5855 37.8361C25.8043 38.0711 25.9727 38.3487 26.0801 38.6516C26.1875 38.9546 26.2318 39.2764 26.2101 39.5971V39.5971ZM25.3357 39.5971C25.3562 39.1197 25.2309 38.6473 24.9766 38.2431C24.8453 38.0639 24.6718 37.92 24.4715 37.8244C24.2713 37.7288 24.0505 37.6844 23.829 37.6952C23.6084 37.6842 23.3889 37.732 23.1928 37.8338C22.9967 37.9355 22.831 38.0875 22.7126 38.2744C22.4672 38.6897 22.3554 39.1707 22.3925 39.6519C22.3925 40.8573 22.8921 41.4521 23.8524 41.4365C24.0696 41.4501 24.2869 41.4093 24.4845 41.3178C24.6822 41.2262 24.8539 41.0868 24.9844 40.9121C25.2307 40.5365 25.3535 40.0932 25.3357 39.6441V39.5971Z" fill="white"/>
<path d="M30.699 40.779C30.6783 40.9778 30.6127 41.1692 30.5072 41.3387C30.4017 41.5082 30.259 41.6514 30.09 41.7574C29.6902 41.9346 29.2538 42.0124 28.8175 41.9844C28.2705 41.9882 27.7321 41.8478 27.2561 41.5774C27.1749 41.525 27.1094 41.4514 27.0667 41.3646C27.0241 41.2777 27.0059 41.1808 27.0141 41.0843C27.0125 41.0267 27.0235 40.9696 27.0465 40.9168C27.0694 40.864 27.1037 40.817 27.1468 40.779C27.2317 40.6939 27.3469 40.6462 27.4669 40.6462C27.5869 40.6462 27.7021 40.6939 27.787 40.779C27.8288 40.8197 27.8621 40.8684 27.8849 40.9221C27.9077 40.9759 27.9195 41.0337 27.9197 41.0921C27.9272 41.1388 27.9272 41.1863 27.9197 41.233C28.1926 41.4207 28.5179 41.5166 28.8488 41.5069C29.5201 41.5069 29.9027 41.2799 29.9963 40.7868C30.0145 40.6673 29.9896 40.5452 29.9261 40.4425C29.847 40.2942 29.7164 40.18 29.5592 40.1216C29.364 40.0511 29.0986 39.9728 28.7785 39.8868C28.4584 39.8007 28.1227 39.7224 27.9978 39.6754C27.7239 39.5936 27.4833 39.4264 27.3108 39.198C27.1628 38.9969 27.0884 38.751 27.1 38.5014C27.0923 38.4338 27.0923 38.3655 27.1 38.2979C27.2015 37.5152 27.8026 37.1708 28.919 37.1865C29.4306 37.1623 29.9389 37.2816 30.3867 37.5309C30.4524 37.5752 30.5052 37.6362 30.5395 37.7078C30.5738 37.7793 30.5884 37.8587 30.5819 37.9379C30.5835 37.9947 30.5732 38.0512 30.5517 38.1037C30.5301 38.1563 30.4979 38.2038 30.457 38.2431C30.3912 38.3069 30.308 38.3496 30.2179 38.3658C30.1278 38.3819 30.035 38.3708 29.9512 38.3339C29.8675 38.2969 29.7966 38.2358 29.7476 38.1583C29.6987 38.0808 29.6738 37.9904 29.6763 37.8987C29.6693 37.8678 29.6693 37.8357 29.6763 37.8048C29.4141 37.6953 29.1328 37.6394 28.8488 37.6404C28.1617 37.6404 27.8104 37.8831 27.7948 38.3292C27.7797 38.4639 27.8142 38.5996 27.8918 38.7106C27.9694 38.8216 28.0849 38.9003 28.2164 38.9319L29.0986 39.1589C29.4016 39.2179 29.6992 39.3016 29.9886 39.4093C30.2339 39.5079 30.436 39.6911 30.5585 39.9259C30.6749 40.1311 30.7367 40.3629 30.738 40.599C30.7321 40.6603 30.719 40.7208 30.699 40.779V40.779Z" fill="white"/>
<path d="M35.9922 39.1354C35.9922 39.4797 35.7268 39.6519 35.11 39.6519H32.3385C32.3385 40.826 32.8694 41.413 33.8999 41.4052C34.4317 41.4355 34.9593 41.2957 35.4067 41.006C35.4381 40.9817 35.4763 40.968 35.516 40.9669C35.5594 40.9657 35.6025 40.9759 35.6408 40.9964C35.6792 41.017 35.7115 41.0473 35.7346 41.0843C35.757 41.1061 35.7748 41.1323 35.787 41.1612C35.7992 41.1901 35.8054 41.2212 35.8054 41.2525C35.8054 41.2839 35.7992 41.315 35.787 41.3439C35.7748 41.3728 35.757 41.3989 35.7346 41.4208C35.1889 41.8375 34.5031 42.0255 33.8219 41.9452C33.1917 41.98 32.572 41.7729 32.0887 41.366C31.8597 41.1422 31.6828 40.8703 31.5708 40.5699C31.4588 40.2696 31.4144 39.948 31.4407 39.6284C31.4288 39.2945 31.4881 38.9619 31.6147 38.6529C31.7412 38.3438 31.9321 38.0653 32.1746 37.8361C32.6498 37.4493 33.2492 37.249 33.8609 37.2726C34.2515 37.2586 34.6398 37.3392 34.9929 37.5074C35.3238 37.6642 35.597 37.9217 35.7736 38.2431C35.9044 38.5232 35.9787 38.8264 35.9922 39.1354V39.1354ZM35.2115 39.0414C35.2204 38.8588 35.1888 38.6765 35.119 38.5076C35.0492 38.3387 34.9428 38.1874 34.8077 38.0647C34.6725 37.9419 34.5119 37.8507 34.3374 37.7977C34.1629 37.7446 33.9788 37.731 33.7984 37.7578C33.0177 37.7578 32.5649 38.2666 32.401 39.1901H35.0632C35.1413 39.1901 35.1881 39.1432 35.1803 39.0414H35.2115Z" fill="white"/>
<path d="M30 30L24 24.7464L18 19.5L24 14.2464L30 9" stroke="white" stroke-width="0.75" stroke-linecap="round" stroke-linejoin="round"/>
</svg>
