<svg width="156" height="141" viewBox="0 0 156 141" fill="none" xmlns="http://www.w3.org/2000/svg">
<g clip-path="url(#clip0_443_841)">
<circle cx="149" cy="27" r="7" fill="#FFF2A6"/>
<mask id="mask0_443_841" style="mask-type:alpha" maskUnits="userSpaceOnUse" x="-4" y="-28" width="154" height="107">
<path d="M144.399 70.5C173.899 -17 62.5584 -28 23.8984 -28C-24.1011 -1 4.39866 109.16 4.39866 70.5C4.39866 31.8401 35.7387 0.5 74.3987 0.5C113.059 0.5 144.399 31.8401 144.399 70.5Z" fill="#D9D9D9"/>
</mask>
<g mask="url(#mask0_443_841)">
<circle cx="28.3984" cy="28.5" r="28" fill="#FFF2A6"/>
</g>
<path d="M130.398 112.312C73.8984 128.784 34.7318 114.308 13.8984 105.823C19.8984 116.804 38.3984 137.769 69.3984 140.265C100.86 142.798 122.398 124.292 130.398 112.312Z" fill="#88BB9C"/>
<path d="M134.315 97.7847L133.947 95.1165L131.997 96.4066L134.315 97.7847Z" fill="#E86E2A"/>
<path d="M16.9411 110.659C17.052 110.741 17.2086 110.718 17.2909 110.607C17.3732 110.496 17.35 110.34 17.2392 110.258L16.9411 110.659ZM18.8575 111.419C18.7442 111.34 18.5884 111.368 18.5096 111.482C18.4308 111.595 18.4589 111.751 18.5723 111.83L18.8575 111.419ZM18.9922 112.119C19.1061 112.197 19.2617 112.168 19.3397 112.054C19.4176 111.94 19.3884 111.784 19.2744 111.706L18.9922 112.119ZM20.9282 112.805C20.8122 112.73 20.6575 112.763 20.5826 112.879C20.5078 112.995 20.5411 113.15 20.6572 113.225L20.9282 112.805ZM21.0811 113.496C21.1976 113.571 21.3521 113.536 21.4262 113.42C21.5003 113.303 21.466 113.149 21.3495 113.075L21.0811 113.496ZM23.0511 114.128C22.9328 114.057 22.7792 114.095 22.708 114.213C22.6367 114.331 22.6748 114.485 22.7931 114.556L23.0511 114.128ZM23.2254 114.815C23.3441 114.885 23.4975 114.846 23.568 114.728C23.6386 114.609 23.5996 114.456 23.4809 114.385L23.2254 114.815ZM25.2066 115.384C25.0864 115.317 24.9339 115.359 24.8661 115.479C24.7982 115.599 24.8407 115.752 24.9609 115.82L25.2066 115.384ZM25.3931 116.062C25.5138 116.129 25.666 116.086 25.7332 115.965C25.8004 115.845 25.7571 115.693 25.6365 115.625L25.3931 116.062ZM27.3915 116.578C27.2695 116.514 27.1182 116.56 27.0536 116.682C26.989 116.804 27.0355 116.956 27.1576 117.02L27.3915 116.578ZM27.6017 117.254C27.7241 117.318 27.8751 117.271 27.9391 117.148C28.003 117.026 27.9557 116.875 27.8333 116.811L27.6017 117.254ZM29.6118 117.717C29.4881 117.656 29.3381 117.706 29.2766 117.83C29.2152 117.954 29.2656 118.104 29.3893 118.165L29.6118 117.717ZM29.8424 118.389C29.9663 118.45 30.1161 118.398 30.1769 118.274C30.2378 118.151 30.1866 118.001 30.0626 117.94L29.8424 118.389ZM31.8614 118.801C31.7363 118.742 31.5875 118.796 31.5291 118.922C31.4708 119.047 31.5249 119.195 31.65 119.254L31.8614 118.801ZM32.1098 119.467C32.2352 119.525 32.3837 119.47 32.4415 119.345C32.4993 119.219 32.4444 119.071 32.319 119.013L32.1098 119.467ZM34.1365 119.829C34.01 119.774 33.8626 119.832 33.8072 119.958C33.7518 120.085 33.8095 120.232 33.9359 120.287L34.1365 119.829ZM34.4008 120.49C34.5276 120.544 34.6747 120.486 34.7295 120.359C34.7843 120.233 34.726 120.085 34.5992 120.031L34.4008 120.49ZM36.4347 120.804C36.3069 120.752 36.1609 120.813 36.1084 120.94C36.056 121.068 36.117 121.214 36.2447 121.267L36.4347 120.804ZM36.7133 121.458C36.8413 121.51 36.987 121.448 37.0389 121.32C37.0908 121.192 37.0291 121.046 36.9011 120.994L36.7133 121.458ZM38.7543 121.726C38.6254 121.677 38.4808 121.741 38.4312 121.87C38.3816 121.999 38.4459 122.143 38.5748 122.193L38.7543 121.726ZM39.046 122.373C39.1751 122.422 39.3195 122.357 39.3685 122.228C39.4175 122.099 39.3525 121.955 39.2235 121.906L39.046 122.373ZM41.0945 122.597C40.9645 122.55 40.8213 122.618 40.7746 122.748C40.7279 122.878 40.7953 123.021 40.9252 123.068L41.0945 122.597ZM41.3982 123.237C41.5283 123.283 41.6713 123.215 41.7174 123.085C41.7636 122.955 41.6956 122.812 41.5654 122.765L41.3982 123.237ZM43.4546 123.418C43.3237 123.374 43.182 123.444 43.138 123.575C43.0941 123.706 43.1645 123.848 43.2954 123.892L43.4546 123.418ZM43.7695 124.05C43.9006 124.093 44.042 124.022 44.0854 123.891C44.1288 123.76 44.0577 123.618 43.9266 123.575L43.7695 124.05ZM45.8343 124.189C45.7026 124.148 45.5623 124.221 45.5211 124.353C45.4799 124.485 45.5534 124.625 45.6852 124.666L45.8343 124.189ZM46.1597 124.813C46.2916 124.854 46.4315 124.78 46.4722 124.648C46.5128 124.516 46.4388 124.376 46.3069 124.336L46.1597 124.813ZM48.2319 124.911C48.0993 124.873 47.9606 124.949 47.9222 125.082C47.8837 125.214 47.96 125.353 48.0926 125.391L48.2319 124.911ZM48.5687 125.529C48.7015 125.566 48.8398 125.49 48.8778 125.357C48.9157 125.224 48.8389 125.086 48.7061 125.048L48.5687 125.529ZM50.6285 125.581C50.4952 125.545 50.3581 125.624 50.3222 125.757C50.2864 125.891 50.3655 126.028 50.4988 126.064L50.6285 125.581ZM50.9895 126.194C51.123 126.23 51.2598 126.15 51.2951 126.016C51.3304 125.883 51.2508 125.746 51.1173 125.711L50.9895 126.194ZM53.0427 126.204C52.9086 126.17 52.7731 126.252 52.7399 126.386C52.7067 126.52 52.7885 126.656 52.9225 126.689L53.0427 126.204ZM53.4115 126.809C53.5457 126.842 53.6809 126.759 53.7135 126.625C53.7462 126.491 53.6639 126.356 53.5298 126.323L53.4115 126.809ZM55.4747 126.781C55.3401 126.75 55.2062 126.835 55.1756 126.969C55.145 127.104 55.2293 127.238 55.364 127.268L55.4747 126.781ZM55.851 127.378C55.9858 127.408 56.1194 127.323 56.1495 127.189C56.1795 127.054 56.0947 126.92 55.9599 126.89L55.851 127.378ZM57.9253 127.313C57.7901 127.285 57.6578 127.372 57.6298 127.507C57.6018 127.642 57.6887 127.775 57.8239 127.803L57.9253 127.313ZM58.3086 127.902C58.4439 127.93 58.5759 127.842 58.6034 127.707C58.6309 127.572 58.5436 127.44 58.4083 127.412L58.3086 127.902ZM60.3667 127.795C60.231 127.77 60.1003 127.859 60.0748 127.995C60.0493 128.131 60.1386 128.261 60.2743 128.287L60.3667 127.795ZM60.7724 128.379C60.9082 128.404 61.0385 128.315 61.0635 128.179C61.0885 128.043 60.9987 127.913 60.8629 127.888L60.7724 128.379ZM62.8221 128.234C62.686 128.211 62.557 128.302 62.5339 128.439C62.5109 128.575 62.6026 128.704 62.7387 128.727L62.8221 128.234ZM63.2334 128.81C63.3697 128.832 63.4984 128.74 63.5209 128.604C63.5434 128.468 63.4513 128.339 63.3151 128.316L63.2334 128.81ZM65.2964 128.629C65.1598 128.609 65.0325 128.703 65.0119 128.839C64.9913 128.976 65.0853 129.103 65.2218 129.124L65.2964 128.629ZM65.7129 129.197C65.8495 129.217 65.9766 129.123 65.9967 128.986C66.0168 128.849 65.9223 128.722 65.7857 128.702L65.7129 129.197ZM67.7666 128.98C67.6298 128.961 67.5041 129.058 67.4859 129.194C67.4677 129.331 67.564 129.457 67.7008 129.475L67.7666 128.98ZM68.2037 129.541C68.3406 129.559 68.466 129.462 68.4837 129.325C68.5014 129.188 68.4047 129.063 68.2678 129.045L68.2037 129.541ZM70.2404 129.286C70.1032 129.27 69.9792 129.369 69.9634 129.506C69.9476 129.643 70.046 129.767 70.1831 129.783L70.2404 129.286ZM70.6815 129.84C70.8187 129.855 70.9424 129.756 70.9577 129.619C70.9731 129.482 70.8743 129.358 70.737 129.343L70.6815 129.84ZM72.7341 129.552C72.5967 129.539 72.4743 129.639 72.4609 129.777C72.4474 129.914 72.5479 130.036 72.6853 130.05L72.7341 129.552ZM73.179 130.097C73.3165 130.11 73.4384 130.009 73.4515 129.872C73.4645 129.734 73.3636 129.613 73.2261 129.599L73.179 130.097ZM75.2152 129.774C75.0776 129.763 74.9569 129.866 74.9458 130.003C74.9346 130.141 75.0371 130.262 75.1747 130.273L75.2152 129.774ZM75.6788 130.313C75.8165 130.324 75.9368 130.221 75.9475 130.083C75.9582 129.945 75.8553 129.825 75.7177 129.814L75.6788 130.313ZM77.7051 129.956C77.5673 129.947 77.4484 130.052 77.4395 130.189C77.4305 130.327 77.535 130.446 77.6728 130.455L77.7051 129.956ZM78.1715 130.487C78.3093 130.495 78.4279 130.39 78.4364 130.252C78.4449 130.115 78.34 129.996 78.2022 129.988L78.1715 130.487ZM80.2104 130.098C80.0725 130.091 79.9552 130.198 79.9485 130.336C79.9418 130.474 80.0482 130.591 80.1861 130.598L80.2104 130.098ZM80.686 130.621C80.8239 130.627 80.9408 130.521 80.9471 130.383C80.9533 130.245 80.8466 130.128 80.7087 130.122L80.686 130.621ZM82.6939 130.199C82.5559 130.195 82.4403 130.303 82.4358 130.441C82.4312 130.579 82.5394 130.695 82.6774 130.699L82.6939 130.199ZM83.1799 130.715C83.3179 130.719 83.4331 130.61 83.4372 130.472C83.4413 130.334 83.3328 130.219 83.1948 130.215L83.1799 130.715ZM85.2004 130.262C85.0623 130.26 84.9485 130.37 84.9461 130.508C84.9437 130.646 85.0537 130.76 85.1917 130.762L85.2004 130.262ZM85.6881 130.77C85.8261 130.772 85.9397 130.662 85.9416 130.524C85.9436 130.385 85.8333 130.272 85.6952 130.27L85.6881 130.77ZM87.692 130.286C87.554 130.286 87.4418 130.398 87.4415 130.536C87.4412 130.674 87.5529 130.786 87.691 130.786L87.692 130.286ZM88.196 130.787C88.3341 130.787 88.4459 130.675 88.4458 130.536C88.4457 130.398 88.3337 130.287 88.1956 130.287L88.196 130.787ZM90.1915 130.273C90.0535 130.275 89.943 130.388 89.9448 130.526C89.9465 130.664 90.0599 130.775 90.1979 130.773L90.1915 130.273ZM90.6963 130.766C90.8344 130.764 90.9445 130.65 90.9424 130.512C90.9402 130.374 90.8265 130.264 90.6885 130.266L90.6963 130.766ZM92.6926 130.223C92.5546 130.226 92.4458 130.341 92.4496 130.479C92.4533 130.617 92.5683 130.726 92.7063 130.722L92.6926 130.223ZM93.2129 130.708C93.351 130.704 93.4594 130.588 93.4552 130.45C93.451 130.312 93.3358 130.204 93.1978 130.208L93.2129 130.708ZM95.184 130.136C95.0461 130.142 94.9389 130.259 94.9447 130.397C94.9505 130.535 95.067 130.642 95.2049 130.636L95.184 130.136ZM95.7043 130.614C95.8423 130.608 95.9491 130.491 95.9429 130.353C95.9368 130.215 95.8199 130.109 95.682 130.115L95.7043 130.614ZM97.6896 130.014C97.5517 130.021 97.4462 130.139 97.4539 130.277C97.4617 130.415 97.5797 130.521 97.7175 130.513L97.6896 130.014ZM98.2237 130.484C98.3615 130.476 98.4667 130.357 98.4586 130.22C98.4505 130.082 98.3322 129.977 98.1943 129.985L98.2237 130.484ZM100.172 129.857C100.035 129.867 99.9308 129.986 99.9404 130.124C99.95 130.262 100.069 130.366 100.207 130.356L100.172 129.857ZM100.707 130.321C100.844 130.311 100.948 130.191 100.938 130.053C100.928 129.915 100.808 129.812 100.671 129.822L100.707 130.321ZM102.678 129.665C102.54 129.677 102.438 129.797 102.45 129.935C102.461 130.073 102.582 130.175 102.72 130.163L102.678 129.665ZM103.219 130.121C103.356 130.109 103.458 129.988 103.446 129.85C103.435 129.713 103.313 129.611 103.176 129.623L103.219 130.121ZM105.152 129.442C105.015 129.455 104.914 129.577 104.927 129.715C104.941 129.852 105.063 129.953 105.2 129.939L105.152 129.442ZM105.699 129.89C105.837 129.877 105.937 129.754 105.923 129.617C105.91 129.479 105.787 129.379 105.65 129.393L105.699 129.89ZM107.654 129.182C107.516 129.197 107.417 129.321 107.432 129.458C107.448 129.595 107.571 129.694 107.708 129.679L107.654 129.182ZM108.204 129.624C108.342 129.608 108.44 129.485 108.425 129.347C108.409 129.21 108.285 129.112 108.148 129.127L108.204 129.624ZM110.12 128.894C109.983 128.911 109.885 129.036 109.902 129.173C109.919 129.31 110.044 129.408 110.181 129.391L110.12 128.894ZM110.678 129.329C110.815 129.311 110.912 129.186 110.895 129.049C110.878 128.912 110.753 128.815 110.616 128.833L110.678 129.329ZM112.613 128.571C112.476 128.59 112.381 128.716 112.399 128.852C112.418 128.989 112.544 129.085 112.681 129.066L112.613 128.571ZM16.7486 110.516C16.8119 110.563 16.8761 110.611 16.9411 110.659L17.2392 110.258C17.1747 110.21 17.111 110.162 17.0483 110.115L16.7486 110.516ZM18.5723 111.83C18.7096 111.925 18.8496 112.022 18.9922 112.119L19.2744 111.706C19.1328 111.609 18.9939 111.514 18.8575 111.419L18.5723 111.83ZM20.6572 113.225C20.7965 113.315 20.9378 113.405 21.0811 113.496L21.3495 113.075C21.2071 112.984 21.0667 112.894 20.9282 112.805L20.6572 113.225ZM22.7931 114.556C22.9356 114.642 23.0797 114.728 23.2254 114.815L23.4809 114.385C23.336 114.299 23.1928 114.213 23.0511 114.128L22.7931 114.556ZM24.9609 115.82C25.1037 115.9 25.2478 115.981 25.3931 116.062L25.6365 115.625C25.4919 115.545 25.3486 115.464 25.2066 115.384L24.9609 115.82ZM27.1576 117.02C27.3044 117.098 27.4525 117.176 27.6017 117.254L27.8333 116.811C27.6849 116.733 27.5376 116.656 27.3915 116.578L27.1576 117.02ZM29.3893 118.165C29.5392 118.24 29.6903 118.314 29.8424 118.389L30.0626 117.94C29.9113 117.866 29.761 117.791 29.6118 117.717L29.3893 118.165ZM31.65 119.254C31.8023 119.325 31.9556 119.396 32.1098 119.467L32.319 119.013C32.1655 118.942 32.013 118.871 31.8614 118.801L31.65 119.254ZM33.9359 120.287C34.09 120.355 34.245 120.422 34.4008 120.49L34.5992 120.031C34.4441 119.964 34.2899 119.897 34.1365 119.829L33.9359 120.287ZM36.2447 121.267C36.4001 121.331 36.5563 121.394 36.7133 121.458L36.9011 120.994C36.7448 120.931 36.5894 120.868 36.4347 120.804L36.2447 121.267ZM38.5748 122.193C38.7311 122.253 38.8882 122.313 39.046 122.373L39.2235 121.906C39.0663 121.846 38.91 121.786 38.7543 121.726L38.5748 122.193ZM40.9252 123.068C41.0822 123.124 41.2399 123.18 41.3982 123.237L41.5654 122.765C41.4078 122.71 41.2508 122.653 41.0945 122.597L40.9252 123.068ZM43.2954 123.892C43.4528 123.945 43.6108 123.997 43.7695 124.05L43.9266 123.575C43.7687 123.523 43.6113 123.47 43.4546 123.418L43.2954 123.892ZM45.6852 124.666C45.8427 124.715 46.0009 124.764 46.1597 124.813L46.3069 124.336C46.1488 124.287 45.9913 124.238 45.8343 124.189L45.6852 124.666ZM48.0926 125.391C48.2508 125.437 48.4095 125.483 48.5687 125.529L48.7061 125.048C48.5475 125.002 48.3894 124.957 48.2319 124.911L48.0926 125.391ZM50.4988 126.064C50.6619 126.107 50.8254 126.151 50.9895 126.194L51.1173 125.711C50.9538 125.668 50.7909 125.624 50.6285 125.581L50.4988 126.064ZM52.9225 126.689C53.085 126.729 53.248 126.769 53.4115 126.809L53.5298 126.323C53.3669 126.284 53.2045 126.244 53.0427 126.204L52.9225 126.689ZM55.364 127.268C55.5258 127.305 55.6882 127.342 55.851 127.378L55.9599 126.89C55.7977 126.854 55.636 126.817 55.4747 126.781L55.364 127.268ZM57.8239 127.803C57.985 127.836 58.1466 127.869 58.3086 127.902L58.4083 127.412C58.2468 127.379 58.0859 127.346 57.9253 127.313L57.8239 127.803ZM60.2743 128.287C60.4399 128.318 60.6059 128.349 60.7724 128.379L60.8629 127.888C60.6971 127.857 60.5316 127.826 60.3667 127.795L60.2743 128.287ZM62.7387 128.727C62.9032 128.755 63.0681 128.782 63.2334 128.81L63.3151 128.316C63.1503 128.289 62.986 128.262 62.8221 128.234L62.7387 128.727ZM65.2218 129.124C65.3851 129.148 65.5488 129.173 65.7129 129.197L65.7857 128.702C65.6222 128.678 65.4591 128.654 65.2964 128.629L65.2218 129.124ZM67.7008 129.475C67.8681 129.497 68.0357 129.519 68.2037 129.541L68.2678 129.045C68.1003 129.024 67.9333 129.002 67.7666 128.98L67.7008 129.475ZM70.1831 129.783C70.3489 129.802 70.515 129.821 70.6815 129.84L70.737 129.343C70.5711 129.324 70.4056 129.305 70.2404 129.286L70.1831 129.783ZM72.6853 130.05C72.8495 130.066 73.0141 130.082 73.179 130.097L73.2261 129.599C73.0618 129.584 72.8977 129.568 72.7341 129.552L72.6853 130.05ZM75.1747 130.273C75.3424 130.286 75.5104 130.3 75.6788 130.313L75.7177 129.814C75.5498 129.801 75.3823 129.788 75.2152 129.774L75.1747 130.273ZM77.6728 130.455C77.8387 130.466 78.0049 130.476 78.1715 130.487L78.2022 129.988C78.0362 129.977 77.8705 129.967 77.7051 129.956L77.6728 130.455ZM80.1861 130.598C80.3524 130.606 80.519 130.614 80.686 130.621L80.7087 130.122C80.5423 130.114 80.3762 130.106 80.2104 130.098L80.1861 130.598ZM82.6774 130.699C82.8446 130.705 83.0121 130.71 83.1799 130.715L83.1948 130.215C83.0275 130.21 82.8605 130.205 82.6939 130.199L82.6774 130.699ZM85.1917 130.762C85.3569 130.765 85.5223 130.768 85.6881 130.77L85.6952 130.27C85.53 130.268 85.365 130.265 85.2004 130.262L85.1917 130.762ZM87.691 130.786C87.859 130.787 88.0274 130.787 88.196 130.787L88.1956 130.287C88.0275 130.287 87.8596 130.287 87.692 130.286L87.691 130.786ZM90.1979 130.773C90.3638 130.771 90.5299 130.769 90.6963 130.766L90.6885 130.266C90.5225 130.269 90.3569 130.271 90.1915 130.273L90.1979 130.773ZM92.7063 130.722C92.8749 130.718 93.0438 130.713 93.2129 130.708L93.1978 130.208C93.0291 130.213 92.8607 130.218 92.6926 130.223L92.7063 130.722ZM95.2049 130.636C95.3711 130.629 95.5376 130.622 95.7043 130.614L95.682 130.115C95.5158 130.122 95.3498 130.129 95.184 130.136L95.2049 130.636ZM97.7175 130.513C97.886 130.503 98.0547 130.494 98.2237 130.484L98.1943 129.985C98.0258 129.995 97.8576 130.004 97.6896 130.014L97.7175 130.513ZM100.207 130.356C100.373 130.345 100.54 130.333 100.707 130.321L100.671 129.822C100.504 129.834 100.338 129.846 100.172 129.857L100.207 130.356ZM102.72 130.163C102.886 130.149 103.052 130.135 103.219 130.121L103.176 129.623C103.01 129.637 102.844 129.651 102.678 129.665L102.72 130.163ZM105.2 129.939C105.366 129.923 105.533 129.907 105.699 129.89L105.65 129.393C105.484 129.409 105.318 129.426 105.152 129.442L105.2 129.939ZM107.708 129.679C107.873 129.661 108.039 129.643 108.204 129.624L108.148 129.127C107.983 129.146 107.818 129.164 107.654 129.182L107.708 129.679ZM110.181 129.391C110.346 129.37 110.512 129.35 110.678 129.329L110.616 128.833C110.45 128.853 110.285 128.874 110.12 128.894L110.181 129.391ZM112.681 129.066C112.765 129.055 112.848 129.044 112.932 129.032L112.864 128.537C112.781 128.548 112.697 128.56 112.613 128.571L112.681 129.066Z" fill="#FFF2A6"/>
<path d="M102.888 115.439L103.268 111.517L100.056 112.695L102.888 115.439Z" fill="#FFF2A6"/>
<path d="M56.3586 126.446L58.1333 121.786L53.8189 122.154L56.3586 126.446Z" fill="#FFF2A6"/>
<path d="M126.096 103.653L125.83 100.091L123.143 101.637L126.096 103.653Z" fill="#3A7752"/>
<path d="M88.3456 120.737L89.2919 115.842L85.1049 116.944L88.3456 120.737Z" fill="#3A7752"/>
<path d="M37.6807 127.822L39.6946 123.26L35.3669 123.404L37.6807 127.822Z" fill="#3A7752"/>
<path d="M116.182 109.436L116.231 105.507L113.137 106.946L116.182 109.436Z" fill="#E86E2A"/>
<path d="M71.8248 124.613L73.2434 119.833L68.9689 120.524L71.8248 124.613Z" fill="#E86E2A"/>
<path d="M141.898 89.3506C117.398 107.82 88.3984 123.293 28.3984 123.293" stroke="white" stroke-width="0.5"/>
</g>
<defs>
<clipPath id="clip0_443_841">
<rect width="156" height="141" fill="white"/>
</clipPath>
</defs>
</svg>
