<svg width="20" height="21" viewBox="0 0 20 21" fill="none" xmlns="http://www.w3.org/2000/svg">
<path d="M9.96032 0.0300026C7.44424 0.0574302 5.02956 1.02583 3.19177 2.74454C1.35398 4.46324 0.226183 6.80771 0.0305111 9.31632C-0.165161 11.8249 0.585449 14.3159 2.13452 16.2988C3.68358 18.2817 5.91886 19.6128 8.40026 20.03V13.03H5.86034V10.09H8.40026V7.87C8.40026 5.35 9.89029 3.96 12.1803 3.96C12.9272 3.97013 13.6724 4.03363 14.4103 4.15V6.63H13.1503C12.9348 6.60213 12.7158 6.62303 12.5095 6.69117C12.3032 6.75931 12.1149 6.87295 11.9584 7.02367C11.8019 7.1744 11.6813 7.35837 11.6055 7.56198C11.5296 7.76559 11.5005 7.98363 11.5203 8.2V10.09H14.3203L13.8704 13H11.5403V20C14.0217 19.5828 16.257 18.2517 17.806 16.2688C19.3551 14.2859 20.1057 11.7949 19.91 9.28632C19.7144 6.77771 18.5866 4.43324 16.7488 2.71454C14.911 0.995833 12.4964 0.0274277 9.98034 0L9.96032 0.0300026Z" fill="#3A7752"/>
</svg>
