<svg width="20" height="20" viewBox="0 0 20 20" fill="none" xmlns="http://www.w3.org/2000/svg">
<path d="M9.99002 0.0299577C7.46644 0.0573442 5.04455 1.02429 3.20128 2.74043C1.35801 4.45656 0.226857 6.79751 0.0306021 9.30237C-0.165653 11.8072 0.587195 14.2945 2.14088 16.2744C3.69457 18.2543 5.93651 19.5834 8.42531 20V13.0105H5.87782V10.0749H8.42531V7.85821C8.42531 5.34199 9.91978 3.95407 12.2166 3.95407C12.9657 3.96419 13.7132 4.02759 14.4532 4.14379V6.62007H13.1895C12.9734 6.59224 12.7537 6.61311 12.5468 6.68115C12.3399 6.74919 12.151 6.86265 11.994 7.01315C11.8371 7.16365 11.7161 7.34735 11.6401 7.55065C11.564 7.75396 11.5348 7.97167 11.5546 8.18772V10.0749H14.363L13.9117 12.9805H11.5747V19.97C14.0635 19.5534 16.3054 18.2243 17.8591 16.2444C19.4128 14.2645 20.1657 11.7773 19.9694 9.27241C19.7731 6.76756 18.642 4.4266 16.7987 2.71047C14.9554 0.994341 12.5337 0.0273866 10.0101 0L9.99002 0.0299577Z" fill="#1877F2"/>
</svg>
