<svg width="20" height="20" viewBox="0 0 20 20" fill="none" xmlns="http://www.w3.org/2000/svg">
<path d="M5.8246 0.0734717C4.99178 0.0916489 4.16802 0.250538 3.38846 0.543387C2.72169 0.796354 2.11671 1.18836 1.61401 1.69319C1.10855 2.19899 0.715807 2.80541 0.461234 3.47288C0.174305 4.25185 0.0184038 5.07278 0 5.90245C0 6.96227 0 7.30221 0 10.0217C0 12.7413 6.85301e-05 13.0212 0.0702437 14.141C0.0884696 14.9716 0.247757 15.7931 0.541391 16.5706C0.79798 17.2365 1.19453 17.8399 1.70433 18.3403C2.20373 18.8468 2.80986 19.2361 3.47878 19.4801C4.25746 19.7747 5.082 19.9304 5.91479 19.94C6.97744 19.94 7.31829 20 10.0451 20C12.7719 20 13.1127 20 14.1754 19.93C15.0083 19.9128 15.8322 19.7539 16.6115 19.4601C17.2763 19.2007 17.8797 18.8063 18.3837 18.302C18.8876 17.7977 19.2809 17.1945 19.5388 16.5306C19.8246 15.7513 19.9805 14.9306 20 14.101C20 13.0412 20 12.6913 20 9.98174C20 7.27222 19.9999 6.92228 19.9298 5.86246C19.9125 5.03176 19.7532 4.21009 19.4586 3.43288C19.2028 2.76735 18.809 2.16323 18.3028 1.66011C17.7966 1.15698 17.1895 0.76621 16.5213 0.513394C15.7403 0.227231 14.9171 0.0718294 14.0852 0.0534747C13.0226 0.00348342 12.6817 -0.00651407 9.9549 0.00348418C7.2281 0.0134824 6.9474 0.00348388 5.8246 0.0734717ZM5.94489 18.1503C5.30782 18.1412 4.67708 18.0228 4.08025 17.8004C3.64727 17.6369 3.25376 17.3841 2.92552 17.0584C2.59728 16.7328 2.34168 16.3417 2.17547 15.9107C1.94737 15.3169 1.82854 14.6869 1.82462 14.051C1.7745 13.0012 1.7644 12.6813 1.75438 10.0517C1.74435 7.42219 1.75443 7.05226 1.80455 6.05243C1.81774 5.42161 1.9328 4.79703 2.14537 4.20275C2.31142 3.76772 2.56763 3.37251 2.89725 3.04295C3.22241 2.7125 3.61584 2.45662 4.05015 2.29308C4.64467 2.0761 5.27173 1.96116 5.90475 1.95314C6.96741 1.90315 7.28821 1.89315 9.91477 1.88315C12.5413 1.87316 12.9223 1.88315 13.9248 1.88315C14.5578 1.89118 15.1849 2.00612 15.7794 2.22309C16.2118 2.39041 16.6045 2.64574 16.9324 2.97282C17.2604 3.29989 17.5164 3.69153 17.6842 4.12277C17.9115 4.71332 18.0303 5.33987 18.035 5.97244C18.035 7.03226 18.0952 7.3422 18.1053 9.97174C18.1153 12.6013 18.1053 12.9712 18.1053 13.971C18.0928 14.6052 17.9777 15.2332 17.7644 15.8307C17.5967 16.262 17.3406 16.6536 17.0127 16.9807C16.6847 17.3077 16.292 17.5631 15.8597 17.7304C15.2661 17.9521 14.6388 18.0705 14.0051 18.0803C12.9424 18.1303 12.6316 18.1403 9.99504 18.1503C7.35846 18.1603 6.98754 18.1503 5.98503 18.1503M14.1553 4.65267C14.1553 4.88997 14.2259 5.12193 14.3581 5.31924C14.4903 5.51654 14.6782 5.67032 14.898 5.76113C15.1179 5.85194 15.3598 5.8757 15.5931 5.82941C15.8265 5.78311 16.0408 5.66885 16.209 5.50105C16.3773 5.33326 16.4918 5.11948 16.5382 4.88674C16.5847 4.654 16.5609 4.41276 16.4698 4.19353C16.3788 3.9743 16.2245 3.78692 16.0267 3.65508C15.8289 3.52325 15.5963 3.45288 15.3584 3.45288C15.0394 3.45288 14.7334 3.57929 14.5078 3.80429C14.2822 4.0293 14.1553 4.33447 14.1553 4.65267ZM4.87215 10.0117C4.87414 11.0286 5.17859 12.022 5.74689 12.8662C6.31519 13.7104 7.12191 14.3676 8.06481 14.7544C9.00771 15.1412 10.0445 15.2404 11.0439 15.0394C12.0434 14.8383 12.9605 14.3461 13.6793 13.625C14.3981 12.9039 14.8863 11.9863 15.0821 10.9883C15.2778 9.99041 15.1723 8.957 14.779 8.0189C14.3856 7.08079 13.722 6.28015 12.8722 5.71831C12.0224 5.15647 11.0246 4.85868 10.0051 4.86263C9.32849 4.86262 8.65856 4.99602 8.03385 5.25516C7.40914 5.51429 6.84191 5.89404 6.36489 6.37258C5.88787 6.85111 5.51038 7.41898 5.25421 8.04353C4.99803 8.66807 4.86818 9.33697 4.87215 10.0117ZM6.6767 10.0117C6.6767 9.35367 6.87227 8.71036 7.23865 8.16305C7.60503 7.61575 8.12577 7.18901 8.73518 6.93672C9.3446 6.68444 10.0153 6.61792 10.6626 6.74558C11.3099 6.87324 11.9048 7.18934 12.3721 7.65397C12.8393 8.1186 13.1581 8.71091 13.2881 9.35609C13.418 10.0013 13.3533 10.6704 13.1022 11.2789C12.851 11.8875 12.4247 12.4082 11.8771 12.7752C11.3294 13.1422 10.6849 13.3392 10.025 13.3412C9.58505 13.3451 9.14869 13.2618 8.7413 13.096C8.33391 12.9303 7.96363 12.6853 7.65204 12.3755C7.34045 12.0657 7.0938 11.6971 6.92635 11.2913C6.7589 10.8855 6.67402 10.4506 6.6767 10.0117Z" fill="#3A7752"/>
</svg>
