<svg width="21" height="21" viewBox="0 0 21 21" fill="none" xmlns="http://www.w3.org/2000/svg">
<path d="M10.9949 0C9.01612 0 7.08178 0.586778 5.43649 1.68613C3.79119 2.78548 2.50882 4.34803 1.75158 6.17619C0.994331 8.00434 0.796193 10.016 1.18223 11.9567C1.56827 13.8975 2.52122 15.6802 3.92043 17.0794C5.31964 18.4786 7.10233 19.4315 9.04309 19.8175C10.9838 20.2036 12.9955 20.0055 14.8237 19.2482C16.6518 18.491 18.2144 17.2086 19.3137 15.5633C20.4131 13.918 20.9998 11.9837 20.9998 10.0049C20.9998 7.35143 19.9458 4.80665 18.0695 2.93037C16.1932 1.05409 13.6484 0 10.9949 0ZM16.2271 12.7139C14.6909 14.2751 12.9268 15.5941 10.9949 16.6259C10.2907 16.9193 10.3984 16.4303 10.4179 16.2641C10.4375 16.0978 10.5157 15.6968 10.5157 15.6968C10.5594 15.4971 10.5594 15.2902 10.5157 15.0905C10.4374 14.9144 10.1441 14.8166 9.92892 14.7677C6.73087 14.3472 4.36406 12.1076 4.36406 9.43765C4.36406 6.50367 7.29809 4.0489 11.0145 4.0489C14.7309 4.0489 17.6649 6.46455 17.6649 9.43765C17.6413 10.688 17.1328 11.8803 16.2467 12.7628L16.2271 12.7139Z" fill="#3A7752"/>
<path d="M9.64541 7.96088H9.17597C9.10575 7.96088 9.04883 8.0178 9.04883 8.08802V10.9927C9.04883 11.0629 9.10575 11.1198 9.17597 11.1198H9.64541C9.71562 11.1198 9.77255 11.0629 9.77255 10.9927V8.08802C9.77255 8.0178 9.71562 7.96088 9.64541 7.96088Z" fill="#3A7752"/>
<path d="M12.8632 7.96088H12.3938C12.3762 7.96083 12.3588 7.96441 12.3427 7.9714C12.3266 7.97839 12.3121 7.98864 12.3002 8.0015C12.2882 8.01436 12.2791 8.02956 12.2733 8.04613C12.2675 8.0627 12.2653 8.0803 12.2666 8.0978V9.81907L10.9365 8.01955H10.3594C10.3419 8.0195 10.3246 8.02309 10.3085 8.03008C10.2924 8.03707 10.2779 8.04732 10.266 8.06018C10.254 8.07304 10.2449 8.08824 10.2391 8.10481C10.2333 8.12139 10.231 8.13897 10.2323 8.15647V11.0905C10.2323 11.1072 10.2357 11.1237 10.2421 11.1391C10.2485 11.1545 10.2577 11.1686 10.2696 11.1804C10.2814 11.1922 10.2954 11.2015 10.3109 11.2079C10.3263 11.2143 10.3428 11.2176 10.3594 11.2176H10.829C10.8457 11.2176 10.8621 11.2143 10.8776 11.2079C10.893 11.2015 10.9071 11.1922 10.9189 11.1804C10.9307 11.1686 10.94 11.1545 10.9463 11.1391C10.9527 11.1237 10.9561 11.1072 10.9561 11.0905V9.27139L12.2862 11.0709H12.8338C12.8675 11.0709 12.8999 11.0575 12.9237 11.0337C12.9475 11.0098 12.9609 10.9775 12.9609 10.9438V8.00978C12.9493 7.99486 12.9345 7.98273 12.9176 7.97427C12.9007 7.96581 12.8821 7.96124 12.8632 7.96088Z" fill="#3A7752"/>
<path d="M8.52058 10.3961H7.25905V8.0978C7.25905 8.06148 7.24462 8.02666 7.21894 8.00098C7.19326 7.9753 7.15843 7.96088 7.12212 7.96088H6.66249C6.62618 7.96088 6.59135 7.9753 6.56567 8.00098C6.53999 8.02666 6.52556 8.06148 6.52556 8.0978V11.0318C6.51655 11.0604 6.51655 11.0912 6.52556 11.1198C6.53921 11.1267 6.5542 11.1303 6.56949 11.1303C6.58478 11.1303 6.59989 11.1267 6.61354 11.1198H8.47176C8.48845 11.1198 8.50492 11.1165 8.52035 11.1101C8.53577 11.1037 8.54985 11.0944 8.56165 11.0826C8.57346 11.0708 8.58284 11.0567 8.58923 11.0413C8.59562 11.0259 8.5989 11.0094 8.5989 10.9927V10.5232C8.60093 10.4965 8.59445 10.4698 8.5804 10.447C8.56634 10.4241 8.54537 10.4063 8.52058 10.3961Z" fill="#3A7752"/>
<path d="M15.4353 7.96088H13.5673C13.5384 7.95343 13.5082 7.95343 13.4793 7.96088C13.4688 7.98929 13.4688 8.0205 13.4793 8.0489V10.9829C13.4703 11.0115 13.4703 11.0423 13.4793 11.0709C13.5075 11.0823 13.5391 11.0823 13.5673 11.0709H15.4353C15.469 11.0709 15.5013 11.0575 15.5252 11.0337C15.549 11.0098 15.5624 10.9775 15.5624 10.9438V10.4743C15.5624 10.4406 15.549 10.4083 15.5252 10.3844C15.5013 10.3606 15.469 10.3472 15.4353 10.3472H14.1638V9.85819H15.4353C15.469 9.85819 15.5013 9.84479 15.5252 9.82095C15.549 9.79711 15.5624 9.76477 15.5624 9.73105V9.26161C15.5624 9.22789 15.549 9.19556 15.5252 9.17171C15.5013 9.14787 15.469 9.13447 15.4353 9.13447H14.1638V8.70416H15.4353C15.4528 8.70421 15.4702 8.70062 15.4863 8.69363C15.5024 8.68664 15.5168 8.67639 15.5288 8.66353C15.5407 8.65067 15.55 8.63547 15.5557 8.6189C15.5615 8.60233 15.5638 8.58474 15.5624 8.56724V8.10758C15.5653 8.08932 15.5641 8.07066 15.559 8.0529C15.5539 8.03514 15.5449 8.01871 15.5328 8.00474C15.5207 7.99078 15.5057 7.97962 15.4889 7.97204C15.472 7.96447 15.4538 7.96066 15.4353 7.96088Z" fill="#3A7752"/>
</svg>
