<svg width="24" height="17" viewBox="0 0 24 17" fill="none" xmlns="http://www.w3.org/2000/svg">
<path d="M23.5 2.65C23.3667 2.13805 23.1004 1.67045 22.7281 1.29462C22.3558 0.918797 21.8907 0.648107 21.38 0.509998C19.51 -1.66893e-06 12 0 12 0C12 0 4.49998 -1.66893e-06 2.62998 0.509998C2.11931 0.648107 1.65427 0.918797 1.28196 1.29462C0.909645 1.67045 0.643294 2.13805 0.509987 2.65C-0.169996 6.517 -0.169996 10.473 0.509987 14.34C0.641744 14.8538 0.907467 15.3235 1.27988 15.7011C1.6523 16.0788 2.11809 16.351 2.62998 16.49C4.49998 17 12 17 12 17C12 17 19.51 17 21.38 16.49C21.8919 16.351 22.3578 16.0788 22.7302 15.7011C23.1026 15.3235 23.3682 14.8538 23.5 14.34C24.1667 10.4719 24.1667 6.51814 23.5 2.65V2.65ZM9.56004 12.17V4.86L15.8 8.5L9.56004 12.17Z" fill="#FF0000"/>
</svg>
