<svg width="520" height="92" viewBox="0 0 520 92" fill="none" xmlns="http://www.w3.org/2000/svg">
<g clip-path="url(#clip0_56_92)">
<path d="M257.379 89.3204L254.645 80.8241L261.008 81.1668L257.379 89.3204Z" fill="#FFF2A6"/>
<path d="M291.615 91.1567L288.67 82.7219L295.042 82.9065L291.615 91.1567Z" fill="#3A7752"/>
<path d="M322.353 91.8596L319.408 83.4248L325.78 83.6181L322.353 91.8596Z" fill="#E86E2A"/>
<path d="M354.336 92.3692L351.154 84.0311H357.526L354.336 92.3692Z" fill="#FFF2A6"/>
<path d="M385.478 92.3692L382.296 84.0311H388.668L385.478 92.3692Z" fill="#3A7752"/>
<path d="M417.907 91.965L414.717 83.6269H421.089L417.907 91.965Z" fill="#E86E2A"/>
<path d="M450.495 91.104L446.901 82.9328L453.265 82.6165L450.495 91.104Z" fill="#FFF2A6"/>
<path d="M480.155 90.199L476.562 82.0278L482.925 81.7115L480.155 90.199Z" fill="#3A7752"/>
<path d="M515.346 87.8531L511.752 79.6819L518.124 79.3656L515.346 87.8531Z" fill="#E86E2A"/>
<path d="M519.939 79.2075C519.939 79.2075 204.291 103.809 0.0615234 41.7344" stroke="#EAEAEA" stroke-width="0.5" stroke-miterlimit="10"/>
<path d="M18.2134 73.9358L16.2939 65.2111L22.5959 66.16L18.2134 73.9358Z" fill="#FFF2A6"/>
<path d="M49.2495 77.9335L46.9531 69.3054L53.2901 69.982L49.2495 77.9335Z" fill="#3A7752"/>
<path d="M84.6596 81.4831L81.9951 72.9605L88.3584 73.3559L84.6596 81.4831Z" fill="#E86E2A"/>
<path d="M115.161 83.1613L112.497 74.6386L118.86 75.034L115.161 83.1613Z" fill="#FFF2A6"/>
<path d="M146.241 83.7939L143.051 75.4558H149.432L146.241 83.7939Z" fill="#3A7752"/>
<path d="M177.847 83.3809L174.385 75.1483L180.757 74.9374L177.847 83.3809Z" fill="#E86E2A"/>
<path d="M209.155 81.9927L205.421 73.883L211.776 73.4613L209.155 81.9927Z" fill="#FFF2A6"/>
<path d="M240.902 79.6643L237.133 71.5723L243.487 71.1154L240.902 79.6643Z" fill="#3A7752"/>
<path d="M272.13 76.5804L268.099 68.6113L274.444 67.9524L272.13 76.5804Z" fill="#E86E2A"/>
<path d="M303.114 72.5651L299.091 64.6048L305.428 63.9459L303.114 72.5651Z" fill="#FFF2A6"/>
<path d="M335.378 67.6009L330.741 59.9745L337.017 58.8235L335.378 67.6009Z" fill="#3A7752"/>
<path d="M367.851 62.1271L363.215 54.5095L369.49 53.3497L367.851 62.1271Z" fill="#E86E2A"/>
<path d="M396.197 56.6621L391.56 49.0357L397.827 47.8847L396.197 56.6621Z" fill="#FFF2A6"/>
<path d="M428.092 50.011L423.07 42.6306L429.275 41.1633L428.092 50.011Z" fill="#3A7752"/>
<path d="M488.043 35.9443L483.021 28.5727L489.218 27.0878L488.043 35.9443Z" fill="#FFF2A6"/>
<path d="M514.329 29.3283L509.307 21.9567L515.504 20.4806L514.329 29.3283Z" fill="#326028"/>
<path d="M459.286 43.105L454.264 35.7334L460.46 34.2486L459.286 43.105Z" fill="#E86E2A"/>
<path d="M519.939 18.9957C205.737 103.299 61.1173 70.2368 0.937988 62.9882" stroke="#EAEAEA" stroke-width="0.5" stroke-miterlimit="10"/>
<path d="M141.27 6.46672C140.852 6.46672 140.274 6.69156 139.568 7.17336C139.118 7.46244 138.604 7.88 138.026 8.32968C135.97 10.0642 133.465 12.6659 131.666 14.4646C126.366 19.8929 119.268 27.2484 111.27 33.5118C111.013 33.3833 110.724 33.2869 110.435 33.1584C108.443 32.2912 106.452 31.4561 104.525 30.8779C105.938 27.3447 103.914 24.1006 95.3384 24.1006C71.8587 24.1006 60.5203 47.2591 81.591 47.2591C91.9337 47.2591 102.276 41.5739 111.398 34.4754C114.257 35.6317 117.18 36.7559 120.039 37.1092C118.979 39.1006 118.047 41.0921 117.341 43.0193L118.144 43.3405C118.882 41.349 119.846 39.2612 120.938 37.1734C122.48 37.2698 123.989 37.1413 125.467 36.6274C128.004 35.7602 128.807 34.4432 127.523 33.1906L126.944 33.7687C127.651 34.5075 127.201 35.1499 125.21 35.8244C123.957 36.242 122.705 36.4026 121.388 36.3704C126.398 27.1841 134.139 17.6445 138.508 12.1198C139.664 10.6423 140.563 9.42176 141.142 8.58664C141.27 8.3618 141.431 8.16908 141.527 7.97636C142.041 7.14124 142.041 6.46672 141.27 6.46672ZM140.435 8.13696C139.889 8.93996 138.989 10.1284 137.833 11.6059C133.433 17.1948 125.531 26.9272 120.456 36.3062C117.758 36.0492 114.964 35.0214 112.169 33.8651C120.071 27.6017 127.041 20.3747 132.276 15.0428C134.043 13.244 136.548 10.6744 138.572 8.97208C139.15 8.49028 139.632 8.13696 140.049 7.88C140.403 7.65516 140.692 7.46244 140.917 7.3982C140.885 7.43032 140.852 7.49456 140.82 7.5588L140.435 8.13696ZM81.591 46.424C62.0621 46.424 72.6617 24.9357 95.3384 24.9357C102.822 24.9357 104.814 27.6338 103.754 30.6531L102.919 30.4604C101.441 30.1392 100.06 29.9464 98.711 29.9464C88.3362 29.9464 82.7795 39.9679 89.5889 39.9679C95.5954 39.9679 101.987 35.728 104.171 31.6488C106.099 32.227 108.09 33.0621 110.114 33.9293C110.242 33.9936 110.403 34.0578 110.531 34.0899C101.602 40.9636 91.5804 46.424 81.591 46.424ZM103.401 31.424C101.538 35.182 95.4669 39.1328 89.5889 39.1328C84.4818 39.1328 89.2035 30.7816 98.711 30.7816C99.9958 30.7816 101.345 30.9743 102.726 31.2634C102.951 31.3276 103.176 31.3597 103.401 31.424ZM148.181 36.9486C144.551 38.4904 138.352 39.9036 136.264 39.9358C136.039 39.9358 135.846 39.9358 135.654 39.9036C138.159 38.0086 139.508 33.576 136.136 33.576C134.08 33.576 131.285 38.0086 133.341 39.9036C133.084 39.9036 132.795 39.8394 132.538 39.6788C129.872 38.2013 138.641 26.1884 146.671 20.4389L146.189 19.7644C139.219 24.743 128.106 38.1692 132.121 40.3854C132.924 40.8351 133.727 40.8351 134.497 40.546C134.979 40.7066 135.557 40.7709 136.264 40.7709C138.448 40.7388 144.808 39.2612 148.502 37.7195L148.181 36.9486ZM136.136 34.4111C138.545 34.4111 136.842 38.5225 134.562 39.6467C132.088 38.4904 134.497 34.4111 136.136 34.4111ZM165.235 37.7195L164.914 36.9486C162.569 37.9443 159.26 39.3576 156.209 39.3576C154.442 39.3576 153.158 39.1006 152.355 38.651C153.672 37.4946 154.635 36.1135 154.635 35.182C154.635 34.1863 153.961 33.4796 152.997 33.4796C151.584 33.4796 150.46 35.0535 150.46 36.9486C150.46 37.591 150.652 38.1692 151.038 38.6188C150.813 38.7794 150.588 38.9079 150.363 39.0364C148.34 40.1927 147.537 39.7109 148.565 37.8801C149.014 37.1092 149.624 36.4026 150.074 36.0814L149.624 35.3747C149.046 35.7602 148.372 36.5632 147.858 37.4625C146.38 40.0642 147.954 41.3812 150.749 39.7752C151.07 39.5824 151.359 39.3897 151.648 39.197C152.644 39.8394 154.186 40.1927 156.209 40.1927C159.453 40.1927 162.89 38.7152 165.235 37.7195ZM151.295 36.9486C151.295 35.4711 152.098 34.3148 152.997 34.3148C153.511 34.3148 153.8 34.636 153.8 35.182C153.8 35.8886 152.901 37.1092 151.68 38.1049C151.423 37.7837 151.295 37.3983 151.295 36.9486ZM180.946 36.9486C175.839 39.1006 171.92 40.3533 170.314 40.3533C169.319 40.3533 168.901 40.0642 168.901 39.4218C168.901 38.7794 169.608 37.6874 171.117 35.8565L171.695 35.1499L171.406 34.9572L171.021 34.636L170.989 34.6681L170.957 34.7002C169.993 35.8886 166.653 39.6146 164.372 39.6146C164.211 39.6146 164.597 38.8116 165.946 36.788C166.396 36.1135 166.845 35.4711 167.102 34.9893L166.331 34.6038C166.139 35.0535 165.721 35.6638 165.239 36.3383C163.601 38.8116 162.766 40.4497 164.372 40.4497C165.593 40.4497 166.974 39.6146 168.259 38.6188C168.13 38.9079 168.066 39.1649 168.066 39.4218C168.066 40.546 168.901 41.1884 170.314 41.1884C172.498 41.1884 177.606 39.2612 181.267 37.7195L180.946 36.9486ZM183.472 42.3448C178.333 42.3448 180.903 37.1092 185.688 31.8736C186.716 30.7494 187.84 29.5931 189.029 28.501C189.864 28.4047 190.731 28.3083 191.599 28.1798C193.14 27.9871 194.618 27.7944 195.774 27.7944C197.091 27.7944 197.669 28.0192 197.669 28.4689H198.504C198.504 27.4411 197.573 26.9593 195.774 26.9593C194.554 26.9593 193.012 27.152 191.47 27.3447L190.089 27.5374C191.245 26.4775 192.466 25.4496 193.686 24.5182L193.172 23.8758C191.631 25.0642 190.089 26.349 188.643 27.698C188.097 27.7302 187.584 27.7623 187.102 27.7623C185.56 27.7623 184.918 27.4732 184.918 26.895H184.082C184.082 28.0514 185.11 28.5974 187.102 28.5974H187.68C186.748 29.4968 185.881 30.3961 185.046 31.2955C178.751 38.2013 178.044 43.1799 183.472 43.1799C187.166 43.1799 198.023 37.7195 198.023 37.7195L197.637 36.9486C197.637 36.9486 186.973 42.3448 183.472 42.3448Z" fill="#FFF2A6"/>
<path d="M66.086 61.6974C66.086 62.9483 65.2285 63.5737 63.5136 63.5737C62.4644 63.5737 61.6171 63.4829 60.9714 63.3013C60.5074 63.1803 60.2754 62.8676 60.2754 62.3632C60.2754 61.7175 60.5982 61.425 61.2438 61.4855C61.607 61.5259 62.0105 61.546 62.4543 61.546C63.0394 61.546 63.332 61.1728 63.332 60.4263V46.4747H56.5227C55.5542 46.4747 55.07 46.0107 55.07 45.0826V40.2707C55.07 39.4031 55.5845 38.9693 56.6135 38.9693H64.5425C65.5715 38.9693 66.086 39.4737 66.086 40.4825V61.6974ZM62.6662 54.4038C62.6662 54.6863 62.4846 54.9284 62.1214 55.1301C61.5969 55.3521 61.264 55.2916 61.1227 54.9486C61.0622 54.8275 60.9916 54.656 60.9109 54.4341C58.5302 54.8779 56.3512 55.1604 54.3739 55.2815C54.0108 55.3016 53.7888 55.0595 53.7081 54.5551C53.6274 54.7972 53.4459 54.9889 53.1634 55.1301C52.659 55.3521 52.3261 55.2916 52.1647 54.9486C52.1042 54.8275 52.0336 54.656 51.9529 54.4341C49.5721 54.8779 47.3931 55.1604 45.4159 55.2815C44.9519 55.3218 44.7198 54.999 44.7198 54.313C44.7198 53.8692 44.8913 53.6271 45.2343 53.5867C45.6378 53.5463 46.1624 53.5161 46.808 53.4959C47.1712 53.1327 47.5646 52.7292 47.9883 52.2854C47.605 52.3862 47.3729 52.3358 47.2922 52.134C46.9694 51.1656 46.3642 50.288 45.4764 49.5011C45.3755 49.4204 45.3251 49.3195 45.3251 49.1985C45.3251 48.8555 45.5067 48.684 45.8699 48.684C46.0514 48.684 46.3843 48.8353 46.8686 49.1379C47.4738 48.4116 48.0589 47.6348 48.6238 46.8076C48.7449 46.6664 48.9164 46.5958 49.1383 46.5958C49.4208 46.5958 49.7133 46.7168 50.016 46.959C50.3388 47.1809 50.5002 47.4129 50.5002 47.655C50.5002 47.7357 50.4699 47.8164 50.4094 47.8971C50.0866 48.2401 49.2594 48.9059 47.9278 49.8945C48.4927 50.3586 48.866 50.7419 49.0475 51.0446L49.0778 51.1051C50.0664 49.9752 50.8331 49.0673 51.3778 48.3813C51.4989 48.2199 51.6805 48.1392 51.9226 48.1392C52.205 48.1392 52.4875 48.2603 52.77 48.5024C53.0726 48.7243 53.2239 48.9564 53.2239 49.1985C53.2239 49.3397 53.1735 49.4608 53.0726 49.5616C52.3866 50.3485 50.8734 51.6397 48.5331 53.4354C49.8243 53.395 50.8129 53.3446 51.4989 53.2841C51.0954 52.3762 50.8936 51.9525 50.8936 52.013C50.8936 51.7104 51.0954 51.559 51.4989 51.559C51.6401 51.559 51.7612 51.5994 51.8621 51.6801C52.6691 52.3661 53.2744 53.2034 53.6779 54.192C53.7182 53.7885 53.8897 53.5867 54.1924 53.5867C54.5757 53.5463 55.1003 53.5161 55.7661 53.4959C56.1091 53.1327 56.5025 52.7292 56.9464 52.2854C56.5428 52.3862 56.3108 52.3358 56.2503 52.134C55.9073 51.1656 55.302 50.288 54.4345 49.5011C54.3336 49.4204 54.2832 49.3195 54.2832 49.1985C54.2832 48.8555 54.4647 48.684 54.8279 48.684C54.9893 48.684 55.3222 48.8353 55.8266 49.1379C56.4319 48.4116 57.017 47.6348 57.5819 46.8076C57.7029 46.6664 57.8644 46.5958 58.0661 46.5958C58.3687 46.5958 58.6714 46.7168 58.974 46.959C59.2968 47.1809 59.4582 47.4129 59.4582 47.655C59.4582 47.7357 59.4179 47.8164 59.3372 47.8971C59.0346 48.2401 58.2174 48.9059 56.8858 49.8945C57.4306 50.3586 57.8038 50.7419 58.0056 51.0446L58.0358 51.1051C59.0245 49.9752 59.7911 49.0673 60.3359 48.3813C60.4569 48.2199 60.6284 48.1392 60.8504 48.1392C61.153 48.1392 61.4456 48.2603 61.728 48.5024C62.0307 48.7243 62.182 48.9564 62.182 49.1985C62.182 49.3397 62.1315 49.4608 62.0307 49.5616C61.3447 50.3485 59.8315 51.6397 57.4911 53.4354C58.7824 53.395 59.771 53.3446 60.4569 53.2841C60.0534 52.3762 59.8517 51.9525 59.8517 52.013C59.8517 51.7104 60.0534 51.559 60.4569 51.559C60.578 51.559 60.6991 51.5994 60.8201 51.6801C61.1227 51.9424 61.496 52.3661 61.9399 52.9512C62.4241 53.6371 62.6662 54.1214 62.6662 54.4038ZM61.2438 58.8828C61.2438 59.7706 60.7999 60.2144 59.9122 60.2144H57.0371V62.9987C57.0371 63.5434 56.6034 63.8158 55.7358 63.8158C54.9086 63.8158 54.495 63.5434 54.495 62.9987V56.1591C54.495 55.7152 54.9288 55.4933 55.7963 55.4933C56.6235 55.4933 57.0371 55.7152 57.0371 56.1591V58.8223H58.9135V56.2802C58.9135 55.8161 59.2464 55.5841 59.9122 55.5841C60.7999 55.5841 61.2438 55.8161 61.2438 56.2802V58.8828ZM52.3463 45.1431C52.3463 46.051 51.8318 46.505 50.8028 46.505H44.2961V63.3921C44.2961 63.9772 43.7817 64.2698 42.7527 64.2698C41.8448 64.2698 41.3908 63.9671 41.3908 63.3619V40.5128C41.3908 39.4838 41.9154 38.9693 42.9645 38.9693H50.9239C51.8721 38.9693 52.3463 39.4233 52.3463 40.3312V45.1431ZM52.8608 56.1288C52.8608 57.4201 52.8002 58.3885 52.6792 59.0342C52.4371 60.2447 51.9529 61.2232 51.2265 61.9697C50.5002 62.6961 49.4006 63.3619 47.9278 63.9671C47.8471 64.0075 47.7765 64.0277 47.7159 64.0277C47.5344 64.0277 47.3528 63.9369 47.1712 63.7553C47.0098 63.5737 46.9291 63.4022 46.9291 63.2408C46.9291 63.0794 46.9997 62.9684 47.1409 62.9079C48.5331 62.2219 49.4712 61.3241 49.9554 60.2144H47.5949C46.6466 60.2144 46.1725 59.7807 46.1725 58.9131V56.3407C46.1725 55.8968 46.5457 55.6749 47.2922 55.6749C48.0791 55.6749 48.4725 55.8968 48.4725 56.3407V58.8223H50.4094C50.4901 58.3583 50.5305 57.4604 50.5305 56.1288C50.5305 55.685 50.9138 55.463 51.6805 55.463C52.4673 55.463 52.8608 55.685 52.8608 56.1288ZM63.332 41.9654V40.4523H57.8543V41.9654H63.332ZM63.332 44.9313V43.4181H57.8543V44.9313H63.332ZM49.6528 41.9654V40.4523H44.2961V41.9654H49.6528ZM49.6528 44.9616V43.4181H44.2961V44.9616H49.6528ZM98.6194 47.655C98.801 47.8164 98.8918 48.0182 98.8918 48.2603C98.8918 48.6033 98.7607 48.9261 98.4984 49.2287C98.115 49.6928 97.6006 49.9248 96.9549 49.9248C96.7733 49.9248 96.6321 49.8744 96.5312 49.7735C95.4821 48.8252 94.4632 47.5239 93.4746 45.8695C92.5062 44.1949 91.7294 42.4799 91.1443 40.7246C90.7206 42.4799 89.7724 44.3058 88.2995 46.2024C87.0688 47.8164 85.8078 49.0774 84.5166 49.9853C84.3955 50.066 84.2644 50.1064 84.1231 50.1064C83.9214 50.1064 83.7297 50.0257 83.5481 49.8643C83.3867 49.6827 83.306 49.491 83.306 49.2893C83.306 49.1279 83.3665 48.9866 83.4876 48.8656C86.3324 46.0208 88.0574 42.5304 88.6627 38.3943C88.7636 37.8899 89.3386 37.6377 90.3877 37.6377C91.3158 37.6377 91.8505 37.8496 91.9917 38.2733C93.0408 41.5821 95.2501 44.7094 98.6194 47.655ZM94.7457 52.0735C94.8264 52.2147 94.8667 52.3762 94.8667 52.5577C94.8667 52.9209 94.6448 53.2639 94.2009 53.5867C93.7571 53.9095 93.3233 54.0709 92.8996 54.0709C92.6171 54.0709 92.4255 54.0003 92.3246 53.8591C91.0535 51.9222 89.7219 50.4191 88.3298 49.3498C88.2087 49.2489 88.1482 49.1279 88.1482 48.9866C88.1482 48.7849 88.2289 48.5932 88.3903 48.4116C88.5719 48.2099 88.7737 48.109 88.9956 48.109C89.0763 48.109 89.157 48.1292 89.2377 48.1695C90.9526 48.9967 91.9412 49.491 92.2035 49.6524C93.3737 50.3384 94.2211 51.1454 94.7457 52.0735ZM95.8352 61.0921C95.9966 61.2938 96.0773 61.536 96.0773 61.8184C96.0773 62.3228 95.8755 62.7364 95.472 63.0592C95.0887 63.382 94.6246 63.5434 94.0799 63.5434C93.7571 63.5434 93.5452 63.4829 93.4443 63.3619C90.9627 60.5171 88.2289 58.1162 85.2429 56.1591C85.1218 56.0986 85.0613 55.9674 85.0613 55.7657C85.0613 55.5639 85.142 55.3622 85.3034 55.1604C85.4648 54.9587 85.6666 54.8578 85.9087 54.8578C86.0297 54.8578 86.1508 54.888 86.2719 54.9486C87.7649 55.5135 89.5605 56.4718 91.6588 57.8236C93.6562 59.135 95.0483 60.2245 95.8352 61.0921ZM83.9718 42.5405C84.3552 42.8229 84.5468 43.1558 84.5468 43.5392C84.5468 44.0436 84.2644 44.2958 83.6994 44.2958H77.223C77.2432 45.93 77.2331 47.2616 77.1928 48.2906H81.5507C82.0551 48.2906 82.4385 48.4419 82.7007 48.7445C82.963 49.0471 83.1043 49.37 83.1244 49.7129C83.1446 51.327 83.0841 53.3849 82.9429 55.8867C82.7613 58.7113 82.5494 60.5272 82.3073 61.3342C81.7424 63.1097 80.5823 63.9369 78.827 63.8158C77.7375 63.7553 76.7388 63.5838 75.8309 63.3013C75.5283 63.2005 75.3769 62.9382 75.3769 62.5145C75.3769 62.232 75.4576 62 75.619 61.8184C75.8006 61.6167 76.0326 61.546 76.3151 61.6066C76.7792 61.6873 77.3642 61.7276 78.0704 61.7276C78.8774 61.7276 79.402 61.2232 79.6441 60.2144C80.0275 58.56 80.2191 55.1705 80.2191 50.0458H77.0414C76.8599 53.7985 76.2949 56.7846 75.3467 59.0039C74.6607 60.6381 73.5712 62.2018 72.0782 63.6948C71.937 63.7956 71.7856 63.8461 71.6242 63.8461C71.4427 63.8461 71.2611 63.7654 71.0795 63.604C70.9181 63.4426 70.8374 63.261 70.8374 63.0592C70.8374 62.918 70.8878 62.7869 70.9887 62.6658C71.715 61.6167 72.28 60.5373 72.6835 59.4276C73.1677 58.1162 73.5914 56.3104 73.9545 54.0104C73.9949 53.8086 74.1059 52.0937 74.2874 48.8656C74.3278 48.0787 74.348 46.5554 74.348 44.2958H71.4124C70.9685 44.2958 70.7466 44.0133 70.7466 43.4484C70.7466 42.8834 70.9786 42.601 71.4427 42.601H76.3454V38.5457C76.3454 37.9807 76.8195 37.6983 77.7678 37.6983C78.7362 37.6983 79.2204 37.9908 79.2204 38.5759V42.601H81.9139L82.8521 41.6023L83.9718 42.5405ZM127.158 43.7813C127.158 44.1444 126.946 44.4773 126.523 44.78C126.119 45.0826 125.705 45.2339 125.282 45.2339C124.898 45.2339 124.646 45.1028 124.525 44.8405C123.799 43.3475 122.931 42.0462 121.922 40.9365C121.822 40.8356 121.771 40.6944 121.771 40.5128C121.771 40.0286 122.023 39.7865 122.528 39.7865C122.669 39.7865 122.82 39.8268 122.982 39.9075C123.89 40.3312 124.737 40.8558 125.524 41.4812C126.613 42.3488 127.158 43.1155 127.158 43.7813ZM128.429 57.4302C128.49 58.1363 128.379 59.7706 128.096 62.3329C127.915 63.2812 127.188 63.7553 125.917 63.7553C124.989 63.7553 124.192 63.4527 123.526 62.8474C122.558 61.9596 121.68 60.8096 120.893 59.3973C118.936 60.9509 116.727 62.2925 114.266 63.4224C114.225 63.4426 114.165 63.4527 114.084 63.4527C113.882 63.4527 113.671 63.3417 113.449 63.1198C113.247 62.8978 113.146 62.6658 113.146 62.4237C113.146 62.2421 113.227 62.111 113.388 62.0303C115.648 60.739 117.766 59.0846 119.743 57.067C118.735 55.0091 118.039 52.1845 117.655 48.5932H111.845V52.4367C111.885 52.4165 112.642 52.2349 114.114 51.8919C115.325 51.6095 116.021 51.4682 116.203 51.4682C116.727 51.4682 116.989 51.7305 116.989 52.2551C116.989 52.5981 116.798 52.8503 116.414 53.0117C115.648 53.3345 114.125 53.8187 111.845 54.4643V61.6974C111.845 62.343 111.592 62.8272 111.088 63.15C110.604 63.493 109.968 63.6645 109.181 63.6645C107.527 63.6645 106.306 63.5132 105.52 63.2105C105.217 63.1097 105.066 62.8575 105.066 62.454C105.066 62.1917 105.126 61.9596 105.247 61.7579C105.388 61.5561 105.57 61.4653 105.792 61.4855C106.801 61.5864 107.446 61.6368 107.729 61.6368C108.495 61.5965 108.879 61.2031 108.879 60.4566V55.2209C106.195 55.9271 104.44 56.3205 103.613 56.4012C103.33 56.4214 103.098 56.26 102.917 55.917C102.755 55.5538 102.675 55.1503 102.675 54.7065C102.675 54.0608 102.856 53.7279 103.22 53.7078C104.107 53.6876 105.994 53.4253 108.879 52.9209V48.5932H103.098C102.655 48.5932 102.433 48.3107 102.433 47.7458C102.433 47.1809 102.665 46.8984 103.129 46.8984H108.879V42.7523C107.386 42.9339 105.792 43.0852 104.097 43.2063C103.532 43.287 103.25 43.0045 103.25 42.3589C103.25 41.9957 103.401 41.7839 103.704 41.7233C107.88 41.0172 111.35 40.1698 114.114 39.1812C114.215 39.1408 114.326 39.1207 114.447 39.1207C114.831 39.1207 115.164 39.3123 115.446 39.6957C115.749 40.079 115.9 40.4624 115.9 40.8457C115.9 41.1685 115.779 41.3602 115.537 41.4207C114.508 41.7637 113.277 42.0663 111.845 42.3286V46.8984H117.504C117.343 44.8405 117.242 42.1975 117.201 38.9693C117.181 38.3641 117.564 38.0614 118.351 38.0614C118.755 38.0614 119.138 38.1421 119.501 38.3035C119.965 38.4851 120.208 38.7071 120.228 38.9693L120.47 46.8984H125.917L126.916 45.8392L128.187 46.8379C128.57 47.1405 128.762 47.4633 128.762 47.8063C128.762 48.3309 128.459 48.5932 127.854 48.5932H120.621C120.964 51.2362 121.388 53.2437 121.892 54.6157C122.881 53.2841 123.688 51.9121 124.313 50.4998C124.414 50.2779 124.656 50.1669 125.04 50.1669C125.483 50.1669 125.948 50.3283 126.432 50.6511C126.936 50.9739 127.188 51.3068 127.188 51.6498C127.188 51.7709 127.158 51.8818 127.098 51.9827C126.089 53.8792 124.747 55.6648 123.072 57.3394C123.617 58.5298 124.162 59.4074 124.707 59.9723C125.11 60.396 125.453 60.6079 125.736 60.6079C126.079 60.6079 126.28 60.3153 126.341 59.7302C126.422 59.1451 126.502 58.2473 126.583 57.0368C126.603 56.7139 126.866 56.5525 127.37 56.5525C128.016 56.5525 128.369 56.8451 128.429 57.4302ZM159.147 61.7882C159.147 63.0996 158.37 63.7553 156.816 63.7553C155.424 63.7553 154.295 63.6443 153.427 63.4224C153.044 63.3215 152.852 63.029 152.852 62.5447C152.852 61.8789 153.165 61.5864 153.79 61.6671C154.456 61.768 154.95 61.8083 155.273 61.7882C156.02 61.7478 156.393 61.3746 156.393 60.6684V49.4406H152.428C151.44 49.4406 150.945 48.9664 150.945 48.0182V40.422C150.945 39.5141 151.43 39.0601 152.398 39.0601H157.664C158.652 39.0601 159.147 39.5645 159.147 40.5733V61.7882ZM149.523 48.0787C149.523 48.9866 149.019 49.4406 148.01 49.4406H144.015V63.15C144.015 63.7351 143.541 64.0277 142.593 64.0277C141.745 64.0277 141.321 63.725 141.321 63.1198V40.5431C141.321 39.5544 141.826 39.0601 142.835 39.0601H148.04C149.029 39.0601 149.523 39.504 149.523 40.3917V48.0787ZM141.11 39.5444C140.726 41.5014 139.808 44.0133 138.356 47.08C138.88 47.2414 139.142 47.5037 139.142 47.8669V63.4527C139.142 63.6948 138.991 63.8965 138.689 64.0579C138.406 64.2395 138.093 64.3303 137.75 64.3303C137.448 64.3303 137.145 64.2496 136.842 64.0882C136.56 63.947 136.419 63.7452 136.419 63.4829V50.5906C135.955 51.2564 135.269 52.2248 134.361 53.4959C134.199 53.7582 133.988 53.8893 133.725 53.8893C133.524 53.8893 133.342 53.7985 133.181 53.617C133.019 53.4354 132.938 53.2336 132.938 53.0117C132.938 52.8503 132.979 52.6889 133.059 52.5275C134.21 50.7318 135.259 48.5528 136.207 45.9905C137.155 43.4282 137.811 41.0475 138.174 38.8483C138.235 38.4448 138.608 38.243 139.294 38.243C139.778 38.243 140.222 38.3641 140.625 38.6062C141.029 38.8483 141.19 39.161 141.11 39.5444ZM156.393 43.4786V40.6641H153.609V43.4786H156.393ZM156.393 47.7761V44.9918H153.609V47.7761H156.393ZM146.89 43.4484V40.6641H144.015V43.4484H146.89ZM146.89 47.7761V44.9313H144.015V47.7761H146.89Z" fill="#E86E2A"/>
</g>
<defs>
<clipPath id="clip0_56_92">
<rect width="520" height="92" fill="white"/>
</clipPath>
</defs>
</svg>
