<svg width="20" height="20" viewBox="0 0 20 20" fill="none" xmlns="http://www.w3.org/2000/svg">
<path d="M10 0C8.0222 0 6.08882 0.586491 4.44433 1.68531C2.79983 2.78412 1.51809 4.34591 0.761215 6.17317C0.00433832 8.00043 -0.193702 10.0111 0.19215 11.9509C0.578002 13.8907 1.53048 15.6725 2.92901 17.0711C4.32753 18.4696 6.10935 19.422 8.04916 19.8078C9.98897 20.1937 11.9997 19.9957 13.8269 19.2388C15.6542 18.4819 17.2159 17.2002 18.3148 15.5557C19.4136 13.9112 20 11.9778 20 10C20 7.34784 18.9465 4.8043 17.0711 2.92893C15.1958 1.05357 12.6522 0 10 0ZM15.2297 12.7077C13.6943 14.2681 11.931 15.5864 10 16.6178C9.29621 16.911 9.40377 16.4223 9.42332 16.2561C9.44287 16.0899 9.52104 15.6891 9.52104 15.6891C9.56474 15.4895 9.56474 15.2827 9.52104 15.0831C9.44284 14.9071 9.14961 14.8094 8.93456 14.7605C5.73808 14.3402 3.37242 12.1017 3.37242 9.43304C3.37242 6.50049 6.30502 4.04692 10.0196 4.04692C13.7342 4.04692 16.6668 6.46139 16.6668 9.43304C16.6432 10.6828 16.1349 11.8745 15.2493 12.7566L15.2297 12.7077Z" fill="#3A7752"/>
<path d="M8.65127 7.95697H8.18183C8.11161 7.95697 8.05469 8.01386 8.05469 8.08405V10.9873C8.05469 11.0575 8.11161 11.1143 8.18183 11.1143H8.65127C8.72148 11.1143 8.7784 11.0575 8.7784 10.9873V8.08405C8.7784 8.01386 8.72148 7.95697 8.65127 7.95697Z" fill="#3A7752"/>
<path d="M11.8677 7.95697H11.3986C11.381 7.95692 11.3636 7.9605 11.3475 7.96749C11.3314 7.97447 11.3169 7.98472 11.305 7.99758C11.2931 8.01043 11.2839 8.02562 11.2782 8.04218C11.2724 8.05875 11.2701 8.07633 11.2715 8.09382V9.81425L9.94207 8.01562H9.36524C9.3477 8.01557 9.33038 8.01915 9.31429 8.02614C9.2982 8.03313 9.28375 8.04337 9.27181 8.05623C9.25987 8.06908 9.25074 8.08427 9.24496 8.10084C9.23918 8.1174 9.23681 8.13498 9.23816 8.15247V11.085C9.23816 11.1017 9.24156 11.1182 9.24795 11.1337C9.25433 11.1491 9.26359 11.1631 9.27539 11.1749C9.28719 11.1867 9.30126 11.196 9.31668 11.2024C9.3321 11.2088 9.34856 11.2121 9.36524 11.2121H9.83455C9.85124 11.2121 9.8677 11.2088 9.88312 11.2024C9.89854 11.196 9.9126 11.1867 9.9244 11.1749C9.9362 11.1631 9.94546 11.1491 9.95185 11.1337C9.95824 11.1182 9.96163 11.1017 9.96163 11.085V9.26684L11.291 11.0655H11.8384C11.8721 11.0655 11.9044 11.0521 11.9282 11.0283C11.9521 11.0044 11.9655 10.9721 11.9655 10.9384V8.00585C11.9538 7.99094 11.9391 7.97882 11.9222 7.97036C11.9052 7.96191 11.8866 7.95733 11.8677 7.95697V7.95697Z" fill="#3A7752"/>
<path d="M7.52742 10.391H6.2665V8.09382C6.2665 8.05753 6.25207 8.02272 6.22641 7.99705C6.20074 7.97139 6.16593 7.95697 6.12964 7.95697H5.67023C5.63394 7.95697 5.59912 7.97139 5.57346 7.99705C5.54779 8.02272 5.53337 8.05753 5.53337 8.09382V11.0264C5.52436 11.055 5.52436 11.0857 5.53337 11.1143V11.1143C5.54701 11.1212 5.562 11.1248 5.57728 11.1248C5.59256 11.1248 5.60766 11.1212 5.62131 11.1143H7.47861C7.4953 11.1143 7.51176 11.1111 7.52718 11.1047C7.5426 11.0983 7.55667 11.0889 7.56847 11.0771C7.58027 11.0653 7.58965 11.0513 7.59603 11.0359C7.60242 11.0205 7.6057 11.004 7.6057 10.9873V10.5181C7.60773 10.4913 7.60125 10.4647 7.5872 10.4418C7.57316 10.419 7.55219 10.4012 7.52742 10.391V10.391Z" fill="#3A7752"/>
<path d="M14.4382 7.957H12.5711C12.5423 7.94955 12.5121 7.94955 12.4832 7.957V7.957C12.4727 7.98539 12.4727 8.01659 12.4832 8.04498V8.04498V10.9775C12.4742 11.0062 12.4742 11.0369 12.4832 11.0655V11.0655C12.5114 11.0769 12.5429 11.0769 12.5711 11.0655H14.4382C14.4719 11.0655 14.5043 11.0521 14.5281 11.0283C14.5519 11.0045 14.5653 10.9721 14.5653 10.9384V10.4692C14.5653 10.4355 14.5519 10.4032 14.5281 10.3794C14.5043 10.3555 14.4719 10.3421 14.4382 10.3421H13.1674V9.85338H14.4382C14.4719 9.85338 14.5043 9.83999 14.5281 9.81616C14.5519 9.79233 14.5653 9.76001 14.5653 9.72631V9.2571C14.5653 9.2234 14.5519 9.19107 14.5281 9.16724C14.5043 9.14341 14.4719 9.13002 14.4382 9.13002H13.1674V8.69991H14.4382C14.4558 8.69997 14.4731 8.69638 14.4892 8.68939C14.5053 8.68241 14.5197 8.67216 14.5317 8.65931C14.5436 8.64645 14.5529 8.63127 14.5586 8.6147C14.5644 8.59814 14.5667 8.58055 14.5653 8.56306V8.10363C14.5682 8.08538 14.567 8.06673 14.5619 8.04898C14.5568 8.03123 14.5478 8.0148 14.5357 8.00084C14.5236 7.98689 14.5087 7.97573 14.4918 7.96816C14.475 7.96059 14.4567 7.95678 14.4382 7.957V7.957Z" fill="#3A7752"/>
</svg>
