<svg width="520" height="92" viewBox="0 0 520 92" fill="none" xmlns="http://www.w3.org/2000/svg">
<g clip-path="url(#clip0_161_69)">
<path d="M257.379 89.3204L254.645 80.8241L261.008 81.1668L257.379 89.3204Z" fill="#FFF2A6"/>
<path d="M291.615 91.1567L288.67 82.7219L295.042 82.9065L291.615 91.1567Z" fill="#3A7752"/>
<path d="M322.353 91.8596L319.408 83.4248L325.78 83.6181L322.353 91.8596Z" fill="#E86E2A"/>
<path d="M354.336 92.3692L351.154 84.0311H357.526L354.336 92.3692Z" fill="#FFF2A6"/>
<path d="M385.478 92.3692L382.296 84.0311H388.668L385.478 92.3692Z" fill="#3A7752"/>
<path d="M417.907 91.965L414.717 83.6269H421.089L417.907 91.965Z" fill="#E86E2A"/>
<path d="M450.495 91.104L446.901 82.9328L453.265 82.6165L450.495 91.104Z" fill="#FFF2A6"/>
<path d="M480.155 90.199L476.562 82.0278L482.925 81.7115L480.155 90.199Z" fill="#3A7752"/>
<path d="M515.346 87.8531L511.752 79.6819L518.124 79.3656L515.346 87.8531Z" fill="#E86E2A"/>
<path d="M519.939 79.2075C519.939 79.2075 204.291 103.809 0.0615234 41.7344" stroke="#EAEAEA" stroke-width="0.5" stroke-miterlimit="10"/>
<path d="M18.2134 73.9358L16.2939 65.2111L22.5959 66.16L18.2134 73.9358Z" fill="#FFF2A6"/>
<path d="M49.2495 77.9335L46.9531 69.3054L53.2901 69.982L49.2495 77.9335Z" fill="#3A7752"/>
<path d="M84.6596 81.4831L81.9951 72.9605L88.3584 73.3559L84.6596 81.4831Z" fill="#E86E2A"/>
<path d="M115.162 83.1613L112.497 74.6386L118.86 75.034L115.162 83.1613Z" fill="#FFF2A6"/>
<path d="M146.241 83.7939L143.051 75.4558H149.432L146.241 83.7939Z" fill="#3A7752"/>
<path d="M177.847 83.3809L174.385 75.1483L180.757 74.9374L177.847 83.3809Z" fill="#E86E2A"/>
<path d="M209.156 81.9927L205.422 73.883L211.776 73.4613L209.156 81.9927Z" fill="#FFF2A6"/>
<path d="M240.902 79.6643L237.133 71.5723L243.487 71.1154L240.902 79.6643Z" fill="#3A7752"/>
<path d="M272.13 76.5804L268.099 68.6113L274.444 67.9524L272.13 76.5804Z" fill="#E86E2A"/>
<path d="M303.114 72.5651L299.091 64.6048L305.428 63.9459L303.114 72.5651Z" fill="#FFF2A6"/>
<path d="M335.378 67.6009L330.741 59.9745L337.017 58.8235L335.378 67.6009Z" fill="#3A7752"/>
<path d="M367.851 62.1271L363.215 54.5095L369.49 53.3497L367.851 62.1271Z" fill="#E86E2A"/>
<path d="M396.197 56.6621L391.561 49.0357L397.827 47.8847L396.197 56.6621Z" fill="#FFF2A6"/>
<path d="M428.092 50.011L423.069 42.6306L429.275 41.1633L428.092 50.011Z" fill="#3A7752"/>
<path d="M488.044 35.9443L483.021 28.5727L489.218 27.0878L488.044 35.9443Z" fill="#FFF2A6"/>
<path d="M514.329 29.3283L509.307 21.9567L515.503 20.4806L514.329 29.3283Z" fill="#326028"/>
<path d="M459.286 43.105L454.264 35.7334L460.46 34.2486L459.286 43.105Z" fill="#E86E2A"/>
<path d="M519.938 18.9957C205.737 103.299 61.1168 70.2368 0.9375 62.9882" stroke="#EAEAEA" stroke-width="0.5" stroke-miterlimit="10"/>
<path d="M76.8694 29.2077C94.8566 29.2077 111.752 16.8415 111.752 10.7708C111.752 8.45816 109.6 7.20548 105.745 7.20548C97.5226 7.20548 90.4883 10.0963 84.8994 14.3361C82.0407 13.3404 78.8287 12.7944 75.5525 12.7944C67.9722 12.7944 62.6081 16.0706 62.6081 20.7601C62.6081 24.9357 66.8158 28.0514 73.1114 28.9507C71.4732 32.516 70.606 35.985 70.606 38.94C70.606 44.2398 73.3362 47.3555 78.0257 47.3555C88.4326 47.3555 95.6596 39.3255 95.6596 34.7966C95.6596 31.2955 91.9658 30.4604 86.3127 32.6766L86.6018 33.4796C91.741 31.4561 94.8245 32.0021 94.8245 34.7966C94.8245 39.0043 88.0472 46.5204 78.0257 46.5204C73.818 46.5204 71.4411 43.7902 71.4411 38.94C71.4411 36.0171 72.3084 32.5803 73.9465 29.0471C74.878 29.1434 75.8416 29.2077 76.8694 29.2077ZM105.745 8.0406C109.15 8.0406 110.917 9.0042 110.917 10.7708C110.917 16.4239 94.5675 28.3726 76.8694 28.3726C76.0022 28.3726 75.1349 28.3404 74.3319 28.2441C76.6124 23.6188 80.242 18.9614 84.9958 15.2676C88.0472 16.3918 90.6489 18.0299 92.3834 20.0856L93.0258 19.5717C91.2913 17.516 88.7538 15.8458 85.7666 14.6573C91.1628 10.7066 97.908 8.0406 105.745 8.0406ZM63.4432 20.7601C63.4432 16.6166 68.4218 13.6295 75.5525 13.6295C78.5396 13.6295 81.4626 14.1113 84.0964 14.9464C79.3748 18.7366 75.7773 23.4903 73.4968 28.1477C67.4582 27.3768 63.4432 24.486 63.4432 20.7601ZM141.629 36.9486C138.384 38.4904 134.402 40 130.644 40C128.267 40 127.142 39.4861 127.142 38.5225C127.142 37.7195 127.689 36.788 128.17 36.0171C128.524 35.439 128.748 35.0535 128.748 34.7966C128.748 34.636 128.074 34.2184 128.074 34.2184C127.271 34.2184 125.44 35.3747 123.963 36.4347C124.541 35.4711 125.055 34.5075 125.055 34.0578C125.055 33.576 124.637 33.319 124.22 33.4796C120.654 34.7966 118.181 35.1178 114.551 34.7323C113.363 34.6038 111.789 34.2826 110.247 33.9614C106.65 33.2548 104.658 32.8694 104.145 33.6402C103.823 34.122 104.241 34.4111 104.819 34.2826C104.883 34.2826 104.915 34.2826 104.948 34.2505C105.108 34.2184 105.269 34.2184 105.397 34.2184C107.26 34.2184 104.402 39.5182 101.703 39.5182C101.414 39.5182 101.318 39.3897 101.318 39.0043C101.318 38.1049 102.153 36.7559 103.149 36.0814L102.699 35.3747C101.479 36.2098 100.483 37.848 100.483 39.0043C100.483 39.8394 100.933 40.3533 101.703 40.3533C104.498 40.3533 107.389 36.0171 106.746 34.1863C107.549 34.3148 108.641 34.5075 110.055 34.7966C111.629 35.1178 113.235 35.439 114.455 35.5674C118.085 35.9529 120.622 35.6317 124.123 34.379C123.77 35.2784 122.485 37.3662 121.843 37.9764C121.778 38.0728 121.714 38.1049 121.714 38.1049L122.228 38.7473C122.228 38.7473 126.211 35.5674 127.753 35.1178C127.689 35.2462 127.592 35.3747 127.464 35.5996C126.982 36.3704 126.307 37.4946 126.307 38.5225C126.307 40.0964 127.817 40.8351 130.644 40.8351C134.562 40.8351 138.706 39.2612 141.982 37.7195L141.629 36.9486ZM124.509 34.2505H124.477H124.509ZM144.2 42.3448C139.061 42.3448 141.631 37.1092 146.417 31.8736C147.445 30.7494 148.569 29.5931 149.757 28.501C150.592 28.4047 151.46 28.3083 152.327 28.1798C153.869 27.9871 155.346 27.7944 156.502 27.7944C157.819 27.7944 158.397 28.0192 158.397 28.4689H159.233C159.233 27.4411 158.301 26.9593 156.502 26.9593C155.282 26.9593 153.74 27.152 152.198 27.3447L150.817 27.5374C151.973 26.4775 153.194 25.4496 154.415 24.5182L153.901 23.8758C152.359 25.0642 150.817 26.349 149.372 27.698C148.826 27.7302 148.312 27.7623 147.83 27.7623C146.288 27.7623 145.646 27.4732 145.646 26.895H144.811C144.811 28.0514 145.839 28.5974 147.83 28.5974H148.408C147.477 29.4968 146.609 30.3961 145.774 31.2955C139.479 38.2013 138.772 43.1799 144.2 43.1799C147.894 43.1799 158.751 37.7195 158.751 37.7195L158.365 36.9486C158.365 36.9486 147.702 42.3448 144.2 42.3448ZM175.909 36.9486C170.802 39.1006 166.884 40.3533 165.278 40.3533C164.282 40.3533 163.864 40.0642 163.864 39.4218C163.864 38.2013 165.117 36.0814 165.47 35.5353L165.213 35.3747L164.828 34.9893L163.8 36.0171C163.479 35.2462 162.676 34.7644 161.744 34.7644C159.817 34.7644 157.665 37.0128 157.665 38.94C157.665 39.743 158.051 40.4497 158.693 40.4497C159.978 40.4497 162.034 38.8116 163.543 37.3983C163.254 38.0728 163.029 38.8116 163.029 39.4218C163.029 40.546 163.864 41.1884 165.278 41.1884C167.462 41.1884 172.569 39.2612 176.231 37.7195L175.909 36.9486ZM158.5 38.94C158.5 37.4946 160.299 35.5996 161.744 35.5996C162.451 35.5996 163.029 36.0492 163.126 36.6595C161.68 38.0086 159.753 39.6146 158.693 39.6146C158.629 39.6146 158.5 39.2934 158.5 38.94ZM181.23 37.1092C183.253 35.3426 182.9 33.6081 180.555 33.6081C177.279 33.6081 174.324 37.5268 176.123 39.6467C177.921 41.7987 187.686 40.7066 194.335 37.7195L194.014 36.9486C187.879 39.7109 178.243 40.8994 176.765 39.1328C175.448 37.5589 178.018 34.4432 180.555 34.4432C182.065 34.4432 182.161 35.182 180.684 36.4989L181.23 37.1092ZM196.552 42.3448C191.413 42.3448 193.983 37.1092 198.769 31.8736C199.796 30.7494 200.921 29.5931 202.109 28.501C202.944 28.4047 203.811 28.3083 204.679 28.1798C206.22 27.9871 207.698 27.7944 208.854 27.7944C210.171 27.7944 210.749 28.0192 210.749 28.4689H211.584C211.584 27.4411 210.653 26.9593 208.854 26.9593C207.634 26.9593 206.092 27.152 204.55 27.3447L203.169 27.5374C204.325 26.4775 205.546 25.4496 206.766 24.5182L206.253 23.8758C204.711 25.0642 203.169 26.349 201.724 27.698C201.178 27.7302 200.664 27.7623 200.182 27.7623C198.64 27.7623 197.998 27.4732 197.998 26.895H197.163C197.163 28.0514 198.19 28.5974 200.182 28.5974H200.76C199.829 29.4968 198.961 30.3961 198.126 31.2955C191.831 38.2013 191.124 43.1799 196.552 43.1799C200.246 43.1799 211.103 37.7195 211.103 37.7195L210.717 36.9486C210.717 36.9486 200.053 42.3448 196.552 42.3448Z" fill="#FFF2A6"/>
<path d="M67.1755 49.6222C67.1957 50.066 66.9132 50.3687 66.3281 50.5301C66.1062 50.6108 65.8741 50.6209 65.632 50.5603C65.3294 50.4998 65.1579 50.3687 65.1175 50.1669C65.0772 50.0257 65.0368 49.8643 64.9965 49.6827C63.9272 49.8643 62.0609 50.1266 59.3977 50.4695C58.6916 50.5704 58.3385 50.2577 58.3385 49.5314C58.3385 49.0068 58.5907 48.7243 59.0951 48.684C59.3372 48.684 59.6196 48.6739 59.9425 48.6537C60.4872 47.9072 61.0925 47.0397 61.7583 46.051C61.3144 46.1721 61.042 46.1015 60.9412 45.8392C60.2754 44.4874 59.5995 43.4786 58.9135 42.8128C58.7723 42.6918 58.7017 42.5606 58.7017 42.4194C58.7017 41.9755 58.974 41.7536 59.5188 41.7536C59.7004 41.7536 60.0333 41.915 60.5175 42.2378C61.385 40.886 61.9701 39.7158 62.2728 38.7272C62.3938 38.2632 62.7065 38.0312 63.2109 38.0312C63.5136 38.0312 63.8061 38.1421 64.0886 38.3641C64.371 38.5658 64.5123 38.7979 64.5123 39.0601C64.5123 39.1812 64.482 39.3022 64.4215 39.4233C63.8364 40.4724 62.878 41.683 61.5464 43.0549C62.1719 43.6804 62.5653 44.1646 62.7267 44.5076C63.1302 43.8216 63.5237 43.1256 63.907 42.4194C64.5123 41.4308 65.0268 40.9365 65.4504 40.9365C65.8136 40.9365 66.1465 41.0575 66.4492 41.2996C66.772 41.5418 66.9334 41.804 66.9334 42.0865C66.9334 42.2076 66.9031 42.3185 66.8426 42.4194C65.7733 44.094 64.0684 46.1418 61.728 48.5629C62.3736 48.5428 63.332 48.4923 64.6031 48.4116C64.3811 47.8265 64.1491 47.3423 63.907 46.959C63.8465 46.8783 63.8162 46.7975 63.8162 46.7168C63.8162 46.273 64.0684 46.051 64.5728 46.051C64.7544 46.051 64.9259 46.1317 65.0873 46.2932C66.3987 47.6248 67.0948 48.7344 67.1755 49.6222ZM58.278 49.6524C58.3183 50.0963 58.0358 50.3989 57.4306 50.5603C57.2086 50.641 56.9766 50.6511 56.7345 50.5906C56.4319 50.5301 56.2604 50.3989 56.22 50.1972C56.1797 50.0559 56.1393 49.8945 56.099 49.7129C55.0297 49.8945 53.1634 50.1568 50.5002 50.4998C49.794 50.6007 49.441 50.288 49.441 49.5616C49.441 49.0371 49.6932 48.7546 50.1976 48.7142C50.4397 48.6941 50.7221 48.684 51.0449 48.684C51.6099 47.9375 52.2151 47.0699 52.8608 46.0813C52.4169 46.2024 52.1445 46.1418 52.0436 45.8997C51.3778 44.5278 50.712 43.5089 50.0462 42.8431C49.8848 42.722 49.8041 42.5909 49.8041 42.4497C49.8041 42.0058 50.0765 41.7839 50.6212 41.7839C50.7827 41.7839 51.0853 41.9251 51.5292 42.2076C52.4774 40.8356 53.0928 39.6755 53.3752 38.7272C53.4963 38.2834 53.809 38.0614 54.3134 38.0614C54.6362 38.0614 54.9389 38.1724 55.2213 38.3943C55.5038 38.5961 55.645 38.8281 55.645 39.0904C55.645 39.2115 55.6047 39.3325 55.524 39.4536C54.9792 40.4422 53.9805 41.6225 52.5279 42.9944C53.2138 43.6199 53.6476 44.1343 53.8292 44.5379C54.2327 43.8519 54.6261 43.1558 55.0095 42.4497C55.6148 41.4611 56.1393 40.9667 56.5832 40.9667C56.9262 40.9667 57.2591 41.0878 57.5819 41.3299C57.9047 41.572 58.0661 41.8343 58.0661 42.1168C58.0661 42.2378 58.0258 42.3488 57.9451 42.4497C56.8757 44.1243 55.1709 46.1721 52.8305 48.5932C53.4761 48.573 54.4345 48.5327 55.7055 48.4721C55.4836 47.8669 55.2516 47.3726 55.0095 46.9892C54.9691 46.9085 54.949 46.8278 54.949 46.7471C54.949 46.3032 55.1911 46.0813 55.6753 46.0813C55.8569 46.0813 56.0284 46.162 56.1898 46.3234C57.5012 47.655 58.1973 48.7647 58.278 49.6524ZM66.4794 57.0065C66.4794 57.9749 65.9145 58.4592 64.7846 58.4592H62.0307V63.5434C62.0307 64.0075 61.5767 64.2395 60.6688 64.2395C59.7609 64.2395 59.3069 64.0075 59.3069 63.5434V51.7104C59.3069 51.2261 59.7609 50.984 60.6688 50.984C61.5767 50.984 62.0307 51.2261 62.0307 51.7104V56.8249H63.8465V52.1946C63.8465 51.7305 64.2803 51.4985 65.1478 51.4985C66.0355 51.4985 66.4794 51.7305 66.4794 52.1946V57.0065ZM57.7937 51.7104V54.4946C57.7937 56.7341 57.3801 58.6105 56.5529 60.1237C55.7257 61.6368 54.384 62.9684 52.5279 64.1185C52.4472 64.179 52.3362 64.2092 52.195 64.2092C51.973 64.2092 51.741 64.1084 51.4989 63.9066C51.2568 63.7049 51.1357 63.5132 51.1357 63.3316C51.1357 63.2307 51.1862 63.1399 51.2871 63.0592C52.6792 61.9697 53.688 60.6684 54.3134 59.1552C54.3941 58.9333 54.4748 58.7013 54.5555 58.4592H52.2555C51.2265 58.4592 50.712 58.0657 50.712 57.2789V52.4972C50.712 51.8919 51.1357 51.5893 51.9831 51.5893C52.9112 51.5893 53.3752 51.8919 53.3752 52.4972V56.8854H54.949C55.1305 55.9574 55.2213 54.9687 55.2213 53.9196V51.7104C55.2213 51.1656 55.6551 50.8932 56.5227 50.8932C57.37 50.8932 57.7937 51.1656 57.7937 51.7104ZM50.1068 39.3628C50.4699 39.6654 50.6515 39.9781 50.6515 40.3009C50.6515 40.7852 50.359 41.0273 49.7739 41.0273H49.1686V63.15C49.1686 63.4123 49.0173 63.6242 48.7146 63.7856C48.412 63.9671 48.1094 64.068 47.8067 64.0882C47.4839 64.0882 47.1813 63.9974 46.8988 63.8158C46.6164 63.6544 46.4751 63.4224 46.4751 63.1198V58.2776C44.4575 58.9837 42.5711 59.5285 40.8158 59.9118C40.5737 59.9723 40.3619 59.8513 40.1803 59.5486C39.9987 59.2258 39.9079 58.8526 39.9079 58.4289C39.9079 57.8236 40.0996 57.4806 40.4829 57.3999C40.7452 57.3596 41.068 57.3192 41.4514 57.2789V41.0273H40.8158C40.3921 41.0273 40.1803 40.7549 40.1803 40.2102C40.1803 39.7259 40.4022 39.4838 40.8461 39.4838H48.0488L48.987 38.5759L50.1068 39.3628ZM46.4751 45.2037V41.0273H44.2054V45.2037H46.4751ZM46.4751 50.9538V46.6866H44.2054V50.9538H46.4751ZM46.4751 56.5828V52.4972H44.2054V56.9157C45.1334 56.7946 45.89 56.6837 46.4751 56.5828ZM97.3786 54.0407C97.2979 54.0407 97.2172 54.0205 97.1365 53.9801C94.3321 52.931 92.1127 51.8011 90.4785 50.5906C88.6022 51.902 86.0297 53.0218 82.7613 53.9499C82.5393 54.0104 82.3376 53.9398 82.156 53.738C81.9946 53.5363 81.9139 53.3143 81.9139 53.0722C81.6516 53.1529 81.3591 53.1731 81.0362 53.1327C80.6529 53.0722 80.4411 52.931 80.4007 52.7091C80.3402 52.3862 80.2696 52.0735 80.1889 51.7709C79.6643 51.8516 79.0388 51.9323 78.3125 52.013V63.3619C78.3125 63.8663 77.8586 64.1185 76.9506 64.1185C76.1033 64.1185 75.6796 63.8663 75.6796 63.3619V52.3459C74.2874 52.5073 73.0769 52.6283 72.0479 52.7091C71.5234 52.7494 71.2611 52.3459 71.2611 51.4985C71.2611 50.8932 71.4427 50.6007 71.8058 50.6209C72.2699 50.6209 72.8247 50.6209 73.4703 50.6209C74.0756 49.7735 74.7212 48.8454 75.4072 47.8366C74.8423 48.0787 74.4791 48.0384 74.3177 47.7155C73.6317 46.4646 73.1677 45.6677 72.9256 45.3247C72.3405 44.3765 71.8462 43.7107 71.4427 43.3273C71.3418 43.2063 71.2913 43.0852 71.2913 42.9642C71.2913 42.7624 71.372 42.5707 71.5334 42.3891C71.715 42.2076 71.9168 42.1168 72.1387 42.1168C72.3001 42.1168 72.7541 42.4194 73.5006 43.0247C74.1866 41.8343 74.9129 40.2707 75.6796 38.3338C75.8006 38.0513 76.073 37.9101 76.4967 37.9101C76.9406 37.9101 77.3743 38.0312 77.798 38.2733C78.2217 38.4952 78.4336 38.7474 78.4336 39.0299C78.4336 39.1106 78.4033 39.1812 78.3428 39.2417C77.4752 40.7549 76.2445 42.369 74.6506 44.0839C75.6594 45.0523 76.2647 45.7787 76.4664 46.2629C77.7173 44.326 78.6151 42.7523 79.1599 41.5418C79.2809 41.2795 79.5331 41.1483 79.9165 41.1483C80.32 41.1483 80.7336 41.2996 81.1573 41.6023C81.581 41.8847 81.7928 42.1874 81.7928 42.5102C81.7928 42.6111 81.7626 42.7019 81.702 42.7826C80.431 44.8607 78.3629 47.4533 75.498 50.5603C77.0313 50.52 78.4537 50.4494 79.7652 50.3485C79.4424 49.5213 79.1195 48.8454 78.7967 48.3208C78.7362 48.2401 78.7059 48.1594 78.7059 48.0787C78.7059 47.9173 78.7866 47.766 78.948 47.6248C79.1095 47.4835 79.2809 47.4129 79.4625 47.4129C79.6441 47.4129 79.7753 47.4633 79.856 47.5642C81.3288 49.1783 82.2569 50.6209 82.6402 51.8919C82.7007 52.0533 82.7007 52.2248 82.6402 52.4064C84.7587 51.6801 86.7561 50.5603 88.6324 49.0471C87.4017 47.8164 86.4131 46.3839 85.6666 44.7497C84.6376 46.0611 83.6187 47.0598 82.61 47.7458C82.4889 47.8265 82.3477 47.8669 82.1863 47.8669C81.924 47.8669 81.692 47.766 81.4902 47.5642C81.2884 47.3625 81.1876 47.1506 81.1876 46.9287C81.1876 46.8076 81.2279 46.7068 81.3086 46.6261C82.1156 45.8796 83.0236 44.5984 84.0323 42.7826C84.9806 41.0475 85.6061 39.5948 85.9087 38.4246C86.0096 37.9807 86.3929 37.7588 87.0587 37.7588C87.5228 37.7588 87.9464 37.8698 88.3298 38.0917C88.7333 38.3136 88.9351 38.5658 88.9351 38.8483C88.9351 39.0702 88.6929 39.6755 88.2087 40.6641H95.4417C95.8251 40.6641 96.158 40.8457 96.4404 41.2089C96.7431 41.572 96.8944 41.9453 96.8944 42.3286C96.8944 42.4295 96.8742 42.5304 96.8339 42.6313C95.8453 45.1532 94.3623 47.3019 92.3851 49.0774C93.8983 49.8844 95.8352 50.6108 98.1957 51.2564C98.5589 51.3573 98.7405 51.6599 98.7405 52.1643C98.7405 52.5678 98.6093 52.9814 98.3471 53.4051C98.0848 53.8288 97.762 54.0407 97.3786 54.0407ZM96.6523 61.9697C96.6523 62.3934 96.4707 62.7364 96.1075 62.9987C95.7444 63.261 95.351 63.3921 94.9273 63.3921H85.6363C85.2328 63.3921 84.8596 63.2509 84.5166 62.9684C84.1937 62.7062 84.0323 62.343 84.0323 61.8789V54.9788C84.0323 54.5753 84.2038 54.2323 84.5468 53.9499C84.8898 53.6674 85.2328 53.5262 85.5758 53.5262H95.0786C95.5225 53.5262 95.8957 53.6674 96.1983 53.9499C96.501 54.2323 96.6523 54.5652 96.6523 54.9486V61.9697ZM82.731 58.4592C82.8319 59.0241 82.5595 59.3973 81.9139 59.5789C81.6516 59.6596 81.3288 59.6697 80.9454 59.6092C80.5621 59.5285 80.3604 59.3771 80.3402 59.1552C80.1788 57.2587 79.8358 55.6749 79.3112 54.4038C79.2709 54.3433 79.2507 54.2828 79.2507 54.2222C79.2507 53.7985 79.5533 53.5867 80.1586 53.5867C80.4007 53.5867 80.5722 53.6674 80.6731 53.8288C81.6819 55.2008 82.3678 56.7442 82.731 58.4592ZM74.8927 54.5551C74.5296 56.8955 73.7528 59.3267 72.5624 61.8487C72.4414 62.111 72.2194 62.2421 71.8966 62.2421C71.3317 62.2421 71.0492 62.0101 71.0492 61.546C71.0492 61.1224 71.2409 59.9824 71.6242 58.1263C72.0479 56.1692 72.29 54.8477 72.3506 54.1617C72.3707 53.7784 72.6936 53.5867 73.319 53.5867C73.7225 53.5867 74.0958 53.6876 74.4388 53.8893C74.7817 54.0709 74.9331 54.2929 74.8927 54.5551ZM93.747 42.2983H87.3311C87.1697 42.5606 86.9982 42.833 86.8166 43.1155C87.5631 44.9111 88.703 46.4243 90.2364 47.655C91.9312 46.0208 93.1014 44.2352 93.747 42.2983ZM93.7167 61.6671V55.1604H86.8469V61.6671H93.7167ZM127.158 43.7813C127.158 44.1444 126.946 44.4773 126.523 44.78C126.119 45.0826 125.705 45.2339 125.282 45.2339C124.898 45.2339 124.646 45.1028 124.525 44.8405C123.799 43.3475 122.931 42.0462 121.922 40.9365C121.822 40.8356 121.771 40.6944 121.771 40.5128C121.771 40.0286 122.023 39.7865 122.528 39.7865C122.669 39.7865 122.82 39.8268 122.982 39.9075C123.89 40.3312 124.737 40.8558 125.524 41.4812C126.613 42.3488 127.158 43.1155 127.158 43.7813ZM128.429 57.4302C128.49 58.1363 128.379 59.7706 128.096 62.3329C127.915 63.2812 127.188 63.7553 125.917 63.7553C124.989 63.7553 124.192 63.4527 123.526 62.8474C122.558 61.9596 121.68 60.8096 120.893 59.3973C118.936 60.9509 116.727 62.2925 114.266 63.4224C114.225 63.4426 114.165 63.4527 114.084 63.4527C113.882 63.4527 113.671 63.3417 113.449 63.1198C113.247 62.8978 113.146 62.6658 113.146 62.4237C113.146 62.2421 113.227 62.111 113.388 62.0303C115.648 60.739 117.766 59.0846 119.743 57.067C118.735 55.0091 118.039 52.1845 117.655 48.5932H111.845V52.4367C111.885 52.4165 112.642 52.2349 114.114 51.8919C115.325 51.6095 116.021 51.4682 116.203 51.4682C116.727 51.4682 116.989 51.7305 116.989 52.2551C116.989 52.5981 116.798 52.8503 116.414 53.0117C115.648 53.3345 114.125 53.8187 111.845 54.4643V61.6974C111.845 62.343 111.592 62.8272 111.088 63.15C110.604 63.493 109.968 63.6645 109.181 63.6645C107.527 63.6645 106.306 63.5132 105.52 63.2105C105.217 63.1097 105.066 62.8575 105.066 62.454C105.066 62.1917 105.126 61.9596 105.247 61.7579C105.388 61.5561 105.57 61.4653 105.792 61.4855C106.801 61.5864 107.446 61.6368 107.729 61.6368C108.495 61.5965 108.879 61.2031 108.879 60.4566V55.2209C106.195 55.9271 104.44 56.3205 103.613 56.4012C103.33 56.4214 103.098 56.26 102.917 55.917C102.755 55.5538 102.675 55.1503 102.675 54.7065C102.675 54.0608 102.856 53.7279 103.22 53.7078C104.107 53.6876 105.994 53.4253 108.879 52.9209V48.5932H103.098C102.655 48.5932 102.433 48.3107 102.433 47.7458C102.433 47.1809 102.665 46.8984 103.129 46.8984H108.879V42.7523C107.386 42.9339 105.792 43.0852 104.097 43.2063C103.532 43.287 103.25 43.0045 103.25 42.3589C103.25 41.9957 103.401 41.7839 103.704 41.7233C107.88 41.0172 111.35 40.1698 114.114 39.1812C114.215 39.1408 114.326 39.1207 114.447 39.1207C114.831 39.1207 115.164 39.3123 115.446 39.6957C115.749 40.079 115.9 40.4624 115.9 40.8457C115.9 41.1685 115.779 41.3602 115.537 41.4207C114.508 41.7637 113.277 42.0663 111.845 42.3286V46.8984H117.504C117.343 44.8405 117.242 42.1975 117.201 38.9693C117.181 38.3641 117.564 38.0614 118.351 38.0614C118.755 38.0614 119.138 38.1421 119.501 38.3035C119.965 38.4851 120.208 38.7071 120.228 38.9693L120.47 46.8984H125.917L126.916 45.8392L128.187 46.8379C128.57 47.1405 128.762 47.4633 128.762 47.8063C128.762 48.3309 128.459 48.5932 127.854 48.5932H120.621C120.964 51.2362 121.388 53.2437 121.892 54.6157C122.881 53.2841 123.688 51.9121 124.313 50.4998C124.414 50.2779 124.656 50.1669 125.04 50.1669C125.483 50.1669 125.948 50.3283 126.432 50.6511C126.936 50.9739 127.188 51.3068 127.188 51.6498C127.188 51.7709 127.158 51.8818 127.098 51.9827C126.089 53.8792 124.747 55.6648 123.072 57.3394C123.617 58.5298 124.162 59.4074 124.707 59.9723C125.11 60.396 125.453 60.6079 125.736 60.6079C126.079 60.6079 126.28 60.3153 126.341 59.7302C126.422 59.1451 126.502 58.2473 126.583 57.0368C126.603 56.7139 126.866 56.5525 127.37 56.5525C128.016 56.5525 128.369 56.8451 128.429 57.4302ZM159.147 61.7882C159.147 63.0996 158.37 63.7553 156.816 63.7553C155.424 63.7553 154.295 63.6443 153.427 63.4224C153.044 63.3215 152.852 63.029 152.852 62.5447C152.852 61.8789 153.165 61.5864 153.79 61.6671C154.456 61.768 154.95 61.8083 155.273 61.7882C156.02 61.7478 156.393 61.3746 156.393 60.6684V49.4406H152.428C151.44 49.4406 150.945 48.9664 150.945 48.0182V40.422C150.945 39.5141 151.43 39.0601 152.398 39.0601H157.664C158.652 39.0601 159.147 39.5645 159.147 40.5733V61.7882ZM149.523 48.0787C149.523 48.9866 149.019 49.4406 148.01 49.4406H144.015V63.15C144.015 63.7351 143.541 64.0277 142.593 64.0277C141.745 64.0277 141.321 63.725 141.321 63.1198V40.5431C141.321 39.5544 141.826 39.0601 142.835 39.0601H148.04C149.029 39.0601 149.523 39.504 149.523 40.3917V48.0787ZM141.11 39.5444C140.726 41.5014 139.808 44.0133 138.356 47.08C138.88 47.2414 139.142 47.5037 139.142 47.8669V63.4527C139.142 63.6948 138.991 63.8965 138.689 64.0579C138.406 64.2395 138.093 64.3303 137.75 64.3303C137.448 64.3303 137.145 64.2496 136.842 64.0882C136.56 63.947 136.419 63.7452 136.419 63.4829V50.5906C135.955 51.2564 135.269 52.2248 134.361 53.4959C134.199 53.7582 133.988 53.8893 133.725 53.8893C133.524 53.8893 133.342 53.7985 133.181 53.617C133.019 53.4354 132.938 53.2336 132.938 53.0117C132.938 52.8503 132.979 52.6889 133.059 52.5275C134.21 50.7318 135.259 48.5528 136.207 45.9905C137.155 43.4282 137.811 41.0475 138.174 38.8483C138.235 38.4448 138.608 38.243 139.294 38.243C139.778 38.243 140.222 38.3641 140.625 38.6062C141.029 38.8483 141.19 39.161 141.11 39.5444ZM156.393 43.4786V40.6641H153.609V43.4786H156.393ZM156.393 47.7761V44.9918H153.609V47.7761H156.393ZM146.89 43.4484V40.6641H144.015V43.4484H146.89ZM146.89 47.7761V44.9313H144.015V47.7761H146.89Z" fill="#E86E2A"/>
</g>
<defs>
<clipPath id="clip0_161_69">
<rect width="520" height="92" fill="white"/>
</clipPath>
</defs>
</svg>
